<svg width="248" height="168" viewBox="0 0 248 168" fill="none" xmlns="http://www.w3.org/2000/svg">
<path d="M130.524 32.285C125.02 32.5633 119.529 33.1547 114.09 34.0462C101.164 36.1597 89.8935 41.0085 77.9196 46.0574C75.8534 46.9271 73.7172 47.8969 71.5767 48.971C60.8653 54.3374 49.9573 62.2564 46.4888 73.0282C43.5925 82.0126 46.1961 91.3189 45.5714 100.438C44.8856 110.479 37.8175 119.007 36.9438 129.057C35.5022 145.621 47.5023 157.511 63.2548 162.381C82.6725 168.387 105.987 168.687 126.379 167.33C142.581 166.252 158.919 162.625 172.929 154.671C189.066 145.508 200.253 130.692 203.674 114.141C204.163 111.775 204.49 109.375 204.652 106.953C205.395 100.56 204.958 93.602 201.026 87.9487C196.645 81.6517 192.185 75.4548 188.476 68.7229C184.474 61.4606 180.971 53.9286 176.712 46.8054C174.864 43.7134 172.846 40.665 170.163 38.2427C165.725 34.2375 160.374 33.8462 154.699 33.1373C146.683 32.1415 138.588 31.8718 130.524 32.2806V32.285Z" fill="#D6E1E8"/>
<path d="M140.375 37.1816C134.246 36.7598 128.095 36.625 121.953 36.6772C111.36 36.7685 100.697 37.4295 90.4134 39.9735C78.4002 42.948 63.5825 48.9797 57.7987 60.7169C53.7754 68.8795 54.6665 78.2597 52.6789 86.931C50.4859 96.4765 42.7713 103.508 40.408 113.032C36.5113 128.727 45.4885 142.142 58.952 149.431C75.5476 158.415 96.5597 162.56 115.187 164.621C129.991 166.261 145.316 165.473 159.212 160.138C182.08 151.353 197.641 129.814 196.662 105.122C196.068 90.1404 185.732 77.9596 182.897 63.5306C181.997 58.9383 181.7 54.059 179.241 50.0756C173.999 41.5782 163.619 40.1257 154.568 38.7298C149.859 38.0035 145.124 37.5034 140.371 37.1729L140.375 37.1816Z" fill="url(#paint0_linear_422_823)"/>
<mask id="mask0_422_823" style="mask-type:luminance" maskUnits="userSpaceOnUse" x="39" y="36" width="158" height="130">
<path d="M140.375 37.1816C134.246 36.7598 128.095 36.625 121.953 36.6772C111.36 36.7685 100.697 37.4295 90.4134 39.9735C78.4002 42.948 63.5825 48.9797 57.7987 60.7169C53.7754 68.8795 54.6665 78.2597 52.6789 86.931C50.4859 96.4765 42.7713 103.508 40.408 113.032C36.5113 128.727 45.4885 142.142 58.952 149.431C75.5476 158.415 96.5597 162.56 115.187 164.621C129.991 166.261 145.316 165.473 159.212 160.138C182.08 151.353 197.641 129.814 196.662 105.122C196.068 90.1404 185.732 77.9596 182.897 63.5306C181.997 58.9383 181.7 54.059 179.241 50.0756C173.999 41.5782 163.619 40.1257 154.568 38.7298C149.859 38.0035 145.124 37.5034 140.371 37.1729L140.375 37.1816Z" fill="white"/>
</mask>
<g mask="url(#mask0_422_823)">
<g style="mix-blend-mode:multiply">
<path d="M36.7648 131.771V129.788H40.7619V117.451H50.1322V93.8152H57.1304V127.031H61.9356V109.331H72.9266V131.149H77.2077V92.4802H79.7326V96.094H84.0137V106.279H85.3067V124.487H95.4895V109.379H99.8099V106.057H109.486V120.386H116.03V117.159H127.078V94.8241H137.571V121.256H149.636V106.766H150.903V89.2534H158.998V113.432H159.234V127.922H164.305V106.1H174.27V109.31H177.328V123.804H183.02V90.5841H186.073V99.7295H191.311V114.224H199.441V140.129H36.7648V131.771Z" fill="#D1D3D4"/>
</g>
<path d="M116.537 91.3106C115.462 89.8059 113.911 87.6055 113.911 87.6055H101.859C101.859 87.6055 100.304 89.8016 99.2333 91.3106H116.541H116.537Z" fill="#F8FAFB"/>
<path d="M146.115 105.674C145.783 104.935 145.006 104.491 144.193 104.587L140.047 105.057C138.427 105.239 137.75 106.379 137.75 106.379L139.252 108.905L140.047 109.632C141.616 109.723 143.678 109.666 145.189 108.958C146.84 108.184 146.587 106.727 146.12 105.674H146.115Z" fill="#E8C154"/>
<path d="M139.855 134.415H131.35V140.16C131.35 140.999 132.036 141.678 132.874 141.678H141.336C142.179 141.678 142.861 140.995 142.861 140.16V131.419C142.861 133.071 141.515 134.411 139.851 134.411L139.855 134.415Z" fill="#2E336D"/>
<path d="M122.316 128.675H93.4494C92.7548 128.675 92.1913 129.236 92.1913 129.927V130.74C92.1913 131.432 92.7548 131.993 93.4494 131.993H122.316C123.011 131.993 123.574 131.432 123.574 130.74V129.927C123.574 129.236 123.011 128.675 122.316 128.675Z" fill="#2E336D"/>
<path d="M124.103 121.76V121.778L123.832 122.591L123.57 123.404L123.482 123.682C123.426 123.869 123.356 124.048 123.264 124.226C123.159 124.465 123.028 124.687 122.884 124.896C122.679 125.2 122.434 125.474 122.163 125.709C121.337 126.444 120.258 126.874 119.096 126.874H96.6515C95.4939 126.874 94.4105 126.444 93.5849 125.709C93.314 125.47 93.0694 125.196 92.8641 124.896C92.7199 124.687 92.5889 124.465 92.484 124.226C92.3967 124.052 92.3268 123.869 92.2656 123.682L92.1782 123.404L91.9161 122.591L91.654 121.778V121.76C91.4443 121.112 91.9249 120.456 92.6063 120.456H123.137C123.823 120.456 124.299 121.112 124.098 121.76H124.103Z" fill="#2E336D"/>
<path d="M135.954 109.032L127.209 93.9242C126.986 93.5458 126.575 93.3066 126.134 93.3066H89.6271C89.1815 93.3066 88.7753 93.5458 88.5525 93.9242L79.8069 109.032H135.954Z" fill="#2E336D"/>
<path d="M135.954 109.032L127.209 93.9242C126.986 93.5458 126.575 93.3066 126.134 93.3066H89.6271C89.1815 93.3066 88.7753 93.5458 88.5525 93.9242L79.8069 109.032H135.954Z" stroke="#2E336D" stroke-miterlimit="10"/>
<path d="M137.745 106.379L130.393 93.9894C129.41 92.3282 127.615 91.3105 125.68 91.3105H90.0858C88.1505 91.3105 86.3551 92.3282 85.3722 93.9894L78.0202 106.379L76.5174 108.905L75.7224 109.632L75.0365 110.249C73.6736 111.489 72.896 113.241 72.896 115.076V131.423C72.896 133.076 74.2415 134.415 75.9058 134.415H139.855C141.524 134.415 142.865 133.076 142.865 131.423V115.076C142.865 113.241 142.088 111.489 140.725 110.249L140.039 109.632L139.244 108.905L137.741 106.379H137.745ZM88.5524 93.9241C88.7752 93.5458 89.1859 93.3066 89.6271 93.3066H126.134C126.58 93.3066 126.986 93.5458 127.209 93.9241L135.954 109.032H79.8069L88.5524 93.9241ZM82.5677 132.002C81.5499 132.002 80.733 131.188 80.733 130.175C80.733 129.162 81.5499 128.34 82.5677 128.34C83.5855 128.34 84.4112 129.162 84.4112 130.175C84.4112 131.188 83.5855 132.002 82.5677 132.002ZM80.034 126.026C78.4789 126.005 77.1465 124.913 76.8188 123.395L76.2204 120.647C75.8927 119.147 77.2513 117.816 78.7541 118.173L87.3511 120.203C88.002 120.356 88.5131 120.86 88.6835 121.508L89.8935 126.2L80.034 126.026ZM123.57 130.74C123.57 131.432 123.006 131.993 122.312 131.993H93.4451C92.7505 131.993 92.187 131.432 92.187 130.74V129.927C92.187 129.236 92.7505 128.675 93.4451 128.675H122.312C123.006 128.675 123.57 129.236 123.57 129.927V130.74ZM124.103 121.756L123.482 123.682C122.875 125.587 121.102 126.874 119.101 126.874H96.6559C94.6551 126.874 92.8816 125.587 92.2743 123.682L91.654 121.756C91.4487 121.108 91.9292 120.451 92.6151 120.451H123.146C123.832 120.451 124.308 121.108 124.107 121.756H124.103ZM133.193 131.997C132.176 131.997 131.35 131.184 131.35 130.171C131.35 129.158 132.176 128.336 133.193 128.336C134.211 128.336 135.028 129.158 135.028 130.171C135.028 131.184 134.211 131.997 133.193 131.997ZM139.541 120.643L138.942 123.391C138.615 124.909 137.282 126 135.727 126.022L125.868 126.196L127.078 121.504C127.248 120.856 127.763 120.351 128.41 120.199L137.007 118.168C138.51 117.812 139.868 119.142 139.541 120.643Z" fill="url(#paint1_linear_422_823)"/>
<path d="M78.0201 106.379C78.0201 106.379 77.343 105.239 75.7223 105.057L71.5767 104.587C70.7642 104.496 69.9866 104.935 69.6546 105.674C69.1872 106.727 68.9338 108.184 70.5851 108.958C72.0922 109.666 74.1584 109.727 75.7267 109.632L76.5218 108.905L78.0245 106.379H78.0201Z" fill="#E8C154"/>
<path d="M72.896 131.423V140.164C72.896 141.004 73.5818 141.682 74.4206 141.682H82.8822C83.7253 141.682 84.4068 140.999 84.4068 140.164V134.42H75.9014C74.2327 134.42 72.8916 133.08 72.8916 131.428L72.896 131.423Z" fill="#2E336D"/>
<path d="M103.689 88.4536H105.502V88.9494H104.903V90.6889H104.279V88.9494H103.689V88.4536Z" fill="#565588"/>
<path d="M107.476 90.3192H106.681L106.559 90.6845H105.904L106.721 88.4492H107.441L108.254 90.6845H107.594L107.472 90.3192H107.476ZM107.079 89.1233L106.839 89.8452H107.319L107.079 89.1233Z" fill="#565588"/>
<path d="M109.744 90.0539L109.372 90.6845H108.665L109.394 89.5407L108.638 88.4492H109.372L109.796 89.0624L110.159 88.4492H110.866L110.146 89.5755L110.914 90.6845H110.18L109.744 90.0539Z" fill="#565588"/>
<path d="M111.452 88.4536H112.076V90.6889H111.452V88.4536Z" fill="#565588"/>
<path d="M133.193 128.34C132.175 128.34 131.35 129.162 131.35 130.175C131.35 131.188 132.175 132.001 133.193 132.001C134.211 132.001 135.028 131.188 135.028 130.175C135.028 129.162 134.211 128.34 133.193 128.34Z" fill="#C6DFF2" stroke="#D1A024" stroke-miterlimit="10"/>
<path d="M137.007 118.173L128.41 120.204C127.759 120.356 127.248 120.86 127.078 121.508L125.868 126.2L135.727 126.027C137.282 126.005 138.615 124.913 138.942 123.396L139.541 120.647C139.868 119.147 138.51 117.816 137.007 118.173Z" fill="#C6DFF2" stroke="#D1A024" stroke-miterlimit="10"/>
<path d="M82.5676 128.34C81.5498 128.34 80.7329 129.162 80.7329 130.175C80.7329 131.188 81.5498 132.001 82.5676 132.001C83.5855 132.001 84.4111 131.188 84.4111 130.175C84.4111 129.162 83.5855 128.34 82.5676 128.34Z" fill="#C6DFF2" stroke="#D1A024" stroke-miterlimit="10"/>
<path d="M87.3554 120.204L78.7584 118.173C77.2556 117.816 75.897 119.147 76.2247 120.647L76.8231 123.396C77.1508 124.913 78.4832 126.005 80.0383 126.027L89.8978 126.2L88.6878 121.508C88.5174 120.86 88.002 120.356 87.3554 120.204Z" fill="#C6DFF2" stroke="#D1A024" stroke-miterlimit="10"/>
<path d="M124.098 121.778L123.836 122.591H91.9248L91.6627 121.778H124.098Z" fill="#565588"/>
<path d="M123.57 123.409L123.482 123.687C123.426 123.874 123.356 124.052 123.264 124.231H92.4884C92.401 124.057 92.3311 123.874 92.27 123.687L92.1826 123.409H123.565H123.57Z" fill="#565588"/>
<path d="M122.888 124.9C122.683 125.204 122.438 125.478 122.167 125.713H93.5936C93.3227 125.474 93.0781 125.2 92.8728 124.9H122.888Z" fill="#565588"/>
<path d="M115.147 127.896H100.614V132.98H115.147V127.896Z" fill="#EFEADC" stroke="#D1A024" stroke-miterlimit="10"/>
<path d="M102.558 129.318V131.093H103.261V131.571H101.929V129.318H102.558Z" fill="#565588"/>
<path d="M104.912 131.588C104.27 131.588 103.75 131.11 103.75 130.432C103.75 129.753 104.27 129.279 104.912 129.279C105.554 129.279 106.07 129.753 106.07 130.432C106.07 131.11 105.554 131.588 104.912 131.588ZM104.912 131.006C105.236 131.006 105.432 130.78 105.432 130.432C105.432 130.084 105.236 129.853 104.912 129.853C104.589 129.853 104.392 130.075 104.392 130.432C104.392 130.788 104.585 131.006 104.912 131.006Z" fill="#565588"/>
<path d="M107.664 129.318C108.224 129.318 108.507 129.636 108.507 130.04C108.507 130.336 108.346 130.588 108.009 130.693L108.521 131.571H107.817L107.367 130.74H107.302V131.571H106.673V129.318H107.664ZM107.612 129.84H107.302V130.31H107.612C107.782 130.31 107.87 130.227 107.87 130.075C107.87 129.936 107.782 129.84 107.612 129.84Z" fill="#565588"/>
<path d="M110.561 129.818H109.744V130.184H110.464V130.658H109.744V131.062H110.561V131.562H109.115V129.31H110.561V129.81V129.818Z" fill="#565588"/>
<path d="M111.194 129.318H111.954L112.522 130.78L113.077 129.318H113.832V131.571H113.203V130.327L112.775 131.571H112.251L111.823 130.319V131.571H111.194V129.318Z" fill="#565588"/>
<path d="M162.558 130.262C161.981 130.071 160.509 132.689 158.884 136.585C160.413 125.192 160.243 122.069 159.605 121.86C158.993 121.66 155.739 129.566 155.132 135.707C155.376 124.352 155.153 118.647 154.463 118.59C153.751 118.534 153.127 124.648 151.418 136.598C150.344 129.849 148.994 126.331 148.544 126.37C148.064 126.414 148.522 130.488 148.741 138.151C146.535 133.602 144.722 131.154 144.468 131.258C144.184 131.375 145.154 134.467 147.373 140.538H160.802C160.802 140.538 163.48 130.562 162.562 130.258L162.558 130.262Z" fill="url(#paint2_linear_422_823)"/>
<path d="M46.7159 139.547C49.9879 143.495 54.186 146.848 58.9563 149.431C75.5519 158.416 96.5641 162.56 115.191 164.622C129.996 166.261 145.32 165.474 159.216 160.138C170.268 155.894 179.604 148.662 186.2 139.542H46.7159V139.547Z" fill="#212F47"/>
<path d="M164.131 122.395C165.092 121.691 165.983 120.856 166.669 119.877C165.494 119.899 164.345 120.321 163.384 120.978C162.322 121.708 161.462 122.726 160.964 123.917C162.121 123.682 163.187 123.082 164.131 122.391V122.395ZM164.353 137.446C165.31 136.737 166.027 135.728 166.59 134.698C167.162 133.645 167.625 132.506 167.844 131.319C166.774 131.836 165.904 132.702 165.301 133.711C164.637 134.833 164.288 136.137 164.353 137.442V137.446ZM157.652 124.139C156.774 123.304 155.678 122.556 154.468 122.252C155.062 123.704 155.783 124.835 156.905 125.861C157.783 126.661 159.006 127.235 160.247 127.309C159.548 126.105 158.644 125.078 157.652 124.139ZM162.964 134.437C163.982 133.837 164.79 132.919 165.454 131.958C166.127 130.98 166.695 129.901 167.031 128.753C165.926 129.157 164.978 129.923 164.284 130.862C163.515 131.897 163.038 133.15 162.964 134.437ZM166.608 122.569C165.428 122.708 164.323 123.239 163.419 123.996C162.427 124.831 161.667 125.935 161.291 127.179C162.427 126.827 163.44 126.118 164.314 125.331C165.201 124.53 166.013 123.609 166.608 122.565V122.569ZM158.076 128.77C157.097 128.057 155.914 127.457 154.673 127.318C155.451 128.679 156.315 129.71 157.56 130.575C158.535 131.254 159.823 131.667 161.064 131.58C160.212 130.475 159.181 129.575 158.076 128.77ZM166.747 126.052C165.598 126.344 164.567 127.014 163.772 127.879C162.899 128.836 162.287 130.036 162.082 131.314C163.165 130.814 164.069 129.984 164.834 129.088C165.612 128.179 166.293 127.161 166.747 126.048V126.052ZM157.862 120.556C157.08 119.647 156.075 118.799 154.909 118.381C155.241 119.864 155.983 121.099 156.949 122.178C157.735 123.052 158.884 123.739 160.099 123.935C159.531 122.678 158.74 121.578 157.858 120.556H157.862ZM158.998 117.607C158.473 116.729 157.875 115.798 156.993 115.185C157.036 116.416 157.377 117.707 158.019 118.69C158.565 119.525 159.242 120.39 160.247 120.825C160.002 119.699 159.574 118.573 158.998 117.612V117.607ZM158.596 134.089C159.622 134.663 160.937 134.941 162.152 134.733C161.204 133.728 160.094 132.937 158.923 132.258C157.888 131.654 156.656 131.184 155.42 131.167C156.224 132.458 157.329 133.384 158.596 134.089ZM160.994 120.878C161.981 120.612 162.859 120.012 163.589 119.408C164.349 118.781 165.105 118.007 165.642 117.103C164.607 117.172 163.654 117.686 162.938 118.255C162.139 118.89 161.374 119.795 160.99 120.878H160.994ZM159.906 135.72C158.805 135.215 157.521 134.859 156.276 134.967C157.316 136.15 158.373 136.998 159.775 137.607C160.867 138.081 162.217 138.238 163.419 137.903C162.357 136.981 161.16 136.294 159.911 135.72H159.906ZM161.317 117.285C161.99 117.181 162.763 116.833 163.536 116.298C164.31 115.768 164.948 115.146 165.384 114.528C164.712 114.533 163.899 114.789 163.113 115.302C162.414 115.755 161.684 116.529 161.317 117.285ZM161.955 111.937C161.566 113.002 161.374 114.163 161.488 115.294C161.488 115.324 161.492 115.35 161.496 115.381C161.514 115.359 161.527 115.333 161.544 115.311C162.174 114.394 162.632 113.35 163.025 112.328C163.432 111.271 163.724 110.119 163.834 108.971C162.973 109.784 162.353 110.836 161.951 111.941L161.955 111.937ZM159.255 115.298C159.692 116.198 160.278 116.855 160.863 117.198C160.784 116.307 160.492 115.32 160.125 114.515C159.71 113.611 159.212 112.872 158.679 112.437C158.613 113.354 158.854 114.481 159.251 115.298H159.255Z" fill="url(#paint3_linear_422_823)"/>
<path d="M160.234 127.353C160.19 127.335 160.151 127.318 160.107 127.301C159.972 127.248 159.836 127.192 159.705 127.127C159.352 126.966 159.002 126.766 158.67 126.548C158.334 126.331 158.006 126.079 157.696 125.796C157.386 125.513 157.084 125.205 156.813 124.844C157.093 125.192 157.399 125.487 157.713 125.753C158.028 126.018 158.364 126.257 158.701 126.457C159.037 126.657 159.395 126.835 159.736 126.983C159.871 127.044 160.016 127.096 160.155 127.144C160.19 127.157 160.23 127.17 160.265 127.183C160.374 127.222 160.492 127.257 160.605 127.292C160.505 126.24 160.439 125.205 160.404 124.148C160.265 124.083 160.125 124.013 159.989 123.943C159.972 123.93 159.95 123.922 159.933 123.913C159.784 123.83 159.631 123.752 159.487 123.656C159.155 123.456 158.827 123.222 158.517 122.969C158.207 122.717 157.906 122.43 157.622 122.121C157.342 121.808 157.071 121.469 156.84 121.082C157.08 121.456 157.36 121.778 157.648 122.078C157.936 122.374 158.242 122.643 158.556 122.882C158.871 123.117 159.207 123.33 159.535 123.522C159.692 123.613 159.863 123.696 160.024 123.778L160.042 123.787C160.164 123.843 160.286 123.896 160.409 123.952C160.396 122.995 160.431 122.026 160.509 121.073C160.4 120.986 160.295 120.899 160.19 120.808C160.068 120.699 159.946 120.586 159.828 120.473C159.596 120.243 159.369 119.995 159.159 119.73C158.945 119.464 158.749 119.182 158.561 118.882C158.377 118.581 158.203 118.268 158.058 117.929C158.216 118.26 158.399 118.56 158.591 118.847C158.784 119.134 158.993 119.403 159.212 119.651C159.43 119.899 159.662 120.138 159.898 120.351C159.994 120.438 160.094 120.525 160.195 120.604C160.304 120.691 160.413 120.778 160.527 120.86C160.627 119.673 160.797 118.49 161.025 117.32C160.968 117.255 160.911 117.19 160.854 117.125C160.579 116.79 160.326 116.42 160.103 116.02C159.832 115.529 159.43 114.424 159.43 114.424C159.43 114.424 159.858 115.511 160.138 115.985C160.348 116.342 160.583 116.668 160.837 116.968C160.907 117.051 160.977 117.129 161.046 117.207C161.199 116.442 161.291 116.059 161.488 115.303C161.676 114.585 161.785 114.228 162.016 113.52C161.925 113.82 161.881 113.967 161.798 114.268C161.89 113.967 161.933 113.82 162.029 113.524C161.815 114.237 161.715 114.598 161.544 115.316C161.361 116.077 161.282 116.459 161.147 117.225C161.243 117.177 161.335 117.133 161.431 117.085C161.78 116.907 162.121 116.711 162.457 116.494C162.907 116.207 163.768 115.555 163.768 115.555C163.768 115.555 162.916 116.233 162.471 116.533C162.108 116.781 161.728 117.007 161.352 117.212C161.278 117.255 161.199 117.294 161.125 117.333C160.92 118.503 160.784 119.682 160.71 120.869C160.832 120.804 160.955 120.738 161.077 120.669C161.191 120.608 161.3 120.543 161.409 120.477C161.68 120.317 161.951 120.143 162.213 119.964C162.479 119.786 162.737 119.599 162.995 119.403C163.248 119.208 163.502 119.008 163.746 118.786C163.515 119.016 163.266 119.234 163.017 119.442C162.768 119.651 162.51 119.856 162.252 120.047C161.99 120.238 161.724 120.43 161.457 120.604C161.322 120.695 161.186 120.782 161.046 120.865C160.929 120.938 160.815 121.008 160.697 121.078C160.64 122.026 160.627 122.991 160.662 123.939C160.78 123.883 160.902 123.826 161.02 123.765L161.038 123.756C161.199 123.669 161.365 123.587 161.523 123.5C161.846 123.317 162.182 123.126 162.501 122.921C162.82 122.717 163.139 122.5 163.445 122.269C163.751 122.039 164.052 121.799 164.332 121.53C164.061 121.808 163.764 122.065 163.467 122.308C163.165 122.552 162.855 122.787 162.54 123.004C162.226 123.222 161.903 123.435 161.571 123.63C161.427 123.722 161.278 123.804 161.134 123.887C161.134 123.887 161.099 123.909 161.077 123.922C160.942 123.996 160.806 124.07 160.671 124.143C160.728 125.192 160.819 126.213 160.942 127.253C161.046 127.192 161.151 127.135 161.247 127.07C161.278 127.048 161.313 127.027 161.344 127.009C161.47 126.931 161.597 126.848 161.719 126.766C162.021 126.557 162.34 126.327 162.637 126.096C162.934 125.861 163.226 125.609 163.506 125.352C163.785 125.091 164.061 124.822 164.31 124.526C164.069 124.835 163.803 125.113 163.532 125.387C163.261 125.661 162.977 125.926 162.685 126.174C162.396 126.422 162.095 126.67 161.785 126.892C161.671 126.983 161.549 127.061 161.431 127.144C161.392 127.17 161.357 127.196 161.322 127.222C161.208 127.301 161.09 127.375 160.977 127.453C161.186 128.836 161.457 130.188 161.798 131.545C161.868 131.471 161.938 131.397 162.003 131.323C162.091 131.228 162.174 131.132 162.257 131.032C162.457 130.793 162.658 130.54 162.851 130.288C163.043 130.036 163.226 129.771 163.405 129.505C163.585 129.24 163.755 128.966 163.912 128.684C163.768 128.975 163.606 129.258 163.436 129.536C163.27 129.814 163.095 130.088 162.912 130.353C162.728 130.619 162.54 130.884 162.344 131.136C162.248 131.267 162.143 131.393 162.042 131.519C161.981 131.597 161.916 131.671 161.855 131.749C162.104 132.676 162.405 133.606 162.746 134.506C162.82 134.433 162.899 134.359 162.973 134.28L162.986 134.267C163.108 134.132 163.239 134.002 163.357 133.867C163.602 133.589 163.86 133.293 164.091 132.997C164.327 132.702 164.554 132.389 164.768 132.071C164.982 131.754 165.188 131.428 165.367 131.084C165.201 131.436 165.009 131.775 164.803 132.102C164.602 132.428 164.384 132.754 164.157 133.063C163.934 133.371 163.694 133.68 163.449 133.972C163.344 134.106 163.231 134.228 163.121 134.359C163.121 134.359 163.095 134.393 163.078 134.406C162.995 134.502 162.907 134.598 162.82 134.689C163.218 135.676 163.633 136.629 164.091 137.59C164.157 137.511 164.227 137.433 164.288 137.355C164.31 137.324 164.336 137.294 164.358 137.264C164.449 137.146 164.541 137.029 164.629 136.911C164.847 136.611 165.07 136.289 165.271 135.972C165.472 135.655 165.664 135.315 165.843 134.976C166.022 134.637 166.188 134.289 166.328 133.924C166.201 134.293 166.044 134.65 165.878 134.998C165.712 135.346 165.533 135.694 165.341 136.024C165.148 136.355 164.947 136.69 164.729 137.003C164.65 137.124 164.563 137.242 164.48 137.359C164.454 137.394 164.428 137.433 164.401 137.472C164.332 137.572 164.253 137.668 164.179 137.764C165.118 139.547 166.166 141.212 167.368 142.839C167.215 142.956 167.136 143.013 166.983 143.126C165.782 141.469 164.733 139.773 163.794 137.955C163.672 137.955 163.545 137.955 163.423 137.951C163.375 137.951 163.331 137.942 163.283 137.942C163.135 137.933 162.99 137.925 162.842 137.907C162.453 137.868 162.056 137.79 161.671 137.69C161.282 137.59 160.885 137.455 160.496 137.29C160.107 137.124 159.718 136.924 159.347 136.668C159.723 136.907 160.116 137.09 160.5 137.242C160.889 137.394 161.282 137.511 161.667 137.594C162.051 137.677 162.449 137.729 162.824 137.759C162.973 137.772 163.126 137.777 163.279 137.777C163.318 137.777 163.357 137.777 163.397 137.777C163.497 137.777 163.602 137.777 163.707 137.768C163.248 136.79 162.833 135.824 162.44 134.82C162.313 134.807 162.182 134.789 162.056 134.767C162.034 134.763 162.012 134.759 161.99 134.754C161.82 134.724 161.654 134.698 161.483 134.654C161.103 134.572 160.714 134.459 160.339 134.319C159.963 134.18 159.583 134.006 159.212 133.806C158.845 133.602 158.478 133.367 158.133 133.08C158.482 133.354 158.849 133.571 159.22 133.758C159.592 133.945 159.972 134.102 160.343 134.224C160.714 134.346 161.108 134.441 161.479 134.511C161.658 134.546 161.846 134.567 162.025 134.593H162.042C162.152 134.607 162.257 134.615 162.361 134.624C162.025 133.711 161.728 132.767 161.479 131.828C161.387 131.793 161.291 131.758 161.199 131.723C161.046 131.662 160.898 131.593 160.745 131.523C160.452 131.384 160.155 131.219 159.867 131.041C159.579 130.862 159.299 130.658 159.024 130.436C158.753 130.214 158.487 129.975 158.238 129.701C158.491 129.958 158.766 130.184 159.041 130.388C159.317 130.593 159.601 130.78 159.893 130.945C160.186 131.11 160.479 131.258 160.771 131.38C160.889 131.432 161.012 131.48 161.134 131.523C161.23 131.558 161.326 131.588 161.422 131.623C161.09 130.249 160.828 128.879 160.627 127.479C160.496 127.435 160.361 127.392 160.234 127.34V127.353Z" fill="#565588"/>
<path d="M64.2509 130.971C64.4606 130.119 64.4038 129.21 64.1111 128.379C63.849 127.627 63.386 126.935 62.7482 126.453C62.7307 127.266 62.8836 128.083 63.1239 128.858C63.3598 129.614 63.7049 130.375 64.2466 130.971H64.2509ZM57.8905 134.62C57.9691 133.819 57.8424 132.993 57.4624 132.28C57.1042 133.019 56.8945 133.832 56.7809 134.641C56.6717 135.437 56.6586 136.276 56.8989 137.055C57.4624 136.363 57.7988 135.502 57.8905 134.62ZM63.2724 133.124C63.9844 133.58 64.8931 133.759 65.6969 133.672C66.7278 133.559 67.5884 133.224 68.5014 132.667C67.7107 132.345 66.8065 132.319 65.9852 132.423C65.0591 132.541 64.1461 132.745 63.2724 133.128V133.124ZM59.6117 133.458C59.6117 132.663 59.3976 131.863 58.9564 131.193C58.6768 131.958 58.5501 132.78 58.5239 133.589C58.4977 134.385 58.572 135.211 58.8865 135.955C59.367 135.215 59.6117 134.337 59.6117 133.458ZM61.8352 130.406C61.9968 131.188 62.2677 131.984 62.7482 132.637C63.0452 131.802 63.0758 130.888 62.8661 130.032C62.6783 129.253 62.2808 128.514 61.691 127.966C61.5949 128.779 61.6692 129.61 61.8308 130.41L61.8352 130.406ZM61.0925 135.15C61.7391 135.694 62.6171 135.989 63.4297 136.007C64.4693 136.029 65.3605 135.811 66.3434 135.372C65.6051 134.95 64.7096 134.807 63.8796 134.807C62.9448 134.807 62.0099 134.885 61.0969 135.154L61.0925 135.15ZM60.0267 132.267C60.0834 133.067 60.2451 133.889 60.6382 134.598C61.0445 133.811 61.193 132.906 61.1013 132.028C61.0139 131.232 60.7212 130.449 60.2058 129.827C60.0048 130.623 59.9655 131.458 60.0267 132.267ZM64.7227 131.332C65.4697 131.71 66.3827 131.797 67.169 131.628C68.1388 131.423 69.0475 131.041 69.8338 130.358C69.0256 130.119 68.1257 130.184 67.3263 130.371C66.4264 130.58 65.544 130.871 64.7227 131.332ZM65.9066 129.562C66.6317 129.727 67.3569 129.523 67.999 129.279C68.7504 128.997 69.4625 128.423 69.9867 127.762C69.2528 127.744 68.5451 128.018 67.8986 128.292C67.1909 128.592 66.5007 129.04 65.9066 129.562ZM64.3689 137.194C63.683 136.707 62.8137 136.472 61.9968 136.39C61.0751 136.294 60.1446 136.281 59.2141 136.455C59.7995 137.055 60.6339 137.429 61.4333 137.529C62.4162 137.651 63.3991 137.585 64.3645 137.194H64.3689ZM65.461 127.066C65.295 126.466 64.9804 125.8 64.4388 125.348C64.3689 126.061 64.4737 126.792 64.6353 127.44C64.7926 128.066 65.0329 128.749 65.4697 129.292C65.6969 128.54 65.6445 127.736 65.461 127.066ZM57.2352 137.69C57.7638 138.355 58.5676 138.812 59.3626 138.99C60.3805 139.216 61.3066 139.177 62.3594 138.942C61.7172 138.381 60.8654 138.064 60.0529 137.899C59.1311 137.712 58.1919 137.607 57.2352 137.69ZM66.5662 125.37C66.339 124.774 65.9939 124.304 65.627 124.03C65.6182 124.548 65.7187 125.144 65.9284 125.748C66.1381 126.353 66.4264 126.857 66.7497 127.183C66.8545 126.618 66.7671 125.896 66.5662 125.37ZM68.7373 121.591C68.331 122.265 68.0252 123.017 67.8199 123.765C67.6233 124.487 67.453 125.248 67.4268 126.005C67.4268 126.027 67.4268 126.044 67.4268 126.061C67.4399 126.048 67.453 126.035 67.4661 126.018C67.9859 125.444 68.3529 124.726 68.5713 123.983C68.7985 123.213 68.8815 122.387 68.7417 121.591H68.7373ZM70.1701 125.574C69.6984 125.6 69.1261 125.805 68.532 126.14C68.0034 126.435 67.4399 126.861 67.038 127.322C67.501 127.37 68.0908 127.244 68.6936 126.922C69.244 126.631 69.8338 126.109 70.1701 125.579V125.574Z" fill="url(#paint4_linear_422_823)"/>
<path d="M63.2637 133.154C63.2942 133.163 63.3248 133.167 63.3554 133.176C63.4515 133.202 63.5476 133.223 63.6481 133.241C63.9058 133.293 64.181 133.323 64.4519 133.341C64.7227 133.354 65.0067 133.35 65.295 133.319C65.5789 133.289 65.8716 133.241 66.1687 133.149C65.876 133.228 65.5877 133.267 65.3037 133.289C65.0241 133.306 64.7402 133.306 64.4737 133.28C64.2072 133.254 63.9364 133.21 63.6874 133.154C63.5869 133.132 63.4864 133.102 63.3903 133.076C63.3641 133.067 63.3379 133.063 63.3117 133.054C63.2331 133.032 63.1544 133.002 63.0802 132.976C63.5607 132.436 64.0194 131.893 64.465 131.323C64.5698 131.34 64.6703 131.362 64.7795 131.375C64.7926 131.375 64.8101 131.375 64.8232 131.38C64.9368 131.393 65.0547 131.41 65.1727 131.419C65.4391 131.445 65.7143 131.445 65.9852 131.432C66.2604 131.419 66.54 131.38 66.8239 131.323C67.1035 131.266 67.3918 131.184 67.6758 131.066C67.3918 131.175 67.1079 131.24 66.8283 131.288C66.5487 131.336 66.2691 131.362 66.0027 131.367C65.7362 131.367 65.461 131.353 65.2076 131.323C65.0853 131.31 64.9586 131.288 64.8319 131.266H64.8188C64.7271 131.249 64.6397 131.227 64.5523 131.206C64.9455 130.684 65.3212 130.136 65.6619 129.579C65.7537 129.579 65.8498 129.57 65.9415 129.562C66.0507 129.553 66.1643 129.54 66.2779 129.523C66.4963 129.488 66.7235 129.444 66.9462 129.383C67.169 129.323 67.3962 129.249 67.619 129.157C67.8418 129.066 68.0646 128.962 68.283 128.836C68.0646 128.953 67.8374 129.049 67.619 129.127C67.3962 129.205 67.1734 129.27 66.9506 129.318C66.7278 129.366 66.505 129.405 66.2866 129.427C66.1992 129.436 66.1075 129.444 66.0201 129.449C65.924 129.453 65.8279 129.457 65.7362 129.457C66.1599 128.762 66.5487 128.044 66.8982 127.309C66.955 127.296 67.0118 127.283 67.0686 127.27C67.3569 127.196 67.6452 127.096 67.9291 126.966C68.2786 126.805 68.947 126.357 68.947 126.357C68.947 126.357 68.2699 126.783 67.9248 126.931C67.667 127.044 67.4006 127.127 67.1385 127.192C67.0686 127.209 66.9987 127.222 66.9288 127.24C67.1559 126.757 67.2608 126.509 67.4573 126.013C67.6452 125.544 67.7326 125.304 67.8898 124.817C67.8199 125.017 67.7806 125.117 67.7064 125.317C67.7762 125.117 67.8112 125.017 67.8811 124.813C67.7107 125.291 67.619 125.531 67.4224 125.996C67.2127 126.487 67.1035 126.731 66.8676 127.205C66.8327 127.14 66.8021 127.079 66.7715 127.013C66.6536 126.774 66.5443 126.531 66.4439 126.274C66.3128 125.935 66.1031 125.23 66.1031 125.23C66.1031 125.23 66.2953 125.944 66.4177 126.292C66.5181 126.574 66.6317 126.848 66.7584 127.113C66.7846 127.166 66.8108 127.218 66.8327 127.27C66.4701 127.996 66.0682 128.701 65.627 129.383C65.5877 129.301 65.544 129.214 65.5047 129.127C65.4697 129.049 65.4348 128.966 65.3998 128.888C65.3168 128.692 65.2382 128.488 65.1639 128.283C65.0897 128.079 65.0241 127.87 64.963 127.661C64.9018 127.453 64.845 127.24 64.8013 127.022C64.8363 127.244 64.8843 127.461 64.9368 127.674C64.9892 127.888 65.046 128.105 65.1115 128.314C65.177 128.522 65.2469 128.736 65.3212 128.94C65.3605 129.044 65.3998 129.149 65.4391 129.249C65.4741 129.336 65.509 129.423 65.5483 129.51C65.1945 130.053 64.8101 130.588 64.4082 131.097C64.3645 131.019 64.3208 130.94 64.2815 130.858V130.849C64.2203 130.736 64.1636 130.627 64.1111 130.514C64.0063 130.284 63.9014 130.04 63.8053 129.801C63.7136 129.562 63.6262 129.314 63.552 129.062C63.4777 128.809 63.4078 128.557 63.3641 128.296C63.3991 128.562 63.4602 128.818 63.5258 129.07C63.5913 129.323 63.6699 129.579 63.7529 129.827C63.8359 130.071 63.9277 130.323 64.0325 130.562C64.0718 130.671 64.1242 130.775 64.1679 130.879C64.1679 130.879 64.181 130.906 64.1854 130.919C64.2291 131.014 64.2728 131.11 64.3208 131.206C63.8621 131.758 63.3991 132.284 62.9098 132.81C62.8792 132.736 62.8443 132.662 62.8137 132.584C62.805 132.558 62.7962 132.536 62.7831 132.51C62.7482 132.419 62.7089 132.319 62.6739 132.228C62.5909 131.988 62.5123 131.736 62.4424 131.493C62.3725 131.245 62.3157 130.988 62.2677 130.732C62.2196 130.475 62.1803 130.218 62.1628 129.953C62.1716 130.218 62.2021 130.479 62.2414 130.74C62.2808 131.001 62.3288 131.262 62.39 131.514C62.4511 131.767 62.5123 132.023 62.5953 132.271C62.6215 132.367 62.6564 132.458 62.687 132.554C62.7001 132.584 62.7045 132.61 62.7176 132.641C62.7482 132.728 62.7831 132.819 62.8137 132.906C62.1366 133.584 61.442 134.219 60.7038 134.828C60.695 134.759 60.6863 134.689 60.6819 134.624C60.6732 134.537 60.6688 134.45 60.6601 134.363C60.647 134.15 60.6382 133.932 60.6339 133.715C60.6339 133.497 60.6339 133.28 60.647 133.063C60.6557 132.845 60.6732 132.623 60.7038 132.406C60.6644 132.623 60.6382 132.845 60.6208 133.067C60.5989 133.289 60.5858 133.506 60.5771 133.728C60.5683 133.95 60.5683 134.171 60.5727 134.389C60.5727 134.498 60.5771 134.611 60.5858 134.719C60.5858 134.789 60.5945 134.854 60.5989 134.924C60.0834 135.333 59.5418 135.724 58.9913 136.081C58.9782 136.007 58.9695 135.937 58.9564 135.863V135.85C58.9433 135.724 58.9214 135.602 58.9127 135.48C58.8909 135.228 58.869 134.963 58.8603 134.706C58.8515 134.45 58.8515 134.184 58.8603 133.924C58.8734 133.663 58.8909 133.402 58.9345 133.141C58.8821 133.402 58.8515 133.667 58.8341 133.928C58.8122 134.189 58.8035 134.458 58.7991 134.719C58.7991 134.98 58.7991 135.246 58.821 135.507C58.821 135.624 58.8384 135.737 58.8472 135.85C58.8472 135.85 58.8472 135.88 58.8472 135.894C58.8559 135.981 58.8647 136.067 58.8734 136.154C58.2531 136.541 57.6371 136.898 56.995 137.242C56.9906 137.172 56.9819 137.102 56.9819 137.033C56.9819 137.007 56.9819 136.981 56.9819 136.955C56.9819 136.855 56.9731 136.75 56.9775 136.65C56.9775 136.398 56.9862 136.133 57.0037 135.876C57.0212 135.62 57.0518 135.359 57.0911 135.098C57.1304 134.841 57.1784 134.58 57.2527 134.324C57.1697 134.576 57.1129 134.837 57.0649 135.098C57.0168 135.359 56.9731 135.62 56.9469 135.88C56.9163 136.141 56.8945 136.402 56.8858 136.663C56.877 136.763 56.877 136.859 56.877 136.959C56.877 136.989 56.877 137.02 56.877 137.05C56.877 137.133 56.877 137.216 56.877 137.303C55.6364 137.907 54.3826 138.403 53.0677 138.816C53.1071 138.942 53.1245 139.003 53.1639 139.129C54.4962 138.703 55.7631 138.19 57.0168 137.563C57.0867 137.611 57.1522 137.663 57.2221 137.707C57.2483 137.724 57.2745 137.742 57.3008 137.759C57.3838 137.816 57.4668 137.868 57.5585 137.916C57.7856 138.051 58.039 138.168 58.2924 138.268C58.5458 138.368 58.821 138.455 59.1005 138.52C59.3801 138.585 59.6772 138.633 59.9873 138.642C59.6816 138.625 59.3932 138.568 59.118 138.494C58.8428 138.42 58.5807 138.329 58.3317 138.22C58.0871 138.111 57.8468 137.981 57.6284 137.846C57.541 137.794 57.4536 137.733 57.3706 137.677C57.3488 137.659 57.327 137.646 57.3051 137.629C57.2483 137.59 57.1915 137.546 57.1391 137.503C57.7857 137.146 58.4103 136.781 59.0307 136.385C59.1049 136.428 59.1835 136.472 59.2622 136.511C59.2753 136.515 59.2884 136.524 59.3015 136.528C59.4063 136.581 59.5112 136.633 59.6204 136.676C59.865 136.785 60.1228 136.876 60.3849 136.95C60.647 137.024 60.9266 137.081 61.2149 137.12C61.4988 137.155 61.7959 137.172 62.106 137.155C61.8002 137.168 61.5119 137.137 61.2323 137.089C60.9528 137.046 60.6819 136.976 60.4242 136.894C60.1708 136.811 59.9174 136.707 59.6815 136.598C59.568 136.546 59.4588 136.485 59.3452 136.424H59.3364C59.2709 136.381 59.2098 136.346 59.1486 136.307C59.7034 135.941 60.2494 135.541 60.7693 135.119C60.8348 135.137 60.9003 135.154 60.9659 135.172C61.0751 135.198 61.1843 135.224 61.2935 135.246C61.5119 135.285 61.7434 135.315 61.9706 135.333C62.2021 135.35 62.438 135.35 62.6783 135.337C62.9185 135.324 63.1632 135.298 63.4078 135.25C63.1632 135.289 62.9229 135.306 62.687 135.306C62.4511 135.306 62.2196 135.298 61.9924 135.272C61.7653 135.246 61.5425 135.206 61.3328 135.159C61.2454 135.137 61.1581 135.115 61.0751 135.093C61.0095 135.076 60.9397 135.054 60.8741 135.032C61.6168 134.406 62.3113 133.763 62.9928 133.071C63.0845 133.102 63.1763 133.128 63.268 133.154H63.2637Z" fill="#565588"/>
<path d="M193.77 124.378C194.976 124.791 193.604 132.684 189.651 148.057H185.379C187.545 142.125 189.577 136.146 191.512 130.136C191.617 129.81 191.42 129.749 191.302 130.062C189.018 136.011 186.851 142.012 184.824 148.057H181.329C188.354 131.832 192.499 123.939 193.775 124.378H193.77Z" fill="url(#paint5_linear_422_823)"/>
<path d="M191.298 130.062C191.416 129.749 191.612 129.805 191.507 130.136C189.572 136.146 187.541 142.125 185.374 148.057H184.815C186.842 142.012 189.009 136.011 191.293 130.062H191.298Z" fill="#085BBF"/>
<path d="M178.612 148.057H174.064L174.104 146.37L174.182 143.404C174.305 139.451 174.427 135.502 174.549 131.549C174.798 123.643 175.047 115.733 175.296 107.827C175.314 107.197 175.108 107.205 175.074 107.818C174.593 115.711 174.217 123.617 173.951 131.528C173.82 135.481 173.724 139.438 173.667 143.395L173.641 146.361V148.057H168.582C171.85 111.893 174.029 99.221 175.51 99.2775C176.983 99.3341 178.171 112.05 178.616 148.057H178.612Z" fill="url(#paint6_linear_422_823)"/>
<path d="M175.065 107.818C175.104 107.21 175.309 107.196 175.288 107.827C175.039 115.733 174.79 123.643 174.541 131.549C174.418 135.502 174.296 139.455 174.174 143.404L174.095 146.37L174.056 148.057H173.628V146.361L173.658 143.395C173.715 139.438 173.811 135.481 173.942 131.528C174.204 123.617 174.584 115.711 175.065 107.818Z" fill="#085BBF"/>
<path d="M170.216 148.057H167.59C167.486 139.394 167.123 130.727 166.603 122.073C166.581 121.704 166.376 121.725 166.38 122.082C166.459 130.74 166.747 139.412 167.267 148.057H163.764C164.087 127.979 165.205 114.598 166.153 114.567C167.154 114.537 168.508 125.7 170.211 148.057H170.216Z" fill="url(#paint7_linear_422_823)"/>
<path d="M167.59 148.057H167.267C166.743 139.412 166.455 130.741 166.38 122.082C166.38 121.726 166.581 121.708 166.603 122.074C167.127 130.728 167.486 139.395 167.59 148.057Z" fill="#085BBF"/>
<path d="M165.367 148.057H162.833C161.641 142.282 160.247 136.542 158.727 130.841C158.657 130.571 158.456 130.628 158.508 130.893C159.627 136.651 160.915 142.382 162.388 148.062H158.84C156.905 133.389 156.451 125.944 157.482 125.735C158.543 125.522 161.169 132.963 165.367 148.062V148.057Z" fill="url(#paint8_linear_422_823)"/>
<path d="M162.833 148.057H162.388C160.915 142.378 159.627 136.646 158.508 130.889C158.456 130.623 158.657 130.571 158.727 130.836C160.247 136.542 161.641 142.278 162.833 148.053V148.057Z" fill="#085BBF"/>
<path d="M190.577 111.723C191.665 112.067 188.996 124.178 182.57 148.053H178.699C182.05 138.416 185.234 128.714 188.31 118.981C188.463 118.494 188.266 118.447 188.096 118.912C184.649 128.566 181.338 138.29 178.197 148.053H175.287C184.361 123.478 189.454 111.367 190.573 111.723H190.577Z" fill="url(#paint9_linear_422_823)"/>
<path d="M188.096 118.916C188.262 118.451 188.463 118.503 188.31 118.986C185.234 128.718 182.05 138.42 178.699 148.057H178.197C181.338 138.294 184.645 128.571 188.096 118.916Z" fill="#085BBF"/>
<path d="M49.0619 132.467C48.9614 131.941 49.2323 131.354 49.7303 131.032C49.2104 130.779 48.909 130.258 48.9265 129.684C48.9483 128.962 49.4726 128.27 50.2283 128.005C49.3502 127.096 49.1449 125.744 49.6167 124.63C50.2196 123.213 51.7092 122.821 51.7966 122.795C51.4252 121.939 51.6306 120.951 52.2858 120.347C52.8537 119.821 53.6881 119.651 54.4132 119.947C53.9152 118.999 54.0288 117.868 54.6622 117.111C55.4136 116.211 56.5581 116.29 56.6368 116.294C56.331 115.007 56.628 113.667 57.4406 112.719C58.3623 111.641 59.5855 111.584 59.7777 111.58C59.7777 111.445 59.7689 110.319 60.5028 109.51C61.1363 108.81 62.6084 108.453 63.2724 109.279C63.7879 108.962 64.9805 108.858 65.6619 109.523C66.2473 110.097 66.5182 111.145 66.3391 112.202C67.5928 112.041 68.6805 113.18 68.7766 114.881C68.864 116.455 68.0515 118.107 66.8895 118.742C66.9987 118.812 67.9073 119.39 67.9292 120.908C67.9466 122.112 67.3613 123.417 66.4701 124.191C66.5575 124.3 67.3001 125.27 66.8851 126.922C66.5575 128.235 65.6052 129.418 64.5262 129.897C64.7315 131.045 64.2859 132.489 63.3685 133.558C62.3638 134.728 60.9921 135.224 59.983 134.859C59.9262 135.937 59.0394 137.059 58.1133 137.346C57.3532 137.581 56.6892 137.237 56.4882 136.52C56.0776 137.35 55.2301 137.929 54.5268 137.907C53.9458 137.894 53.5439 137.485 53.474 136.889C53.1202 137.29 52.6397 137.529 52.2334 137.49C51.7005 137.442 50.9098 136.624 51.0539 135.72C50.4336 135.737 49.8351 135.05 49.7565 134.511C49.6648 133.88 50.1191 133.328 50.1671 133.267C49.6123 133.315 49.1711 132.976 49.0707 132.462L49.0619 132.467Z" fill="url(#paint10_linear_422_823)"/>
<path d="M52.644 128.822C52.8711 129.405 53.1158 129.997 53.3866 130.562C53.5133 130.853 53.6575 131.132 53.7973 131.41C53.8846 131.588 53.9807 131.762 54.0768 131.941C55.4005 130.318 56.012 129.462 57.1216 127.687C56.9862 127.47 56.842 127.253 56.7154 127.031C56.5537 126.757 56.3834 126.479 56.2305 126.205C55.9247 125.657 55.6101 125.078 55.3262 124.513C55.0423 123.943 54.767 123.36 54.518 122.773C54.269 122.186 54.0288 121.595 53.8409 120.986C54.0463 121.586 54.3084 122.165 54.5792 122.734C54.85 123.308 55.1427 123.878 55.4485 124.426C55.7543 124.974 56.0907 125.53 56.4139 126.057C56.5756 126.322 56.759 126.587 56.925 126.848C57.043 127.031 57.1784 127.213 57.3051 127.396C58.3055 125.77 58.7598 124.922 59.5679 123.187C59.3102 122.76 59.0525 122.325 58.8122 121.891C58.5545 121.425 58.3055 120.938 58.0652 120.46C57.8249 119.977 57.5978 119.486 57.3837 118.999C57.1653 118.507 56.96 118.012 56.7765 117.507C56.9775 118.003 57.2046 118.486 57.4405 118.96C57.6764 119.434 57.921 119.912 58.1832 120.373C58.4409 120.834 58.7117 121.299 58.9869 121.743C59.2228 122.121 59.4675 122.495 59.7165 122.865C60.6994 120.708 61.1144 119.59 61.7827 117.303C61.2673 116.611 60.7824 115.881 60.3324 115.128C59.8737 114.359 59.0568 112.763 59.0568 112.763C59.0568 112.763 59.9087 114.328 60.3848 115.08C60.8348 115.794 61.3197 116.476 61.8308 117.124C62.5297 114.693 62.7918 113.445 63.1151 110.901C62.9447 112.51 62.8224 113.311 62.5035 114.885C63.185 114.798 63.8708 114.624 64.5479 114.38C65.2469 114.128 66.6142 113.415 66.6142 113.415C66.6142 113.415 65.26 114.18 64.5611 114.463C63.8752 114.737 63.1763 114.941 62.4729 115.054C61.9706 117.464 61.6298 118.651 60.7867 120.947C61.1974 120.943 61.6124 120.921 62.0274 120.873C62.4992 120.816 62.9797 120.734 63.4558 120.625C64.4082 120.403 65.3692 120.099 66.3172 119.673C65.378 120.155 64.4169 120.521 63.4602 120.795C62.9797 120.934 62.4992 121.038 62.0186 121.121C61.5687 121.199 61.1187 121.243 60.6732 121.269C59.9611 123.165 59.5461 124.091 58.6113 125.883C59.6378 126.161 60.7299 126.27 61.8439 126.248C63.0321 126.226 64.2553 126.074 65.4828 125.765C64.2465 126.135 63.0146 126.344 61.8133 126.418C60.6688 126.487 59.5374 126.418 58.4584 126.17C57.4929 127.992 56.9513 128.875 55.763 130.571C56.2174 130.727 56.6804 130.871 57.1566 130.975C57.7245 131.101 58.3142 131.201 58.9127 131.258C60.1053 131.371 61.3503 131.362 62.6258 131.171C61.3415 131.419 60.0791 131.484 58.8603 131.419C58.2487 131.388 57.6458 131.31 57.0648 131.206C56.5581 131.114 56.0601 130.984 55.5752 130.836C53.1638 134.167 50.368 136.95 47.2228 139.581C47.0349 139.333 46.9388 139.212 46.751 138.968C49.3415 136.898 51.7485 134.758 53.8715 132.201C53.771 131.993 53.6662 131.78 53.5788 131.571C53.4521 131.279 53.3167 130.992 53.2031 130.692C52.9541 130.105 52.7357 129.497 52.526 128.896C52.3164 128.296 52.1329 127.679 51.9625 127.066C51.7965 126.452 51.6392 125.831 51.5388 125.204C51.6611 125.826 51.8402 126.435 52.028 127.039C52.2159 127.644 52.4256 128.248 52.6571 128.831L52.644 128.822Z" fill="#5049F9"/>
<path d="M61.4113 124.205C62.3287 124.518 61.2846 130.515 58.2835 142.191H55.0377C56.6846 137.686 58.2267 133.141 59.6989 128.575C59.7775 128.327 59.629 128.284 59.5372 128.519C57.803 133.037 56.1561 137.599 54.614 142.187H51.958C57.2919 129.862 60.4459 123.865 61.4113 124.2V124.205Z" fill="url(#paint11_linear_422_823)"/>
<path d="M59.5328 128.523C59.6246 128.284 59.7731 128.332 59.6945 128.58C58.2223 133.146 56.6803 137.69 55.0334 142.196H54.6096C56.1517 137.603 57.7942 133.046 59.5328 128.528V128.523Z" fill="#085BBF"/>
<path d="M49.8917 142.195H46.4363L46.4669 140.917L46.528 138.664C46.6198 135.663 46.7115 132.663 46.8076 129.658C46.9955 123.652 47.1833 117.642 47.3755 111.637C47.3886 111.158 47.2314 111.167 47.2051 111.628C46.8426 117.625 46.5543 123.631 46.3533 129.636C46.2528 132.641 46.1829 135.646 46.1393 138.651L46.1174 140.904V142.191H42.2732C44.7545 114.72 46.4145 105.092 47.5371 105.135C48.6555 105.179 49.5554 114.837 49.8961 142.191L49.8917 142.195Z" fill="url(#paint12_linear_422_823)"/>
<path d="M47.2007 111.628C47.2313 111.163 47.3842 111.158 47.3711 111.637C47.1833 117.642 46.9954 123.652 46.8032 129.658C46.7115 132.658 46.6197 135.663 46.5236 138.664L46.4625 140.917L46.4319 142.195H46.1042V140.908L46.1261 138.655C46.1698 135.65 46.2397 132.645 46.3401 129.64C46.5411 123.63 46.8294 117.625 47.192 111.632L47.2007 111.628Z" fill="#085BBF"/>
<path d="M43.5182 142.195H41.5262C41.4476 135.616 41.1723 129.032 40.7748 122.457C40.7573 122.178 40.6045 122.191 40.6045 122.461C40.6612 129.041 40.884 135.624 41.2772 142.191H38.6168C38.8615 126.94 39.7133 116.773 40.4341 116.751C41.1942 116.729 42.2208 125.209 43.5182 142.191V142.195Z" fill="url(#paint13_linear_422_823)"/>
<path d="M41.5261 142.195H41.2815C40.884 135.629 40.6656 129.04 40.6088 122.465C40.6088 122.196 40.7617 122.178 40.7791 122.461C41.1767 129.036 41.4519 135.62 41.5305 142.2L41.5261 142.195Z" fill="#085BBF"/>
<path d="M39.8357 142.195H37.9092C37.0006 137.808 35.9434 133.45 34.7901 129.115C34.7377 128.91 34.5848 128.954 34.6241 129.154C35.476 133.528 36.4545 137.882 37.5728 142.195H34.8775C33.4053 131.05 33.0602 125.396 33.8422 125.235C34.646 125.07 36.6424 130.724 39.8313 142.195H39.8357Z" fill="url(#paint14_linear_422_823)"/>
<path d="M58.9869 114.594C59.8125 114.855 57.7856 124.052 52.906 142.191H49.9661C52.5129 134.872 54.9286 127.501 57.2657 120.108C57.3837 119.738 57.2308 119.699 57.1041 120.056C54.483 127.392 51.9712 134.776 49.586 142.191H47.3756C54.269 123.526 58.1394 114.324 58.9869 114.594Z" fill="url(#paint15_linear_422_823)"/>
<path d="M57.0997 120.056C57.2264 119.703 57.3793 119.742 57.2614 120.108C54.9243 127.501 52.5085 134.872 49.9617 142.191H49.5817C51.9668 134.772 54.483 127.388 57.0997 120.056Z" fill="#085BBF"/>
<path d="M94.2707 154.163C94.9915 153.319 94.843 152.145 94.1746 151.641C93.6897 151.275 92.9427 151.275 92.3224 151.641C92.3311 149.918 91.3351 148.353 89.7887 147.666C88.1112 146.918 86.093 147.344 84.8218 148.731C84.1534 146.961 82.6026 145.883 81.1217 146.018C80.0689 146.113 79.3482 146.792 79.0773 147.083C79.8505 144.63 78.7759 142.078 76.7402 141.069C75.1632 140.29 73.193 140.525 71.6728 141.652C71.7733 141.043 71.45 140.438 70.8952 140.195C70.3099 139.938 69.6066 140.138 69.2396 140.682C69.1086 138.599 67.5665 137.02 65.8279 136.898C63.9276 136.768 62.6826 138.446 62.6127 138.547C62.3113 137.859 61.5293 137.529 60.861 137.772C60.2494 137.994 59.8693 138.651 59.9829 139.325C59.249 138.594 58.1657 138.368 57.257 138.742C56.1999 139.181 55.5664 140.356 55.7936 141.556C55.5402 140.39 54.6185 139.529 53.5526 139.421C52.4212 139.303 51.6217 140.082 51.5082 140.195C51.4208 140.064 50.1146 138.133 47.8081 138.159C46.0039 138.177 44.3571 139.377 43.7149 141.164C43.3217 140.769 42.3257 139.882 40.7924 139.612C38.1277 139.147 36.1575 140.943 35.9216 141.164C35.5721 140.838 35.0567 140.464 34.3621 140.29C32.8856 139.921 31.2168 140.599 30.0286 141.986C29.9806 141.921 29.037 140.717 27.4949 140.873C26.049 141.017 25.3588 142.226 25.302 142.33C25.2583 142.204 24.6817 140.534 22.9168 140.051C21.034 139.538 19.6186 140.864 19.5575 140.925C19.5269 140.373 19.1512 139.903 18.6314 139.76C18.0679 139.603 17.4563 139.864 17.168 140.39C17.0369 140.256 16.1064 139.342 14.7828 139.468C13.5465 139.586 12.4719 140.556 12.153 141.895C12.105 141.873 11.3885 141.595 10.742 142.039C10.1479 142.447 10.113 143.13 10.1086 143.204C9.23053 143.295 8.05105 143.513 6.74926 144.03C5.69647 144.448 4.85336 144.948 4.21557 145.387C3.52973 144.77 2.54683 144.691 1.87846 145.144C1.0572 145.7 0.830042 146.979 1.53773 147.909C1.14894 147.718 0.685884 147.779 0.366989 148.053C0.0175147 148.362 -0.0873276 148.879 0.122357 149.314C0.109252 149.484 0.0786727 150.166 0.5592 150.771C1.21883 151.597 2.25852 151.554 2.36336 151.545L94.2838 154.163H94.2707Z" fill="url(#paint16_linear_422_823)"/>
<path d="M247.524 157.403C248.245 156.555 248.096 155.385 247.428 154.88C246.943 154.515 246.196 154.515 245.576 154.88C245.584 153.158 244.588 151.593 243.042 150.906C241.364 150.158 239.346 150.584 238.075 151.971C237.407 150.201 235.856 149.123 234.375 149.257C233.322 149.353 232.601 150.031 232.33 150.323C233.104 147.87 232.029 145.317 229.993 144.309C228.416 143.53 226.446 143.765 224.926 144.891C225.026 144.282 224.703 143.678 224.148 143.434C223.563 143.178 222.86 143.378 222.493 143.921C222.362 141.838 220.82 140.26 219.081 140.138C217.181 140.008 215.936 141.686 215.866 141.786C215.564 141.099 214.783 140.769 214.114 141.012C213.503 141.234 213.123 141.891 213.236 142.565C212.502 141.834 211.419 141.608 210.51 141.982C209.453 142.421 208.82 143.595 209.047 144.796C208.793 143.63 207.872 142.769 206.806 142.66C205.674 142.543 204.875 143.321 204.761 143.434C204.674 143.304 203.368 141.373 201.061 141.399C199.257 141.417 197.61 142.617 196.968 144.404C196.575 144.008 195.579 143.121 194.046 142.852C191.381 142.386 189.411 144.182 189.175 144.404C188.825 144.078 188.31 143.704 187.615 143.53C186.139 143.16 184.47 143.839 183.282 145.226C183.234 145.161 182.29 143.956 180.748 144.113C179.302 144.256 178.612 145.465 178.555 145.57C178.511 145.444 177.935 143.774 176.17 143.291C174.287 142.778 172.872 144.104 172.811 144.165C172.78 143.613 172.404 143.143 171.885 143C171.321 142.843 170.709 143.104 170.421 143.63C170.29 143.495 169.36 142.582 168.036 142.708C166.8 142.826 165.725 143.795 165.406 145.135C165.358 145.113 164.642 144.835 163.995 145.278C163.401 145.687 163.366 146.37 163.362 146.444C162.484 146.535 161.304 146.752 160.002 147.27C158.95 147.687 158.107 148.188 157.469 148.627C156.783 148.009 155.8 147.931 155.132 148.383C154.31 148.94 154.083 150.218 154.791 151.149C154.402 150.958 153.939 151.019 153.62 151.293C153.271 151.601 153.166 152.119 153.376 152.554C153.362 152.723 153.332 153.406 153.812 154.011C154.472 154.837 155.512 154.793 155.617 154.785L247.537 157.403H247.524Z" fill="url(#paint17_linear_422_823)"/>
<path d="M84.0923 145.722C83.0744 145.383 80.4621 150.023 77.5877 156.929C80.2961 136.742 79.9947 131.21 78.8676 130.841C77.7843 130.488 72.0136 144.491 70.939 155.376C71.3714 135.255 70.9783 125.144 69.7507 125.044C68.4883 124.939 67.3831 135.772 64.3601 156.95C62.4555 144.996 60.0659 138.76 59.2665 138.829C58.419 138.907 59.2272 146.126 59.6116 159.707C55.7019 151.645 52.4867 147.314 52.0455 147.496C51.5431 147.705 53.2599 153.184 57.1915 163.943H80.982C80.982 163.943 85.7304 146.265 84.0967 145.726L84.0923 145.722Z" fill="url(#paint18_linear_422_823)"/>
<path d="M180.097 149.736C179.293 149.47 177.24 153.119 174.982 158.55C177.114 142.673 176.878 138.32 175.986 138.033C175.135 137.755 170.596 148.77 169.748 157.328C170.089 141.503 169.779 133.55 168.814 133.471C167.822 133.389 166.953 141.912 164.572 158.568C163.073 149.166 161.195 144.26 160.566 144.317C159.898 144.378 160.535 150.057 160.837 160.738C157.761 154.397 155.232 150.988 154.883 151.131C154.489 151.297 155.835 155.606 158.928 164.065H177.642C177.642 164.065 181.377 150.162 180.093 149.736H180.097Z" fill="url(#paint19_linear_422_823)"/>
<g style="mix-blend-mode:screen">
<path d="M74.4293 57.8598L72.7169 57.8685C72.6426 57.0292 71.9349 56.3639 71.0743 56.3726L68.5057 56.3899C68.5581 56.2029 68.5843 56.0029 68.5843 55.7985C68.5756 54.5722 67.5621 53.5763 66.3302 53.585L62.3899 53.6111C61.158 53.6198 60.1576 54.6287 60.1664 55.8551C60.1664 56.0594 60.2013 56.2551 60.2537 56.4465H59.9043C59.0437 56.4552 58.3447 57.1249 58.2836 57.9685H57.7681C56.5974 57.9772 55.6494 58.9383 55.6581 60.0994C55.6669 61.2649 56.6279 62.2085 57.7943 62.1998L74.4599 62.0955C75.6306 62.0868 76.5785 61.1301 76.5698 59.9689C76.5611 58.8035 75.6 57.8598 74.4336 57.8685L74.4293 57.8598Z" fill="#252A30"/>
</g>
<g style="mix-blend-mode:screen">
<path d="M189.647 62.1782L187.934 62.1869C187.86 61.3476 187.152 60.6822 186.292 60.6909L183.723 60.7083C183.775 60.5213 183.802 60.3213 183.802 60.1169C183.793 58.8905 182.779 57.8947 181.547 57.9034L177.607 57.9295C176.375 57.9382 175.375 58.9471 175.384 60.1734C175.384 60.3778 175.419 60.5735 175.471 60.7648H175.122C174.261 60.7735 173.562 61.4432 173.501 62.2869H172.985C171.815 62.2956 170.867 63.2567 170.875 64.4178C170.884 65.5832 171.845 66.5269 173.012 66.5182L189.677 66.4138C190.848 66.4051 191.796 65.4484 191.787 64.2873C191.778 63.1219 190.817 62.1782 189.651 62.1869L189.647 62.1782Z" fill="#252A30"/>
</g>
<g style="mix-blend-mode:screen">
<path d="M102.309 76.9511H99.4779C99.3643 75.5638 98.2023 74.4592 96.7825 74.4592H92.5364C92.6238 74.1461 92.6718 73.82 92.6718 73.4851C92.6718 71.4586 91.0075 69.8018 88.9718 69.8018H82.4628C80.4271 69.8018 78.7628 71.4586 78.7628 73.4851C78.7628 73.8243 78.8108 74.1505 78.8982 74.4592H78.3172C76.8975 74.4592 75.7355 75.5638 75.6219 76.9511H74.77C72.8392 76.9511 71.2578 78.5253 71.2578 80.4474C71.2578 82.3696 72.8392 83.9438 74.77 83.9438H102.304C104.235 83.9438 105.816 82.3696 105.816 80.4474C105.816 78.5253 104.235 76.9511 102.304 76.9511H102.309Z" fill="#252A30"/>
</g>
<g style="mix-blend-mode:screen">
<path d="M84.1753 60.9214L84.3456 61.3606L84.7912 61.5302L84.3456 61.7042L84.1753 62.1434L84.0049 61.7042L83.5593 61.5302L84.0049 61.3606L84.1753 60.9214Z" fill="#A8B5C3"/>
</g>
<g style="mix-blend-mode:screen">
<path d="M178.201 75.4375L178.372 75.8767L178.813 76.0463L178.372 76.2203L178.201 76.6595L178.027 76.2203L177.585 76.0463L178.027 75.8767L178.201 75.4375Z" fill="#A8B5C3"/>
</g>
<g style="mix-blend-mode:screen">
<path d="M60.3324 74.5376L60.5027 74.9768L60.944 75.1508L60.5027 75.3204L60.3324 75.7596L60.1576 75.3204L59.7164 75.1508L60.1576 74.9768L60.3324 74.5376Z" fill="#A8B5C3"/>
</g>
<g style="mix-blend-mode:screen">
<path d="M76.5568 47.123L76.9019 48.0058L77.7887 48.345L76.9019 48.6842L76.5568 49.567L76.216 48.6842L75.3292 48.345L76.216 48.0058L76.5568 47.123Z" fill="#A8B5C3"/>
</g>
<g style="mix-blend-mode:screen">
<path d="M170.216 53.2593L170.557 54.1421L171.443 54.4856L170.557 54.8248L170.216 55.7076L169.875 54.8248L168.988 54.4856L169.875 54.1421L170.216 53.2593Z" fill="#A8B5C3"/>
</g>
<g style="mix-blend-mode:screen">
<path d="M109.115 53.7983L109.455 54.6811L110.342 55.0247L109.455 55.3639L109.115 56.2467L108.774 55.3639L107.887 55.0247L108.774 54.6811L109.115 53.7983Z" fill="#A8B5C3"/>
</g>
</g>
<mask id="mask1_422_823" style="mask-type:luminance" maskUnits="userSpaceOnUse" x="39" y="0" width="158" height="166">
<path d="M196.667 105.126C196.073 90.1448 185.737 77.964 182.902 63.5349C182.002 58.9426 181.705 54.0634 179.245 50.0799C176.257 45.2355 171.596 42.6827 166.463 41.1216V0H84.2495V41.726C73.726 45.1137 62.6258 50.9323 57.8031 60.7213C53.7798 68.8838 54.6709 78.264 52.6833 86.9354C50.4903 96.4808 42.7757 103.513 40.4124 113.036C36.5157 128.731 45.4929 142.147 58.9564 149.435C75.552 158.42 96.5641 162.564 115.191 164.625C129.996 166.265 145.32 165.478 159.216 160.142C182.085 151.357 197.645 129.818 196.667 105.126Z" fill="white"/>
</mask>
<g mask="url(#mask1_422_823)">
<path d="M163.305 85.596L161.641 86.3179V86.8745C161.641 88.514 156.748 85.2046 155.105 85.2046H124.365C126.562 87.8965 131.988 93.3367 133.661 94.4152C137.571 96.9331 142.76 96.607 142.76 96.607L188.454 139.551L207.609 119.903L163.309 85.6003L163.305 85.596Z" fill="#FFC8AF"/>
<path d="M115.659 72.98L120.272 80.2467V76.098L115.659 72.98Z" fill="#F2B299"/>
<path d="M115.842 46.9878L120.272 52.7542V49.9841L115.842 46.9878Z" fill="#F2B299"/>
<path d="M158.661 7.5752H123.251C121.726 7.5752 120.49 8.80569 120.49 10.3236V82.2341C120.49 83.752 121.726 84.9825 123.251 84.9825H158.661C160.186 84.9825 161.422 83.752 161.422 82.2341V10.3236C161.422 8.80569 160.186 7.5752 158.661 7.5752Z" fill="#111B28"/>
<path d="M158.661 7.79278C160.064 7.79278 161.204 8.9278 161.204 10.3237V82.2386C161.204 83.6346 160.064 84.7696 158.661 84.7696H123.251C121.849 84.7696 120.708 83.6346 120.708 82.2386V10.3237C120.708 8.9278 121.849 7.79278 123.251 7.79278H158.661ZM158.661 7.35791H123.251C121.608 7.35791 120.272 8.68427 120.272 10.3237V82.2386C120.272 83.8781 121.604 85.2045 123.251 85.2045H158.661C160.304 85.2045 161.641 83.8781 161.641 82.2386V10.3237C161.641 8.68862 160.308 7.35791 158.661 7.35791Z" fill="#878CF0"/>
<path d="M160.706 11.0498V50.8667V58.1335V81.5122H121.202V31.5062V19.5168V11.0498H160.706Z" fill="#A5B7C6"/>
<path d="M160.706 14.1592V52.2236V59.1642V81.5123H121.202V33.7154V22.2565V14.1592H160.706Z" fill="#F9FBFC"/>
<path d="M143.114 11.9717H138.798V12.9284H143.114V11.9717Z" fill="#8497A5"/>
<path d="M127.051 11.9717H122.735V12.9284H127.051V11.9717Z" fill="#8497A5"/>
<path d="M159.177 11.9717H158.84V12.9284H159.177V11.9717Z" fill="#8497A5"/>
<path d="M155.927 11.9717H156.656V12.9284H155.927V11.9717ZM157.386 11.9717H158.115V12.9284H157.386V11.9717Z" fill="#8497A5"/>
<path d="M155.197 11.9717H154.861V12.9284H155.197V11.9717Z" fill="#8497A5"/>
<path d="M131.262 40.5949L129.375 37.6378C128.812 36.755 128.938 35.6069 129.681 34.8676C130.555 33.9979 131.97 33.9979 132.844 34.8676C133.586 35.6069 133.713 36.7593 133.15 37.6378L131.262 40.5949Z" fill="url(#paint20_linear_422_823)"/>
<path d="M132.621 36.3768C132.621 37.1291 132.01 37.7379 131.254 37.7379C130.498 37.7379 129.886 37.1291 129.886 36.3768C129.886 35.6244 130.498 35.0156 131.254 35.0156C132.01 35.0156 132.621 35.6244 132.621 36.3768Z" fill="white"/>
<path d="M153.231 31.9193H151.231L150.16 30.1102C149.933 29.7275 149.522 29.4927 149.073 29.4927H140.89C140.445 29.4927 140.03 29.7232 139.803 30.1102L138.732 31.9149H136.727C136.727 31.9149 136.19 32.7716 136.902 33.0151C137.252 33.1326 137.697 33.1108 138.06 33.0543L137.763 33.5587L136.946 34.2893V38.4684V40.2384C136.946 40.4297 137.103 40.5863 137.295 40.5863H138.912C139.104 40.5863 139.261 40.4297 139.261 40.2384V38.4684H150.711V40.2384C150.711 40.4297 150.868 40.5863 151.06 40.5863H152.676C152.869 40.5863 153.026 40.4297 153.026 40.2384V38.4684V34.2893L152.196 33.5283L151.916 33.0543C152.279 33.1021 152.72 33.1239 153.065 33.0064C153.777 32.7629 153.24 31.9062 153.24 31.9062L153.231 31.9193Z" fill="#636BEC"/>
<path d="M138.815 36.6635C138.396 36.6635 138.068 36.3287 138.068 35.9199C138.068 35.5111 138.396 35.1763 138.815 35.1763C139.235 35.1763 139.558 35.5111 139.558 35.9199C139.558 36.3287 139.23 36.6635 138.815 36.6635Z" fill="#FBD15B"/>
<path d="M150.379 35.9199C150.379 35.5111 150.706 35.1763 151.126 35.1763C151.545 35.1763 151.868 35.5111 151.868 35.9199C151.868 36.3287 151.541 36.6635 151.126 36.6635C150.711 36.6635 150.379 36.3287 150.379 35.9199Z" fill="#FBD15B"/>
<path d="M140.257 30.5755C140.484 30.1928 140.895 29.9536 141.349 29.9536H148.614C149.068 29.9536 149.479 30.1928 149.706 30.5755L151.436 33.5631H138.523L140.253 30.5755H140.257Z" fill="#FBD15B"/>
<path d="M132.293 45.3569C132.293 45.9222 131.83 46.3832 131.263 46.3832C130.695 46.3832 130.232 45.9222 130.232 45.3569C130.232 44.7915 130.695 44.3306 131.263 44.3306C131.83 44.3306 132.293 44.7915 132.293 45.3569Z" fill="#A5B7C6"/>
<path d="M132.293 59.8383C132.293 60.4036 131.83 60.8646 131.263 60.8646C130.695 60.8646 130.232 60.4036 130.232 59.8383C130.232 59.273 130.695 58.812 131.263 58.812C131.83 58.812 132.293 59.273 132.293 59.8383Z" fill="#D3807C"/>
<path d="M131.407 46.7832H131.114V58.4682H131.407V46.7832Z" fill="#A5B7C6"/>
<path d="M131.262 53.7717C131.914 53.7717 132.442 53.246 132.442 52.5975C132.442 51.949 131.914 51.4233 131.262 51.4233C130.611 51.4233 130.083 51.949 130.083 52.5975C130.083 53.246 130.611 53.7717 131.262 53.7717Z" fill="#A5B7C6"/>
<path d="M131.262 51.5711C131.83 51.5711 132.293 52.0321 132.293 52.5974C132.293 53.1628 131.83 53.6237 131.262 53.6237C130.695 53.6237 130.232 53.1628 130.232 52.5974C130.232 52.0321 130.695 51.5711 131.262 51.5711ZM131.262 51.2798C130.533 51.2798 129.939 51.8712 129.939 52.5974C129.939 53.3237 130.533 53.9151 131.262 53.9151C131.992 53.9151 132.586 53.3237 132.586 52.5974C132.586 51.8712 131.992 51.2798 131.262 51.2798Z" fill="#D3807C"/>
<path d="M152.912 43.3218H137.142V44.6916H152.912V43.3218Z" fill="#A5B7C6"/>
<path d="M152.912 47.4009H137.142V48.7707H152.912V47.4009Z" fill="#A5B7C6"/>
<path d="M152.912 51.48H137.142V52.8498H152.912V51.48Z" fill="#A5B7C6"/>
<path d="M152.912 55.5591H137.142V56.9289H152.912V55.5591Z" fill="#A5B7C6"/>
<path d="M152.912 59.6382H137.142V61.008H152.912V59.6382Z" fill="#A5B7C6"/>
<path d="M152.912 63.7173H129.773V65.0871H152.912V63.7173Z" fill="#A5B7C6"/>
<path d="M124.893 23.7261L157.019 23.7261V18.8338L124.893 18.8338V23.7261Z" fill="#D6E1E8"/>
<path d="M130.59 23.1782L156.307 23.1782V19.3861L130.59 19.3861V23.1782Z" fill="#F9FBFC"/>
<path d="M126.178 21.278C126.178 22.0347 126.794 22.6522 127.558 22.6522C128.323 22.6522 128.939 22.039 128.939 21.278C128.939 20.517 128.323 19.9038 127.558 19.9038C126.794 19.9038 126.178 20.517 126.178 21.278Z" fill="#F9FBFC"/>
<path d="M159.972 75.2588H121.94V75.611H159.972V75.2588Z" fill="#D6E1E8"/>
<path d="M156.844 76.998H153.952V79.8769H156.844V76.998Z" fill="#D6E1E8"/>
<path d="M146.945 76.6851H144.909L143.892 78.4376L144.909 80.1901H146.945L147.959 78.4376L146.945 76.6851Z" fill="#D6E1E8"/>
<path d="M136.457 80.325C137.504 80.325 138.352 79.48 138.352 78.4376C138.352 77.3953 137.504 76.5503 136.457 76.5503C135.409 76.5503 134.561 77.3953 134.561 78.4376C134.561 79.48 135.409 80.325 136.457 80.325Z" fill="#D6E1E8"/>
<path d="M126.986 76.7852L125.064 80.0945H128.904L126.986 76.7852Z" fill="#D6E1E8"/>
<path d="M113.863 71.9496L120.739 76.594C122.333 77.6638 124.5 77.242 125.57 75.6503C126.645 74.063 126.221 71.9061 124.622 70.8406L117.747 66.1962C116.152 65.1264 113.985 65.5482 112.915 67.1399C111.84 68.7272 112.264 70.8841 113.863 71.9496Z" fill="#FFC8AF"/>
<path d="M112.915 67.1401C113.736 65.9268 115.191 65.3963 116.541 65.6876C114.754 66.1529 113.26 68.3795 113.833 69.8189C115.222 73.3283 119.105 74.8243 122.198 77.1465C121.691 77.0769 121.189 76.8987 120.735 76.5942L113.859 71.9498C112.264 70.88 111.841 68.7274 112.911 67.1401H112.915Z" fill="#F2B299"/>
<path d="M120.892 75.4283L121.329 75.7241C121.731 75.9937 122.194 76.1415 122.674 76.1415C123.487 76.1415 124.238 75.7415 124.692 75.0674C125.439 73.9628 125.142 72.4625 124.033 71.7189L123.426 71.3145C122.417 71.745 120.997 72.8148 120.888 75.4327L120.892 75.4283Z" fill="#FFD5C5"/>
<path d="M116.253 47.401L123.386 52.2194C125.042 53.3283 127.287 52.8891 128.401 51.2409C129.515 49.5927 129.074 47.3575 127.418 46.2486L120.285 41.4302C118.629 40.3213 116.384 40.7605 115.27 42.4086C114.156 44.0568 114.597 46.2921 116.253 47.401Z" fill="#FFC8AF"/>
<path d="M115.27 42.4086C116.274 40.9213 118.201 40.4212 119.787 41.1561C117.03 41.4214 115.418 43.7958 116.864 45.9484C119.075 49.2448 121.98 50.5885 125.509 52.8281C124.78 52.8499 124.037 52.6585 123.386 52.2193L116.253 47.4009C114.597 46.292 114.156 44.0567 115.27 42.4086Z" fill="#F2B299"/>
<path d="M123.544 51.0062L123.998 51.3107C124.413 51.589 124.898 51.7412 125.396 51.7412C126.239 51.7412 127.016 51.328 127.488 50.6279C128.261 49.4798 127.956 47.9273 126.802 47.1533L126.173 46.7314C125.125 47.1794 123.653 48.2883 123.544 51.0062Z" fill="#FFD5C5"/>
<path d="M114.812 64.2226L124.509 70.7141C125.942 71.6737 127.886 71.2949 128.85 69.8679L129.245 69.2833C130.209 67.8563 129.828 65.9216 128.394 64.9619L118.698 58.4704C117.264 57.5108 115.321 57.8897 114.357 59.3166L113.962 59.9012C112.998 61.3282 113.378 63.263 114.812 64.2226Z" fill="#FFC8AF"/>
<path d="M114.156 59.6166C115.134 58.1685 117.017 57.6945 118.55 58.4294C116.318 58.8773 116.126 62.8042 117.655 64.3306C120.424 66.7442 122.919 69.1447 125.811 71.0972C125.256 71.045 124.705 70.8537 124.207 70.5232L115.099 64.4263C113.505 63.3565 113.081 61.2039 114.151 59.6166H114.156Z" fill="#F2B299"/>
<path d="M124.365 69.3536L124.802 69.6494C125.204 69.919 125.667 70.0668 126.147 70.0668C126.96 70.0668 127.711 69.6667 128.165 68.9927C128.912 67.8881 128.615 66.3878 127.506 65.6442L126.899 65.2397C125.889 65.6703 124.47 66.7401 124.36 69.358L124.365 69.3536Z" fill="#FFD5C5"/>
<path d="M126.362 63.5994L116.665 57.1078C115.233 56.1493 114.852 54.2119 115.815 52.7865L116.21 52.2019C117.173 50.7765 119.119 50.3971 120.551 51.3557L130.248 57.8472C131.68 58.8057 132.061 60.7431 131.098 62.1685L130.703 62.7531C129.74 64.1785 127.794 64.5579 126.362 63.5994Z" fill="#FFC8AF"/>
<path d="M116.008 52.4978C116.939 51.1236 118.682 50.6235 120.167 51.2062C118.227 52.3543 117.388 54.7635 118.502 55.8724C121.276 59.321 124.614 61.6475 128.056 63.9915C127.37 64.0045 126.671 63.8132 126.06 63.4044L116.952 57.3075C115.357 56.2377 114.933 54.0851 116.004 52.4978H116.008Z" fill="#F2B299"/>
<path d="M126.213 62.2389L126.649 62.5346C127.051 62.8042 127.514 62.9521 127.995 62.9521C128.807 62.9521 129.559 62.552 130.013 61.8779C130.76 60.7734 130.463 59.2731 129.354 58.5294L128.746 58.125C127.737 58.5555 126.317 59.6253 126.208 62.2432L126.213 62.2389Z" fill="#FFD5C5"/>
<path d="M161.641 76.5895C162.073 72.98 162.523 69.0662 162.523 68.3226C162.523 66.8831 163.545 65.7612 163.545 65.7612C162.16 64.0434 161.256 59.7469 159.815 55.1851C159.863 60.0991 161.641 65.0132 161.641 65.0132V76.5851V76.5895Z" fill="#F2B299"/>
<path d="M157.281 91.3103C152.414 91.3103 152.825 86.3136 153.096 78.3946C153.367 70.4799 158.495 57.4772 158.495 57.4772C158.495 57.4772 157.77 47.1273 158.495 43.1699C159.072 40.0171 162.06 40.1736 163.248 40.365C163.55 40.4172 163.737 40.4694 163.737 40.4694C163.737 40.4694 164.008 41.7 164.62 45.2225C164.712 45.7487 164.808 46.3227 164.912 46.949C165.725 51.8065 167.171 56.4857 167.171 56.4857C167.171 56.4857 168.167 67.2445 168.617 76.8204C169.272 90.7232 163.694 91.3103 157.281 91.3103Z" fill="#FFC8AF"/>
<path d="M152.974 85.2002V87.1223L136.417 85.235L152.974 85.2002Z" fill="#F2B299"/>
<path d="M158.495 57.4771C159.391 57.7945 162.195 58.0946 162.195 58.0946L158.277 58.0511L158.5 57.4771H158.495Z" fill="#F2B299"/>
<path d="M164.62 45.2223L163.803 45.4658C163.803 45.4658 163.218 43.1262 163.126 41.9129C163.047 40.8953 163.196 40.4779 163.248 40.3691C163.55 40.417 163.737 40.4692 163.737 40.4692C163.737 40.4692 164.008 41.6998 164.62 45.2223Z" fill="#FFD5C5"/>
<path d="M135.561 91.3102C133.416 90.2099 131.367 86.8614 130.446 85.2002H124.365C126.562 87.8921 131.988 93.3323 133.661 94.4108C137.571 96.9287 142.76 96.6026 142.76 96.6026L188.454 139.546L191.77 136.146L144.328 93.3062C144.328 93.3062 138.453 92.7931 135.561 91.3102Z" fill="#F2B299"/>
</g>
<defs>
<linearGradient id="paint0_linear_422_823" x1="121.167" y1="29.5844" x2="117.583" y2="129.276" gradientUnits="userSpaceOnUse">
<stop stop-color="#EFCF64"/>
<stop offset="0.37" stop-color="#E38378"/>
<stop offset="1" stop-color="#4136EB"/>
</linearGradient>
<linearGradient id="paint1_linear_422_823" x1="107.883" y1="107.87" x2="107.883" y2="136.411" gradientUnits="userSpaceOnUse">
<stop stop-color="#EFCF64"/>
<stop offset="1" stop-color="#EAAC6D"/>
</linearGradient>
<linearGradient id="paint2_linear_422_823" x1="153.585" y1="118.595" x2="153.585" y2="140.547" gradientUnits="userSpaceOnUse">
<stop stop-color="#D0717C"/>
<stop offset="0.97" stop-color="#BB3D74"/>
</linearGradient>
<linearGradient id="paint3_linear_422_823" x1="164.046" y1="108.665" x2="159.143" y2="137.328" gradientUnits="userSpaceOnUse">
<stop stop-color="#A867A2"/>
<stop offset="1" stop-color="#4136EB"/>
</linearGradient>
<linearGradient id="paint4_linear_422_823" x1="69.5968" y1="133.823" x2="60.802" y2="151.551" gradientUnits="userSpaceOnUse">
<stop stop-color="#A867A2"/>
<stop offset="1" stop-color="#4136EB"/>
</linearGradient>
<linearGradient id="paint5_linear_422_823" x1="181.325" y1="136.207" x2="194.194" y2="136.207" gradientUnits="userSpaceOnUse">
<stop stop-color="#68ACFF"/>
<stop offset="0.23" stop-color="#64A7FF"/>
<stop offset="0.5" stop-color="#5A98FF"/>
<stop offset="0.79" stop-color="#4A81FF"/>
<stop offset="1" stop-color="#3B6BFF"/>
</linearGradient>
<linearGradient id="paint6_linear_422_823" x1="173.593" y1="102.287" x2="173.593" y2="128.884" gradientUnits="userSpaceOnUse">
<stop stop-color="#68ACFF"/>
<stop offset="0.23" stop-color="#64A7FF"/>
<stop offset="0.5" stop-color="#5A98FF"/>
<stop offset="0.79" stop-color="#4A81FF"/>
<stop offset="1" stop-color="#3B6BFF"/>
</linearGradient>
<linearGradient id="paint7_linear_422_823" x1="163.768" y1="131.31" x2="170.216" y2="131.31" gradientUnits="userSpaceOnUse">
<stop stop-color="#68ACFF"/>
<stop offset="0.23" stop-color="#64A7FF"/>
<stop offset="0.5" stop-color="#5A98FF"/>
<stop offset="0.79" stop-color="#4A81FF"/>
<stop offset="1" stop-color="#3B6BFF"/>
</linearGradient>
<linearGradient id="paint8_linear_422_823" x1="156.945" y1="136.89" x2="165.367" y2="136.89" gradientUnits="userSpaceOnUse">
<stop stop-color="#68ACFF"/>
<stop offset="0.23" stop-color="#64A7FF"/>
<stop offset="0.5" stop-color="#5A98FF"/>
<stop offset="0.79" stop-color="#4A81FF"/>
<stop offset="1" stop-color="#3B6BFF"/>
</linearGradient>
<linearGradient id="paint9_linear_422_823" x1="175.292" y1="129.888" x2="190.813" y2="129.888" gradientUnits="userSpaceOnUse">
<stop stop-color="#68ACFF"/>
<stop offset="0.23" stop-color="#64A7FF"/>
<stop offset="0.5" stop-color="#5A98FF"/>
<stop offset="0.79" stop-color="#4A81FF"/>
<stop offset="1" stop-color="#3B6BFF"/>
</linearGradient>
<linearGradient id="paint10_linear_422_823" x1="66.4769" y1="126.981" x2="74.303" y2="151.798" gradientUnits="userSpaceOnUse">
<stop stop-color="#84E4FD"/>
<stop offset="0.47" stop-color="#6A8BFA"/>
<stop offset="0.83" stop-color="#584FF9"/>
<stop offset="1" stop-color="#5238F9"/>
</linearGradient>
<linearGradient id="paint11_linear_422_823" x1="51.958" y1="133.193" x2="61.7302" y2="133.193" gradientUnits="userSpaceOnUse">
<stop stop-color="#68ACFF"/>
<stop offset="0.23" stop-color="#64A7FF"/>
<stop offset="0.5" stop-color="#5A98FF"/>
<stop offset="0.79" stop-color="#4A81FF"/>
<stop offset="1" stop-color="#3B6BFF"/>
</linearGradient>
<linearGradient id="paint12_linear_422_823" x1="46.0825" y1="107.427" x2="46.0825" y2="127.631" gradientUnits="userSpaceOnUse">
<stop stop-color="#68ACFF"/>
<stop offset="0.23" stop-color="#64A7FF"/>
<stop offset="0.5" stop-color="#5A98FF"/>
<stop offset="0.79" stop-color="#4A81FF"/>
<stop offset="1" stop-color="#3B6BFF"/>
</linearGradient>
<linearGradient id="paint13_linear_422_823" x1="38.6168" y1="129.475" x2="43.5182" y2="129.475" gradientUnits="userSpaceOnUse">
<stop stop-color="#68ACFF"/>
<stop offset="0.23" stop-color="#64A7FF"/>
<stop offset="0.5" stop-color="#5A98FF"/>
<stop offset="0.79" stop-color="#4A81FF"/>
<stop offset="1" stop-color="#3B6BFF"/>
</linearGradient>
<linearGradient id="paint14_linear_422_823" x1="33.4359" y1="133.711" x2="39.8357" y2="133.711" gradientUnits="userSpaceOnUse">
<stop stop-color="#68ACFF"/>
<stop offset="0.23" stop-color="#64A7FF"/>
<stop offset="0.5" stop-color="#5A98FF"/>
<stop offset="0.79" stop-color="#4A81FF"/>
<stop offset="1" stop-color="#3B6BFF"/>
</linearGradient>
<linearGradient id="paint15_linear_422_823" x1="47.3756" y1="128.392" x2="59.166" y2="128.392" gradientUnits="userSpaceOnUse">
<stop stop-color="#68ACFF"/>
<stop offset="0.23" stop-color="#64A7FF"/>
<stop offset="0.5" stop-color="#5A98FF"/>
<stop offset="0.79" stop-color="#4A81FF"/>
<stop offset="1" stop-color="#3B6BFF"/>
</linearGradient>
<linearGradient id="paint16_linear_422_823" x1="47.3756" y1="182.825" x2="47.3756" y2="145.526" gradientUnits="userSpaceOnUse">
<stop stop-color="#EFCF64"/>
<stop offset="0.37" stop-color="#E38378"/>
<stop offset="1" stop-color="#4136EB"/>
</linearGradient>
<linearGradient id="paint17_linear_422_823" x1="200.629" y1="182.825" x2="200.629" y2="145.526" gradientUnits="userSpaceOnUse">
<stop stop-color="#EFCF64"/>
<stop offset="0.37" stop-color="#E38378"/>
<stop offset="1" stop-color="#4136EB"/>
</linearGradient>
<linearGradient id="paint18_linear_422_823" x1="68.1956" y1="125.039" x2="68.1956" y2="163.939" gradientUnits="userSpaceOnUse">
<stop stop-color="#D0717C"/>
<stop offset="0.97" stop-color="#BB3D74"/>
</linearGradient>
<linearGradient id="paint19_linear_422_823" x1="167.59" y1="133.467" x2="167.59" y2="164.065" gradientUnits="userSpaceOnUse">
<stop stop-color="#D0717C"/>
<stop offset="0.97" stop-color="#BB3D74"/>
</linearGradient>
<linearGradient id="paint20_linear_422_823" x1="131.262" y1="34.2197" x2="131.262" y2="40.5949" gradientUnits="userSpaceOnUse">
<stop stop-color="#DF697B"/>
<stop offset="1" stop-color="#BE2773"/>
</linearGradient>
</defs>
</svg>
