<svg width="131" height="61" viewBox="0 0 131 61" fill="none" xmlns="http://www.w3.org/2000/svg">
<g clip-path="url(#clip0_1027_451)">
<path opacity="0.2" d="M56.4649 51.8894C87.6495 51.8894 112.93 50.1292 112.93 47.9579C112.93 45.7866 87.6495 44.0264 56.4649 44.0264C25.2802 44.0264 0 45.7866 0 47.9579C0 50.1292 25.2802 51.8894 56.4649 51.8894Z" fill="#1C1D24"/>
<path opacity="0.2" d="M87.7055 60.9999C111.238 60.9999 130.315 58.3425 130.315 55.0644C130.315 51.7863 111.238 49.1289 87.7055 49.1289C64.1728 49.1289 45.0957 51.7863 45.0957 55.0644C45.0957 58.3425 64.1728 60.9999 87.7055 60.9999Z" fill="#1C1D24"/>
<path d="M103.632 42.79V46.7098C103.632 47.1453 99.6585 47.5249 93.8741 47.7074C91.5087 47.7809 88.8439 47.8221 86.0207 47.8221C83.1975 47.8221 80.5298 47.7809 78.1673 47.7074C72.3799 47.5249 68.4092 47.1453 68.4092 46.7098V42.79H103.635H103.632Z" fill="#BE4014"/>
<path opacity="0.3" d="M93.8743 42.79V47.7044C91.5089 47.778 88.8441 47.8192 86.0209 47.8192C83.1977 47.8192 80.53 47.778 78.1675 47.7044V42.79H93.8773H93.8743Z" fill="#942D0A"/>
<path opacity="0.5" d="M103.632 42.79V46.7098C103.632 47.1453 99.6584 47.5249 93.874 47.7074V42.793H103.632V42.79Z" fill="#942D0A"/>
<path d="M86.0207 43.9024C95.7473 43.9024 103.632 43.4044 103.632 42.7901C103.632 42.1758 95.7473 41.6777 86.0207 41.6777C76.2941 41.6777 68.4092 42.1758 68.4092 42.7901C68.4092 43.4044 76.2941 43.9024 86.0207 43.9024Z" fill="#E07514"/>
<path d="M45.0634 42.79V46.7098C45.0634 47.1453 41.0897 47.5249 35.3053 47.7074C32.9399 47.7809 30.2751 47.8221 27.4519 47.8221C24.6286 47.8221 21.9609 47.7809 19.5984 47.7074C13.8111 47.5249 9.84033 47.1453 9.84033 46.7098V42.79H45.0663H45.0634Z" fill="#FFA515"/>
<path opacity="0.3" d="M35.3026 42.79V47.7044C32.9371 47.778 30.2724 47.8192 27.4491 47.8192C24.6259 47.8192 21.9582 47.778 19.5957 47.7044V42.79H35.3055H35.3026Z" fill="#BC3A0D"/>
<path opacity="0.6" d="M45.0633 42.79V46.7098C45.0633 47.1453 41.0896 47.5249 35.3052 47.7074V42.793H45.0633V42.79Z" fill="#BC3A0D"/>
<path d="M27.4489 43.9024C37.1755 43.9024 45.0604 43.4044 45.0604 42.7901C45.0604 42.1758 37.1755 41.6777 27.4489 41.6777C17.7223 41.6777 9.8374 42.1758 9.8374 42.7901C9.8374 43.4044 17.7223 43.9024 27.4489 43.9024Z" fill="#E07514"/>
<path d="M42.9325 37.6553V41.575C42.9325 42.0105 38.9588 42.3901 33.1744 42.5726C30.809 42.6462 28.1442 42.6874 25.321 42.6874C22.4977 42.6874 19.83 42.6462 17.4676 42.5726C11.6802 42.3901 7.70947 42.0105 7.70947 41.575V37.6553H42.9354H42.9325Z" fill="#FFA515"/>
<path opacity="0.3" d="M33.1717 37.6553V42.5696C30.8063 42.6432 28.1415 42.6844 25.3183 42.6844C22.495 42.6844 19.8273 42.6432 17.4648 42.5696V37.6553H33.1746H33.1717Z" fill="#BC3A0D"/>
<path opacity="0.6" d="M42.9324 37.6553V41.575C42.9324 42.0105 38.9587 42.3901 33.1743 42.5726V37.6582H42.9324V37.6553Z" fill="#BC3A0D"/>
<path d="M25.3181 38.7677C35.0446 38.7677 42.9296 38.2697 42.9296 37.6553C42.9296 37.041 35.0446 36.543 25.3181 36.543C15.5915 36.543 7.70654 37.041 7.70654 37.6553C7.70654 38.2697 15.5915 38.7677 25.3181 38.7677Z" fill="#E07514"/>
<path d="M48.2299 32.5088V36.4256C48.2299 36.8611 44.2562 37.2407 38.4718 37.4232C36.1064 37.4967 33.4416 37.5379 30.6184 37.5379C27.7951 37.5379 25.1274 37.4967 22.7649 37.4232C16.9776 37.2407 13.0068 36.8611 13.0068 36.4256V32.5088H48.2328H48.2299Z" fill="#FFA515"/>
<path opacity="0.3" d="M38.472 32.5088V37.4232C36.1066 37.4967 33.4418 37.5379 30.6186 37.5379C27.7953 37.5379 25.1276 37.4967 22.7651 37.4232V32.5088H38.4749H38.472Z" fill="#BC3A0D"/>
<path opacity="0.6" d="M48.2298 32.5088V36.4256C48.2298 36.8611 44.2561 37.2407 38.4717 37.4232V32.5088H48.2298Z" fill="#BC3A0D"/>
<path d="M48.2299 32.5088C48.2299 33.1239 40.3442 33.6212 30.6184 33.6212C20.8925 33.6212 13.0068 33.1239 13.0068 32.5088C13.0068 31.8938 20.8925 31.3965 30.6184 31.3965C40.3442 31.3965 48.2299 31.8938 48.2299 32.5088Z" fill="#E07514"/>
<path d="M103.632 38.5029V42.4227C103.632 42.8582 99.6585 43.2378 93.8741 43.4202C91.5087 43.4938 88.8439 43.535 86.0207 43.535C83.1975 43.535 80.5298 43.4938 78.1673 43.4202C72.3799 43.2378 68.4092 42.8582 68.4092 42.4227V38.5029H103.635H103.632Z" fill="#BE4014"/>
<path opacity="0.3" d="M93.8743 38.5029V43.4173C91.5089 43.4909 88.8441 43.5321 86.0209 43.5321C83.1977 43.5321 80.53 43.4909 78.1675 43.4173V38.5029H93.8773H93.8743Z" fill="#942D0A"/>
<path opacity="0.5" d="M103.632 38.5029V42.4227C103.632 42.8582 99.6584 43.2378 93.874 43.4202V38.5059H103.632V38.5029Z" fill="#942D0A"/>
<path d="M103.632 38.503C103.632 39.118 95.7465 39.6153 86.0207 39.6153C76.2949 39.6153 68.4092 39.118 68.4092 38.503C68.4092 37.8879 76.2949 37.3906 86.0207 37.3906C95.7465 37.3906 103.632 37.8879 103.632 38.503Z" fill="#E07514"/>
<path d="M105.226 33.9707V37.8904C105.226 38.326 101.252 38.7056 95.4679 38.888C93.1025 38.9616 90.4377 39.0028 87.6145 39.0028C84.7912 39.0028 82.1235 38.9616 79.761 38.888C73.9737 38.7056 70.0029 38.326 70.0029 37.8904V33.9707H105.229H105.226Z" fill="#BE4014"/>
<path opacity="0.3" d="M95.4681 33.9707V38.8851C93.1027 38.9586 90.4379 38.9998 87.6147 38.9998C84.7914 38.9998 82.1237 38.9586 79.7612 38.8851V33.9707H95.471H95.4681Z" fill="#942D0A"/>
<path opacity="0.5" d="M105.226 33.9707V37.8904C105.226 38.326 101.252 38.7056 95.4678 38.888V33.9736H105.226V33.9707Z" fill="#942D0A"/>
<path d="M87.6145 35.0831C97.341 35.0831 105.226 34.5851 105.226 33.9708C105.226 33.3564 97.341 32.8584 87.6145 32.8584C77.8879 32.8584 70.0029 33.3564 70.0029 33.9708C70.0029 34.5851 77.8879 35.0831 87.6145 35.0831Z" fill="#E07514"/>
<path d="M102.388 29.4365V33.3533C102.388 33.7888 98.4144 34.1684 92.63 34.3509C90.2646 34.4245 87.5998 34.4657 84.7766 34.4657C81.9533 34.4657 79.2856 34.4245 76.9231 34.3509C71.1358 34.1684 67.165 33.7888 67.165 33.3533V29.4365H102.391H102.388Z" fill="#BE4014"/>
<path opacity="0.3" d="M92.6302 29.4365V34.3509C90.2648 34.4245 87.6 34.4657 84.7768 34.4657C81.9535 34.4657 79.2858 34.4245 76.9233 34.3509V29.4365H92.6331H92.6302Z" fill="#942D0A"/>
<path opacity="0.5" d="M102.388 29.4365V33.3533C102.388 33.7888 98.4143 34.1684 92.6299 34.3509V29.4365H102.388Z" fill="#942D0A"/>
<path d="M84.7766 30.5489C94.5031 30.5489 102.388 30.0509 102.388 29.4366C102.388 28.8222 94.5031 28.3242 84.7766 28.3242C75.05 28.3242 67.165 28.8222 67.165 29.4366C67.165 30.0509 75.05 30.5489 84.7766 30.5489Z" fill="#E07514"/>
<path d="M103.11 24.7715V28.6883C103.11 29.1238 99.1361 29.5034 93.3517 29.6859C90.9862 29.7594 88.3215 29.8006 85.4982 29.8006C82.675 29.8006 80.0073 29.7594 77.6448 29.6859C71.8575 29.5034 67.8867 29.1238 67.8867 28.6883V24.7715H103.113H103.11Z" fill="#BE4014"/>
<path opacity="0.3" d="M93.3519 24.7715V29.6859C90.9865 29.7594 88.3217 29.8006 85.4984 29.8006C82.6752 29.8006 80.0075 29.7594 77.645 29.6859V24.7715H93.3548H93.3519Z" fill="#942D0A"/>
<path opacity="0.5" d="M103.11 24.7715V28.6883C103.11 29.1238 99.136 29.5034 93.3516 29.6859V24.7715H103.11Z" fill="#942D0A"/>
<path d="M103.11 24.7715C103.11 25.3866 95.224 25.8839 85.4982 25.8839C75.7724 25.8839 67.8867 25.3866 67.8867 24.7715C67.8867 24.1565 75.7724 23.6592 85.4982 23.6592C95.224 23.6592 103.11 24.1565 103.11 24.7715Z" fill="#E07514"/>
<path d="M103.11 19.9932V23.9129C103.11 24.3484 99.1361 24.728 93.3517 24.9105C90.9862 24.984 88.3215 25.0252 85.4982 25.0252C82.675 25.0252 80.0073 24.984 77.6448 24.9105C71.8575 24.728 67.8867 24.3484 67.8867 23.9129V19.9932H103.113H103.11Z" fill="#BE4014"/>
<path opacity="0.3" d="M93.3519 19.9932V24.9075C90.9865 24.9811 88.3217 25.0223 85.4984 25.0223C82.6752 25.0223 80.0075 24.9811 77.645 24.9075V19.9932H93.3548H93.3519Z" fill="#942D0A"/>
<path opacity="0.5" d="M103.11 19.9932V23.9129C103.11 24.3484 99.136 24.728 93.3516 24.9105V19.9961H103.11V19.9932Z" fill="#942D0A"/>
<path d="M103.11 19.9932C103.11 20.6082 95.224 21.1056 85.4982 21.1056C75.7724 21.1056 67.8867 20.6082 67.8867 19.9932C67.8867 19.3782 75.7724 18.8809 85.4982 18.8809C95.224 18.8809 103.11 19.3782 103.11 19.9932Z" fill="#E07514"/>
<path d="M103.11 15.1846V19.1014C103.11 19.5369 99.1361 19.9165 93.3517 20.0989C90.9862 20.1725 88.3215 20.2137 85.4982 20.2137C82.675 20.2137 80.0073 20.1725 77.6448 20.0989C71.8575 19.9165 67.8867 19.5369 67.8867 19.1014V15.1846H103.113H103.11Z" fill="#BE4014"/>
<path opacity="0.3" d="M93.3519 15.1846V20.0989C90.9865 20.1725 88.3217 20.2137 85.4984 20.2137C82.6752 20.2137 80.0075 20.1725 77.645 20.0989V15.1846H93.3548H93.3519Z" fill="#942D0A"/>
<path opacity="0.5" d="M103.11 15.1846V19.1014C103.11 19.5369 99.136 19.9165 93.3516 20.0989V15.1846H103.11Z" fill="#942D0A"/>
<path d="M103.11 15.1846C103.11 15.7997 95.224 16.297 85.4982 16.297C75.7724 16.297 67.8867 15.7997 67.8867 15.1846C67.8867 14.5696 75.7724 14.0723 85.4982 14.0723C95.224 14.0723 103.11 14.5696 103.11 15.1846Z" fill="#E07514"/>
<path d="M104.791 10.3291V14.2459C104.791 14.6814 100.818 15.061 95.0333 15.2435C92.6679 15.317 90.0031 15.3582 87.1799 15.3582C84.3566 15.3582 81.6889 15.317 79.3264 15.2435C73.5391 15.061 69.5684 14.6814 69.5684 14.2459V10.3291H104.794H104.791Z" fill="#BE4014"/>
<path opacity="0.3" d="M95.0335 10.3291V15.2435C92.6681 15.317 90.0033 15.3582 87.1801 15.3582C84.3568 15.3582 81.6891 15.317 79.3267 15.2435V10.3291H95.0365H95.0335Z" fill="#942D0A"/>
<path opacity="0.5" d="M104.791 10.3291V14.2459C104.791 14.6814 100.818 15.061 95.0332 15.2435V10.3291H104.791Z" fill="#942D0A"/>
<path d="M87.1799 11.4415C96.9065 11.4415 104.791 10.9435 104.791 10.3292C104.791 9.71481 96.9065 9.2168 87.1799 9.2168C77.4533 9.2168 69.5684 9.71481 69.5684 10.3292C69.5684 10.9435 77.4533 11.4415 87.1799 11.4415Z" fill="#E07514"/>
<path d="M100.428 5.85352V9.7703C100.428 10.2058 96.454 10.5854 90.6695 10.7679C88.3041 10.8415 85.6394 10.8827 82.8161 10.8827C79.9929 10.8827 77.3252 10.8415 74.9627 10.7679C69.1753 10.5854 65.2046 10.2058 65.2046 9.7703V5.85352H100.431H100.428Z" fill="#BE4014"/>
<path opacity="0.3" d="M90.6698 5.85352V10.7679C88.3043 10.8415 85.6396 10.8827 82.8163 10.8827C79.9931 10.8827 77.3254 10.8415 74.9629 10.7679V5.85352H90.6727H90.6698Z" fill="#942D0A"/>
<path opacity="0.5" d="M100.428 5.85352V9.7703C100.428 10.2058 96.4539 10.5854 90.6694 10.7679V5.85352H100.428Z" fill="#942D0A"/>
<path d="M82.8161 6.96592C92.5427 6.96592 100.428 6.4679 100.428 5.85357C100.428 5.23923 92.5427 4.74121 82.8161 4.74121C73.0895 4.74121 65.2046 5.23923 65.2046 5.85357C65.2046 6.4679 73.0895 6.96592 82.8161 6.96592Z" fill="#E07514"/>
<path d="M100.428 1.1123V5.02909C100.428 5.46461 96.454 5.84423 90.6695 6.02668C88.3041 6.10024 85.6394 6.14144 82.8161 6.14144C79.9929 6.14144 77.3252 6.10024 74.9627 6.02668C69.1753 5.84423 65.2046 5.46461 65.2046 5.02909V1.1123H100.431H100.428Z" fill="#BE4014"/>
<path opacity="0.3" d="M90.6698 1.1123V6.02668C88.3043 6.10024 85.6396 6.14144 82.8163 6.14144C79.9931 6.14144 77.3254 6.10024 74.9629 6.02668V1.1123H90.6727H90.6698Z" fill="#942D0A"/>
<path opacity="0.5" d="M100.428 1.1123V5.02909C100.428 5.46461 96.4539 5.84423 90.6694 6.02668V1.1123H100.428Z" fill="#942D0A"/>
<path d="M100.428 1.11235C100.428 1.72739 92.5419 2.22471 82.8161 2.22471C73.0903 2.22471 65.2046 1.72739 65.2046 1.11235C65.2046 0.497323 73.0903 0 82.8161 0C92.5419 0 100.428 0.497323 100.428 1.11235Z" fill="#E07514"/>
<path d="M74.6397 27.0527C74.6397 30.4839 73.815 33.7209 72.3565 36.5754C68.9022 43.3348 61.8823 47.9608 53.7911 47.9608H47.7896V6.14453H53.7911C61.8852 6.14453 68.9022 10.7676 72.3565 17.53C73.815 20.3844 74.6397 23.6214 74.6397 27.0527Z" fill="#E07514"/>
<path opacity="0.6" d="M72.3565 36.5752C68.9022 43.3347 61.8823 47.9606 53.7911 47.9606H47.7896V36.5752H72.3565Z" fill="#BC3A0D"/>
<path opacity="0.3" d="M74.6397 27.053C74.6397 30.4842 73.815 33.7212 72.3565 36.5757H47.7896V17.5303H72.3565C73.815 20.3847 74.6397 23.6217 74.6397 27.053Z" fill="#BC3A0D"/>
<path d="M68.6381 27.0527C68.6381 38.6 59.3026 47.9608 47.7866 47.9608C36.2705 47.9608 26.9351 38.6 26.9351 27.0527C26.9351 26.3111 26.9732 25.5784 27.0495 24.8574C28.1442 14.3401 37.0101 6.14453 47.7866 6.14453C58.563 6.14453 67.4289 14.3401 68.5236 24.8574C68.5999 25.5784 68.6381 26.3111 68.6381 27.0527Z" fill="#FFD62C"/>
<path d="M47.7895 43.1496C56.6554 43.1496 63.8426 35.9428 63.8426 27.0528C63.8426 18.1628 56.6554 10.9561 47.7895 10.9561C38.9236 10.9561 31.7363 18.1628 31.7363 27.0528C31.7363 35.9428 38.9236 43.1496 47.7895 43.1496Z" fill="#FFA515"/>
<path d="M55.3052 20.5137H43.5163C42.8471 20.5137 42.3042 19.9693 42.3042 19.2984C42.3042 18.6274 42.8471 18.083 43.5163 18.083H55.3052C55.9743 18.083 56.5173 18.6274 56.5173 19.2984C56.5173 19.9693 55.9743 20.5137 55.3052 20.5137Z" fill="#CE5F27"/>
<path d="M55.3052 25.2784H43.5163C42.8471 25.2784 42.3042 24.734 42.3042 24.063C42.3042 23.3921 42.8471 22.8477 43.5163 22.8477H55.3052C55.9743 22.8477 56.5173 23.3921 56.5173 24.063C56.5173 24.734 55.9743 25.2784 55.3052 25.2784Z" fill="#CE5F27"/>
<path d="M52.2858 38.6439C51.9747 38.6439 51.6666 38.5262 51.4289 38.2878L42.6627 29.4949C42.3164 29.1477 42.2137 28.6239 42.3986 28.1707C42.5864 27.7175 43.0296 27.4203 43.5197 27.4203C47.7633 27.4203 50.7216 25.6017 50.7216 23.9685C50.7216 22.3352 47.7633 20.5166 43.5197 20.5166C42.8505 20.5166 42.3076 19.9722 42.3076 19.3013C42.3076 18.6303 42.8505 18.0859 43.5197 18.0859C48.9167 18.0859 53.1457 20.6697 53.1457 23.9714C53.1457 26.6964 50.2638 28.9329 46.2226 29.6303L53.1457 36.5722C53.6182 37.046 53.6182 37.817 53.1457 38.2908C52.908 38.5291 52.5998 38.6468 52.2887 38.6468L52.2858 38.6439Z" fill="#CE5F27"/>
<path d="M36.341 27.0528C36.341 18.9485 42.3162 12.245 50.0903 11.1238C49.339 11.0149 48.5701 10.9561 47.7866 10.9561C38.9206 10.9561 31.7334 18.1628 31.7334 27.0528C31.7334 35.9428 38.9206 43.1496 47.7866 43.1496C48.5672 43.1496 49.3361 43.0907 50.0903 42.9819C42.3162 41.8607 36.341 35.1571 36.341 27.0528Z" fill="#E07615"/>
<path opacity="0.2" d="M68.5234 24.8574C62.7067 28.1062 55.54 30.0249 47.7864 30.0249C40.0327 30.0249 32.866 28.1062 27.0493 24.8574C28.144 14.3401 37.0099 6.14453 47.7864 6.14453C58.5628 6.14453 67.4287 14.3401 68.5234 24.8574Z" fill="url(#paint0_radial_1027_451)"/>
<path d="M119.175 46.0801L119.328 51.6301C119.38 53.4987 115.738 55.2379 110.241 56.3002C107.339 56.8593 103.914 57.2331 100.246 57.336C96.5772 57.439 93.1377 57.2566 90.2088 56.8593C84.6592 56.103 80.9291 54.5699 80.8762 52.7012L80.7236 47.1512L119.175 46.0801Z" fill="#FFA515"/>
<path opacity="0.3" d="M109.966 46.3359L110.242 56.3C107.339 56.8592 103.914 57.2329 100.246 57.3359C96.5774 57.4389 93.1379 57.2564 90.209 56.8592L89.9331 46.8951L109.966 46.3389V46.3359Z" fill="#BC3A0D"/>
<path opacity="0.6" d="M119.175 46.0801L119.328 51.6301C119.381 53.4987 115.739 55.2379 110.242 56.3002L109.966 46.3361L119.175 46.0801Z" fill="#BC3A0D"/>
<path d="M100.094 51.787C110.713 51.4915 119.257 48.9366 119.178 46.0805C119.099 43.2245 110.426 41.1488 99.8076 41.4443C89.1888 41.7399 80.6447 44.2948 80.7237 47.1508C80.8028 50.0069 89.4751 52.0826 100.094 51.787Z" fill="#E07514"/>
<path d="M100.051 50.2367C107.486 50.0297 113.469 48.2407 113.413 46.2408C113.358 44.241 107.286 42.7875 99.8506 42.9944C92.4155 43.2014 86.4331 44.9904 86.4884 46.9903C86.5438 48.9901 92.616 50.4436 100.051 50.2367Z" fill="#CE4A15"/>
<path d="M99.8908 44.5469C106.336 44.3674 111.753 45.4356 113.118 47.0276C113.314 46.7716 113.417 46.5097 113.408 46.2448C113.353 44.2438 107.28 42.793 99.8467 42.999C92.413 43.205 86.429 44.9942 86.4848 46.9952C86.4936 47.2601 86.608 47.5161 86.8193 47.7603C88.093 46.0977 93.446 44.7293 99.8908 44.5498V44.5469Z" fill="#BC3A0D"/>
<path d="M92.1604 36.9248L94.1179 42.1188C94.7782 43.8667 91.9051 46.7035 87.0568 49.5138C84.4977 50.997 81.3839 52.4713 77.9503 53.772C74.5166 55.0727 71.2062 56.0291 68.3096 56.6147C62.8216 57.7211 58.7951 57.4975 58.1347 55.7495L56.1772 50.5556L92.1604 36.9219V36.9248Z" fill="#E07514"/>
<path opacity="0.3" d="M83.5442 40.1885L87.0571 49.5111C84.498 50.9942 81.3842 52.4685 77.9505 53.7692C74.5168 55.0699 71.2064 56.0263 68.3098 56.6119L64.7969 47.2893L83.5442 40.1855V40.1885Z" fill="#BC3A0D"/>
<path opacity="0.6" d="M92.1604 36.9248L94.1179 42.1187C94.7782 43.8667 91.9051 46.7035 87.0569 49.5138L83.5439 40.1912L92.1633 36.9248H92.1604Z" fill="#BC3A0D"/>
<path d="M75.9956 48.5772C85.9327 44.8121 93.1718 39.5932 92.1646 36.9205C91.1574 34.2478 82.2853 35.1333 72.3482 38.8985C62.4111 42.6636 55.172 47.8825 56.1792 50.5552C57.1864 53.2279 66.0585 52.3423 75.9956 48.5772Z" fill="#FFD62C"/>
<path d="M86.7691 38.9671C87.4735 40.8387 82.4051 44.4936 75.4468 47.1273C68.4885 49.764 62.2785 50.382 61.5712 48.5134C60.8669 46.6418 65.9352 42.9869 72.8935 40.3531C79.8519 37.7165 86.0618 37.0985 86.7691 38.9671Z" fill="#FFA515"/>
<path d="M73.4394 41.8042C79.4704 39.5177 84.9408 38.7496 86.7486 39.8061C86.8513 39.5 86.8601 39.2205 86.7662 38.9703C86.0618 37.0988 79.8489 37.7197 72.8906 40.3564C65.9323 42.9931 60.864 46.645 61.5683 48.5166C61.6622 48.7667 61.8559 48.9698 62.1347 49.1316C62.795 47.1423 67.4055 44.0907 73.4365 41.8072L73.4394 41.8042Z" fill="#E07615"/>
</g>
<defs>
<radialGradient id="paint0_radial_1027_451" cx="0" cy="0" r="1" gradientUnits="userSpaceOnUse" gradientTransform="translate(48.5171 -1.87737) scale(34.2663 34.3594)">
<stop stop-color="white" stop-opacity="0"/>
<stop offset="0.09" stop-color="white" stop-opacity="0.01"/>
<stop offset="0.25" stop-color="white" stop-opacity="0.0289"/>
<stop offset="0.46" stop-color="white" stop-opacity="0.1444"/>
<stop offset="0.72" stop-color="white" stop-opacity="0.4356"/>
<stop offset="1" stop-color="white"/>
</radialGradient>
<clipPath id="clip0_1027_451">
<rect width="130.318" height="61" fill="white"/>
</clipPath>
</defs>
</svg>
