<svg width="51" height="39" viewBox="0 0 51 39" fill="none" xmlns="http://www.w3.org/2000/svg">
    <path
        d="M0 36.3485C0 25.1169 0 13.8853 0 2.65247C0.0320755 2.57847 0.0727867 2.50689 0.0937591 2.43046C0.518142 0.926122 1.7111 0.00532021 3.30501 0.00410703C18.0967 -0.000745675 32.8872 -0.00195885 47.679 0.00410703C49.6195 0.00410703 50.9963 1.375 50.9975 3.28939C51.0025 14.0964 51.0012 24.9034 50.9926 35.7103C50.9926 36.0791 50.9346 36.4625 50.8211 36.8143C50.3807 38.1876 49.1692 38.998 47.5803 38.998C32.8552 39.0005 18.13 38.9993 3.40617 38.998C3.32351 38.998 3.23962 38.998 3.15697 38.9944C1.90972 38.935 0.979536 38.366 0.383672 37.2935C0.21836 36.9999 0.125835 36.6651 0 36.3485ZM31.6388 27.1417C31.7831 26.9427 31.8707 26.7789 31.9978 26.654C33.942 24.7347 35.8912 22.8191 37.8417 20.9047C38.0168 20.7324 38.197 20.5578 38.4005 20.4207C39.3418 19.7886 40.5113 19.8759 41.4218 20.6803C43.3845 22.4151 45.3313 24.167 47.2854 25.9115C47.4113 26.0243 47.542 26.1323 47.7135 26.2803V3.17535C47.4532 3.17535 47.2398 3.17535 47.0263 3.17535C41.0677 3.17535 35.1091 3.17535 29.1504 3.17535C20.7022 3.17535 12.2541 3.17656 3.80588 3.1705C3.45428 3.1705 3.22729 3.1705 3.22852 3.64242C3.24332 10.8074 3.23839 17.9737 3.24086 25.1387C3.24086 25.2685 3.26923 25.3971 3.29267 25.6046C3.46292 25.4153 3.56161 25.3061 3.65907 25.1957C7.43781 20.8792 11.2116 16.5591 14.9953 12.2463C16.1956 10.879 17.8142 10.9057 19.001 12.296C20.9317 14.5586 22.8575 16.826 24.7857 19.091C27.0335 21.7309 29.28 24.3708 31.64 27.1417H31.6388Z"
        fill="#DEDADA" />
    <path
        d="M31.6388 27.1417C29.28 24.3708 27.0322 21.7307 24.7845 19.0909C22.8562 16.8259 20.9305 14.5584 18.9998 12.2958C17.813 10.9055 16.1944 10.8789 14.9941 12.2461C11.2104 16.5577 7.43534 20.8779 3.65784 25.1956C3.56038 25.306 3.46168 25.4151 3.29144 25.6044C3.268 25.3969 3.23962 25.2671 3.23962 25.1385C3.23716 17.9735 3.24209 10.8073 3.22729 3.64226C3.22729 3.17154 3.45305 3.16912 3.80464 3.17033C12.2528 3.1764 20.701 3.17518 29.1492 3.17518C35.1078 3.17518 41.0665 3.17518 47.0251 3.17518C47.2385 3.17518 47.452 3.17518 47.7123 3.17518V26.2801C47.5408 26.1333 47.41 26.0242 47.2842 25.9113C45.33 24.1668 43.3833 22.415 41.4205 20.6801C40.5101 19.8758 39.3406 19.7884 38.3993 20.4205C38.1957 20.5576 38.0156 20.7323 37.8404 20.9046C35.89 22.8177 33.9408 24.7333 31.9965 26.6538C31.8694 26.7788 31.7819 26.9425 31.6375 27.1415L31.6388 27.1417ZM38.4758 15.9063C40.9258 15.8917 42.9096 13.9373 42.9096 11.5388C42.9096 9.12339 40.8925 7.15198 38.4289 7.16168C35.9936 7.17139 33.9975 9.14038 33.9963 11.5352C33.9938 13.953 36.0109 15.9196 38.4758 15.9051V15.9063Z"
        fill="white" />
    <path
        d="M38.4758 15.9063C36.0109 15.9208 33.9938 13.953 33.9963 11.5364C33.9988 9.14037 35.9936 7.17139 38.4289 7.1629C40.8913 7.15319 42.9096 9.1246 42.9096 11.54C42.9096 13.9385 40.9258 15.8929 38.4758 15.9075V15.9063Z"
        fill="#DEDADA" />
</svg>