<svg width="178" height="165" viewBox="0 0 178 165" fill="none" xmlns="http://www.w3.org/2000/svg">
<g clip-path="url(#clip0_427_3100)">
<path d="M171.24 37.687H18.8051C15.0714 37.687 12.0447 40.7211 12.0447 44.4638V148.487C12.0447 152.23 15.0714 155.264 18.8051 155.264H171.24C174.973 155.264 178 152.23 178 148.487V44.4638C178 40.7211 174.973 37.687 171.24 37.687Z" fill="#374B7E"/>
<path d="M172.964 49.899V143.072C172.964 147.014 169.777 150.216 165.838 150.216H155.083V48.7926H21.2057C19.5432 48.7926 18.198 47.4442 18.198 45.7777C18.198 44.1111 19.5432 42.7627 21.2057 42.7627H165.845C169.777 42.7627 172.971 45.9574 172.971 49.9059L172.964 49.899Z" fill="#A8C3FF"/>
<path d="M132.298 39.2224C132.443 39.4022 132.595 39.582 132.733 39.7687C136.885 45.1555 138.7 51.8493 137.837 58.6122C136.975 65.3682 133.547 71.3843 128.166 75.5541C117.066 84.1564 101.055 82.1026 92.4734 70.9694C88.3205 65.5826 86.4993 58.8957 87.3616 52.1328C88.1964 45.6119 91.4248 39.7756 96.4814 35.6335C96.6676 35.4813 96.847 35.343 97.0401 35.1909C107.96 26.7269 123.62 28.5801 132.305 39.2224H132.298Z" fill="#F49B51"/>
<path d="M120.605 24.7075C103.718 20.275 86.4372 30.4055 82.0153 47.3405C77.5934 64.2685 87.6996 81.5907 104.594 86.0233C121.481 90.4558 138.762 80.3252 143.184 63.3903C147.606 46.4623 137.499 29.1401 120.605 24.7075ZM137.223 61.8275C135.499 68.4175 131.325 73.9427 125.455 77.3794C119.591 80.8231 112.741 81.7705 106.16 80.0417C92.5906 76.4805 84.4367 62.5121 87.9893 48.9033C89.714 42.3132 93.8806 36.7881 99.7512 33.3444C105.408 30.0252 111.989 29.0294 118.356 30.5092C118.591 30.5646 118.812 30.6199 119.046 30.6821C132.401 34.1811 140.5 47.7485 137.389 61.136C137.334 61.3642 137.285 61.5855 137.223 61.8137V61.8275Z" fill="#FCC659"/>
<path d="M66.2662 0.0139661C48.8132 -0.463172 34.2852 13.3324 33.8023 30.8343C33.3263 48.3294 47.0886 62.8994 64.5485 63.3766C82.0015 63.8537 96.5365 50.0582 97.0125 32.5562C97.4885 15.0542 83.7262 0.491104 66.2662 0.0139661ZM90.8453 32.3902C90.6591 39.2016 87.8376 45.5288 82.8983 50.2172C77.966 54.9056 71.509 57.3881 64.7141 57.2014C50.6896 56.8142 39.59 45.0724 39.9695 31.0072C40.1557 24.1959 42.9703 17.8686 47.9095 13.1802C52.6695 8.65778 58.8504 6.18911 65.3901 6.18911C65.6316 6.18911 65.8592 6.18911 66.1007 6.20294C79.8975 6.57635 90.8522 17.9516 90.8522 31.6918C90.8522 31.9269 90.8522 32.1551 90.8522 32.3902H90.8453Z" fill="#FCC659"/>
<path d="M85.1058 15.5383C85.2507 15.7181 85.4025 15.8979 85.5404 16.0846C89.6933 21.4714 91.5076 28.1652 90.6453 34.9281C89.783 41.6841 86.3544 47.7002 80.9737 51.87C69.8741 60.4723 53.8629 58.4185 45.2812 47.2853C41.1284 41.8985 39.3072 35.2116 40.1695 28.4487C41.0042 21.9278 44.2327 16.0915 49.2892 11.9494C49.4755 11.7973 49.6548 11.659 49.848 11.5068C60.7682 3.0428 76.4276 4.89604 85.1127 15.5383H85.1058Z" fill="#F49B51"/>
<path d="M83.2501 58.5153L82.8362 57.8999C91.204 52.2503 96.364 42.8527 96.6399 32.7568C96.8124 26.4848 95.1292 20.3788 91.7834 15.1096L92.4043 14.7085C95.8328 20.1091 97.5505 26.3534 97.3781 32.7775C97.0952 43.1155 91.8179 52.7344 83.2501 58.5222V58.5153Z" fill="#3968D2"/>
<path d="M89.5692 25.1847C89.514 24.9703 89.4519 24.7559 89.3899 24.5416C87.3755 17.5712 82.4638 11.8179 75.8896 8.73376L76.1794 8.10449C82.926 11.2716 87.9826 17.184 90.0452 24.3272C90.1142 24.5692 90.1763 24.7836 90.2315 25.0049L89.5623 25.1777L89.5692 25.1847Z" fill="#3968D2"/>
<path d="M87.5134 44.616L86.9202 44.2633C88.6103 41.3797 89.7002 38.2611 90.1555 34.9902L90.8385 35.087C90.3694 38.4478 89.2518 41.6494 87.5134 44.616Z" fill="#3968D2"/>
<path d="M160.63 48.9102H18.5982C14.9788 48.9102 12.0447 51.8513 12.0447 55.4795V158.431C12.0447 162.059 14.9788 165 18.5982 165H160.63C164.249 165 167.183 162.059 167.183 158.431V55.4795C167.183 51.8513 164.249 48.9102 160.63 48.9102Z" fill="#3B64F9"/>
<path d="M71.2814 160.429H24.6136C21.1023 160.429 18.2463 157.567 18.2463 154.047V145.043H18.9845V154.047C18.9845 157.159 21.5093 159.69 24.6136 159.69H71.2745V160.429H71.2814Z" fill="#3968D2"/>
<path d="M96.9919 159.689H82.6086V160.429H96.9919V159.689Z" fill="#3968D2"/>
<path d="M160.988 72.2624H160.25V59.8499C160.25 56.7381 157.725 54.2072 154.621 54.2072H93.6943V53.4673H154.621C158.132 53.4673 160.988 56.3301 160.988 59.8499V72.2624Z" fill="#3968D2"/>
<path d="M82.7329 53.4741H68.9912V54.214H82.7329V53.4741Z" fill="#3968D2"/>
<path d="M18.9845 117.681H18.2463V135.203H18.9845V117.681Z" fill="#3968D2"/>
<path d="M177.814 83.1118V115.917C177.814 120.038 174.489 123.378 170.37 123.378H142.059C133.008 123.378 125.668 116.021 125.668 106.948C125.668 102.412 127.503 98.3042 130.47 95.3307C133.436 92.3572 137.534 90.5178 142.059 90.5178H170.37C170.577 90.5178 170.784 90.5247 170.991 90.5455C174.813 90.2274 177.807 87.0188 177.807 83.1118H177.814Z" fill="#3F5A9F"/>
<path d="M145.971 112.376C148.958 109.381 148.958 104.526 145.971 101.531C142.983 98.5361 138.139 98.5361 135.151 101.531C132.164 104.526 132.164 109.381 135.151 112.376C138.139 115.371 142.983 115.371 145.971 112.376Z" fill="white"/>
<path d="M140.562 114.99V114.251C144.577 114.251 147.84 110.98 147.84 106.955C147.84 102.931 144.577 99.6598 140.562 99.6598V98.9199C144.984 98.9199 148.578 102.523 148.578 106.955C148.578 111.388 144.984 114.99 140.562 114.99Z" fill="#3968D2"/>
<path d="M133.284 106.955H132.546C132.546 104.812 133.381 102.792 134.892 101.271L135.416 101.797C134.043 103.173 133.284 105.005 133.284 106.955Z" fill="#3968D2"/>
<path d="M23.6615 102.253C6.76727 106.657 -3.37341 123.959 1.02089 140.901C5.41518 157.836 22.675 168.008 39.5762 163.596C56.4704 159.191 66.618 141.89 62.2168 124.948C57.8225 108.013 40.5626 97.8477 23.6615 102.253ZM56.2497 126.504C57.9605 133.094 57.0016 139.967 53.5593 145.838C50.117 151.716 44.6051 155.893 38.024 157.608C24.4479 161.141 10.5269 152.954 6.99492 139.338C5.28411 132.748 6.23609 125.881 9.67841 120.004C12.9965 114.333 18.2531 110.239 24.5307 108.421C24.7584 108.352 24.986 108.296 25.2137 108.234C38.569 104.749 52.2486 112.625 56.0565 125.826C56.1186 126.047 56.1876 126.275 56.2428 126.497L56.2497 126.504Z" fill="#FCC659"/>
<path d="M56.0635 125.833C56.1255 126.054 56.1945 126.283 56.2497 126.504C57.9605 133.094 57.0016 139.967 53.5593 145.838C50.117 151.716 44.6052 155.893 38.0241 157.608C24.448 161.141 10.527 152.954 6.99498 139.338C5.28417 132.748 6.23616 125.881 9.67847 120.004C12.9966 114.333 18.2532 110.24 24.5308 108.421C24.7584 108.352 24.9861 108.296 25.2137 108.234C38.5691 104.749 52.2486 112.625 56.0566 125.826L56.0635 125.833Z" fill="#F49B51"/>
<path d="M53.7662 156.038L53.2902 155.54C61.4373 147.685 64.7347 135.998 61.8857 125.038C60.8923 121.2 59.216 117.639 56.905 114.465L57.4638 114.057C59.8231 117.307 61.5408 120.944 62.5548 124.865C65.4591 136.06 62.0926 148.01 53.7662 156.038ZM49.6065 107.287C46.6195 105.185 43.3289 103.636 39.8176 102.675L39.997 102.011C43.5842 102.993 46.9506 104.576 50.0066 106.727L49.6134 107.294L49.6065 107.287Z" fill="#3968D2"/>
<path d="M55.9186 126.593C55.8634 126.372 55.7944 126.151 55.7323 125.93C53.7249 118.98 48.8063 113.22 42.239 110.136L42.5287 109.506C49.2754 112.673 54.3319 118.593 56.3946 125.736C56.4567 125.964 56.5256 126.185 56.5808 126.414L55.9117 126.587L55.9186 126.593Z" fill="#3968D2"/>
<path d="M42.246 110.136C36.9618 107.653 30.9533 107.1 25.3104 108.573L25.1379 107.902C30.9326 106.388 37.1136 106.962 42.5427 109.506L42.2529 110.136H42.246Z" fill="#3968D2"/>
<path d="M6.66389 139.428C4.93239 132.741 5.89817 125.778 9.38187 119.831L9.97514 120.183C6.58111 125.971 5.63603 132.748 7.32614 139.255L6.65699 139.428H6.66389Z" fill="#3968D2"/>
<path d="M53.856 146.018L53.2627 145.665C54.9528 142.782 56.0428 139.663 56.4981 136.392L57.181 136.489C56.7119 139.85 55.5944 143.051 53.856 146.018Z" fill="#3968D2"/>
<path d="M37.1962 125.715L37.3549 126.296L42.1493 124.989L43.0668 128.384L38.024 129.761C38.2241 131.697 38.0516 133.322 37.5067 134.643C36.9617 135.963 35.9821 137.077 34.5748 137.976C33.1675 138.875 31.2291 139.663 28.7802 140.334L29.4907 142.941C29.9046 144.462 30.553 145.575 31.436 146.281C32.319 146.986 33.5401 147.131 35.0784 146.709C37.8861 145.942 38.8587 143.971 38.0033 140.797L42.3425 139.615C43.0737 142.408 42.8874 144.725 41.8044 146.543C40.7144 148.369 38.7829 149.655 35.9959 150.416C33.2158 151.176 30.8773 150.983 28.9802 149.835C27.09 148.687 25.7655 146.723 25.0067 143.936L23.4684 138.259C26.5244 137.429 28.7457 136.724 30.1322 136.157C31.5188 135.59 32.4777 134.919 33.0296 134.145C33.5815 133.37 33.7815 132.312 33.6504 130.95L20.5917 134.504L19.6742 131.109L32.9399 127.492L32.7812 126.912L31.9396 123.807L18.674 127.423L17.7427 123.987L40.2246 117.867L41.1559 121.303L36.3615 122.61L37.2031 125.715H37.1962Z" fill="#FCC659"/>
<path d="M9.09204 115.212C11.4306 116.401 13.0379 118.227 14.1348 120.515C15.2316 118.227 16.8459 116.394 19.1844 115.205C16.8459 114.015 15.2316 112.19 14.1348 109.901C13.0379 112.19 11.4306 114.022 9.09204 115.212Z" fill="#FFE6A6"/>
<path d="M18.9844 121.594C20.3434 122.286 21.2747 123.344 21.9162 124.678C22.5578 123.351 23.489 122.286 24.848 121.594C23.489 120.903 22.5509 119.845 21.9162 118.51C21.2747 119.838 20.3434 120.903 18.9844 121.594Z" fill="#FFE6A6"/>
<path d="M42.5701 13.9685C44.9086 15.1579 46.516 16.9834 47.6128 19.2723C48.7097 16.9834 50.3239 15.1509 52.6625 13.9616C50.3239 12.7722 48.7097 10.9466 47.6128 8.65771C46.516 10.9466 44.9086 12.7791 42.5701 13.9685Z" fill="#FFE6A6"/>
<path d="M76.6206 43.0392C77.9796 43.7307 78.9109 44.7887 79.5524 46.1233C80.194 44.7956 81.1253 43.7307 82.4843 43.0392C81.1253 42.3477 80.1871 41.2897 79.5524 39.9551C78.9109 41.2828 77.9796 42.3477 76.6206 43.0392Z" fill="#FFE6A6"/>
<path d="M71.5712 25.5375V26.0907H76.1517V29.3408H71.3366C71.0469 31.111 70.5019 32.5148 69.7017 33.559C68.9015 34.6031 67.7632 35.3569 66.287 35.8202C64.8107 36.2835 62.9068 36.5186 60.5613 36.5186V39.0149C60.5613 40.4671 60.8786 41.615 61.4995 42.4586C62.1203 43.3023 63.1689 43.7241 64.6452 43.7241C67.3286 43.7241 68.6738 42.2028 68.6669 39.1671H72.8129C72.7922 41.8294 72.0748 43.8416 70.6675 45.2039C69.2602 46.5662 67.2252 47.2508 64.5693 47.2508C61.9065 47.2508 59.8715 46.5178 58.4642 45.0448C57.05 43.5719 56.3464 41.4974 56.3395 38.8282V33.4068C59.2575 33.4068 61.4029 33.31 62.7688 33.1371C64.1347 32.9643 65.1556 32.5978 65.8317 32.0446C66.5077 31.4914 66.9423 30.5924 67.1493 29.3477L54.6631 29.3684V26.1184L67.3355 26.0976V25.5444V22.5709L54.6562 22.5917V19.307L76.1448 19.2725V22.5571H71.5643V25.5306L71.5712 25.5375Z" fill="#FCC659"/>
<path d="M114.148 48.8687C114.148 48.8687 114.079 48.9102 114.052 48.9309H118.853C119.205 48.1357 119.481 47.2229 119.653 46.1649H124.475V42.9079H119.895V42.3616V39.3882H124.475V36.1035L102.98 36.1381V39.4227L115.666 39.402V42.3755V42.9287L102.987 42.9494V46.1995L115.473 46.1787C115.266 47.4235 114.824 48.3155 114.155 48.8756L114.148 48.8687Z" fill="#FCC659"/>
</g>
<defs>
<clipPath id="clip0_427_3100">
<rect width="178" height="165" fill="white"/>
</clipPath>
</defs>
</svg>
