<svg width="195" height="187" viewBox="0 0 195 187" fill="none" xmlns="http://www.w3.org/2000/svg">
<g clip-path="url(#clip0_427_2933)">
<path d="M0.968246 92.3922L0.00268555 92.5059L1.71855 107.272L2.68411 107.159L0.968246 92.3922Z" fill="#407BFF"/>
<path d="M3.31541 112.652L2.34985 112.766L3.21553 120.216L4.18109 120.102L3.31541 112.652Z" fill="#407BFF"/>
<path d="M67.4302 62.2791L66.2865 59.0562C64.6663 54.481 60.1201 51.6418 55.3261 52.2078L9.77847 57.5695C4.09812 58.2409 0.028474 63.4205 0.695629 69.1371L13.6575 180.689C14.115 184.612 17.6414 187.413 21.5395 186.962L184.506 167.778C188.405 167.318 191.188 163.769 190.74 159.846L179.531 63.4109C179.074 59.4879 175.548 56.6871 171.649 57.1379L77.0182 68.2739C72.8247 68.7631 68.8503 66.2788 67.4302 62.2791Z" fill="#407BFF"/>
<path d="M71.9912 13.7723L20.4985 24.0991L34.6359 95.4964L86.1286 85.1696L71.9912 13.7723Z" fill="#407BFF"/>
<path opacity="0.7" d="M71.9912 13.7723L20.4985 24.0991L34.6359 95.4964L86.1286 85.1696L71.9912 13.7723Z" fill="white"/>
<g opacity="0.4">
<path d="M65.1048 30.9525L33.3864 37.3118C31.8519 37.6188 30.3556 36.6116 30.0506 35.0674C29.7456 33.5231 30.7463 32.0172 32.2808 31.7103L63.9993 25.351C65.5337 25.044 67.03 26.0512 67.335 27.5954C67.64 29.1397 66.6393 30.6456 65.1048 30.9525Z" fill="#407BFF"/>
<path d="M67.4493 42.7602L35.7308 49.1195C34.1964 49.4264 32.7 48.4193 32.3951 46.875C32.0901 45.3307 33.0908 43.8248 34.6253 43.5179L66.3437 37.1586C67.8782 36.8517 69.3745 37.8588 69.6795 39.4031C69.9845 40.9473 68.9838 42.4532 67.4493 42.7602Z" fill="#407BFF"/>
<path d="M69.7845 54.5575L38.066 60.9168C36.5316 61.2238 35.0352 60.2166 34.7303 58.6724C34.4253 57.1281 35.426 55.6222 36.9605 55.3153L68.6789 48.956C70.2134 48.649 71.7097 49.6561 72.0147 51.2004C72.3197 52.7447 71.319 54.2506 69.7845 54.5575Z" fill="#407BFF"/>
<path d="M72.1195 66.3651L40.401 72.7244C38.8665 73.0314 37.3702 72.0242 37.0652 70.48C36.7602 68.9357 37.761 67.4298 39.2954 67.1229L71.0139 60.7636C72.5484 60.4566 74.0447 61.4638 74.3497 63.008C74.6547 64.5523 73.6539 66.0582 72.1195 66.3651Z" fill="#407BFF"/>
<path d="M65.7909 79.9086L42.7455 84.5318C41.211 84.8387 39.7147 83.8316 39.4097 82.2873C39.1047 80.7431 40.1055 79.2372 41.6399 78.9302L64.6854 74.307C66.2198 74.0001 67.7162 75.0072 68.0211 76.5515C68.3261 78.0958 67.3254 79.6017 65.7909 79.9086Z" fill="#407BFF"/>
</g>
<path d="M145.355 0.00481854L93.3342 7.16699L103.139 79.2962L155.16 72.1341L145.355 0.00481854Z" fill="#407BFF"/>
<path opacity="0.7" d="M145.355 0.00481854L93.3342 7.16699L103.139 79.2962L155.16 72.1341L145.355 0.00481854Z" fill="white"/>
<g opacity="0.4">
<path d="M137.453 16.728L105.41 21.1402C103.857 21.3512 102.427 20.2577 102.208 18.6943C101.998 17.1308 103.085 15.6921 104.638 15.4715L136.681 11.0593C138.234 10.8482 139.664 11.9417 139.883 13.5052C140.093 15.0686 139.006 16.5074 137.453 16.728Z" fill="#407BFF"/>
<path d="M139.073 28.6601L107.03 33.0723C105.477 33.2833 104.047 32.1898 103.828 30.6264C103.618 29.0629 104.705 27.6242 106.258 27.4036L138.301 22.9914C139.855 22.7804 141.284 23.8738 141.503 25.4373C141.713 27.0007 140.627 28.4395 139.073 28.6601Z" fill="#407BFF"/>
<path d="M117.486 43.7768L108.66 44.9949C107.107 45.206 105.677 44.1125 105.458 42.5491C105.248 40.9856 106.335 39.5468 107.888 39.3262L116.714 38.1081C118.267 37.8971 119.697 38.9905 119.916 40.554C120.126 42.1174 119.039 43.5562 117.486 43.7768Z" fill="#407BFF"/>
<path d="M134.603 41.4267L125.778 42.6448C124.224 42.8559 122.794 41.7624 122.575 40.199C122.366 38.6355 123.452 37.1968 125.006 36.9761L133.831 35.758C135.385 35.547 136.814 36.6404 137.033 38.2039C137.243 39.7673 136.157 41.2061 134.603 41.4267Z" fill="#407BFF"/>
<path d="M142.323 52.5048L110.28 56.917C108.727 57.128 107.297 56.0346 107.078 54.4711C106.868 52.9077 107.955 51.4689 109.508 51.2483L141.551 46.8361C143.105 46.6251 144.534 47.7186 144.753 49.282C144.963 50.8455 143.877 52.2842 142.323 52.5048Z" fill="#407BFF"/>
<path d="M135.185 65.6454L111.901 68.8491C110.347 69.0601 108.918 67.9666 108.699 66.4032C108.489 64.8397 109.575 63.401 111.129 63.1804L134.413 59.9767C135.966 59.7657 137.396 60.8592 137.615 62.4226C137.825 63.9861 136.738 65.4248 135.185 65.6454Z" fill="#407BFF"/>
</g>
<path d="M96.2747 10.538L43.9678 15.125L50.2474 87.6513L102.554 83.0643L96.2747 10.538Z" fill="#407BFF"/>
<path opacity="0.8" d="M96.2747 10.538L43.9678 15.125L50.2474 87.6513L102.554 83.0643L96.2747 10.538Z" fill="white"/>
<g opacity="0.4">
<path d="M87.5594 26.857L55.3358 29.6865C53.7727 29.8208 52.4003 28.6602 52.2573 27.0872C52.1239 25.5141 53.2771 24.1329 54.8402 23.9891L87.0638 21.1595C88.6268 21.0252 89.9993 22.1858 90.1422 23.7589C90.2757 25.3319 89.1224 26.7131 87.5594 26.857Z" fill="#407BFF"/>
<path d="M88.5982 38.8467L56.3746 41.6763C54.8115 41.8106 53.4391 40.65 53.2961 39.0769C53.1627 37.5039 54.3159 36.1227 55.879 35.9788L88.1026 33.1492C89.6657 33.015 91.0381 34.1756 91.181 35.7486C91.3145 37.3216 90.1613 38.7028 88.5982 38.8467Z" fill="#407BFF"/>
<path d="M89.637 50.8457L57.4134 53.6753C55.8504 53.8096 54.4779 52.649 54.335 51.0759C54.2015 49.5029 55.3548 48.1217 56.9178 47.9778L89.1414 45.1483C90.7045 45.014 92.0769 46.1746 92.2199 47.7476C92.3533 49.3207 91.2001 50.7019 89.637 50.8457Z" fill="#407BFF"/>
<path d="M90.6758 62.8355L58.4522 65.665C56.8892 65.7993 55.5167 64.6387 55.3738 63.0657C55.2404 61.4926 56.3936 60.1114 57.9566 59.9676L90.1802 57.138C91.7433 57.0037 93.1157 58.1643 93.2587 59.7374C93.3921 61.3104 92.2389 62.6916 90.6758 62.8355Z" fill="#407BFF"/>
<path d="M82.9084 75.6021L59.4913 77.6547C57.9282 77.789 56.5558 76.6284 56.4128 75.0554C56.2794 73.4823 57.4326 72.1011 58.9957 71.9572L82.4128 69.9046C83.9759 69.7703 85.3483 70.9309 85.4913 72.504C85.6247 74.077 84.4715 75.4582 82.9084 75.6021Z" fill="#407BFF"/>
</g>
<path d="M160.018 7.00735L107.574 9.55176L111.058 82.2684L163.502 79.724L160.018 7.00735Z" fill="#407BFF"/>
<path opacity="0.8" d="M160.018 7.00735L107.574 9.55176L111.058 82.2684L163.502 79.724L160.018 7.00735Z" fill="white"/>
<g opacity="0.4">
<path d="M150.691 22.9722L118.382 24.5453C116.819 24.622 115.485 23.4038 115.408 21.8308C115.332 20.2578 116.543 18.9149 118.106 18.8382L150.415 17.2652C151.978 17.1884 153.312 18.4066 153.389 19.9796C153.465 21.5526 152.254 22.8955 150.691 22.9722Z" fill="#407BFF"/>
<path d="M151.263 34.9908L118.954 36.5638C117.391 36.6405 116.056 35.4224 115.98 33.8494C115.904 32.2763 117.114 30.9335 118.677 30.8567L150.987 29.2837C152.55 29.207 153.884 30.4251 153.96 31.9982C154.037 33.5712 152.826 34.914 151.263 34.9908Z" fill="#407BFF"/>
<path d="M128.437 48.1504L119.535 48.5821C117.972 48.6588 116.638 47.4407 116.562 45.8676C116.486 44.2946 117.696 42.9517 119.259 42.875L128.161 42.4434C129.724 42.3666 131.058 43.5848 131.134 45.1578C131.211 46.7309 130 48.0737 128.437 48.1504Z" fill="#407BFF"/>
<path d="M145.697 47.316L136.796 47.7476C135.233 47.8243 133.898 46.6062 133.822 45.0331C133.746 43.4601 134.956 42.1173 136.519 42.0405L145.421 41.6089C146.984 41.5322 148.318 42.7503 148.395 44.3234C148.471 45.8964 147.26 47.2392 145.697 47.316Z" fill="#407BFF"/>
<path d="M152.417 59.0372L120.107 60.6102C118.544 60.6869 117.21 59.4688 117.134 57.8958C117.057 56.3227 118.268 54.9799 119.831 54.9031L152.14 53.3301C153.703 53.2534 155.037 54.4715 155.114 56.0446C155.19 57.6176 153.98 58.9604 152.417 59.0372Z" fill="#407BFF"/>
<path d="M144.163 71.4869L120.688 72.6283C119.125 72.705 117.791 71.4869 117.715 69.9138C117.639 68.3408 118.849 66.9979 120.412 66.9212L143.886 65.7798C145.449 65.7031 146.784 66.9212 146.86 68.4943C146.936 70.0673 145.726 71.4101 144.163 71.4869Z" fill="#407BFF"/>
</g>
<path d="M81.9742 64.3506L81.1355 61.1949C79.9537 56.7156 75.7125 53.9436 70.928 54.5095L25.3804 59.8713C19.7 60.5427 15.2015 65.6167 15.3349 71.2183L17.9178 180.41C18.0131 184.247 21.244 186.99 25.1421 186.53L188.109 167.346C192.007 166.886 195.095 163.404 195 159.568L192.77 65.1755C192.674 61.3388 189.443 58.5956 185.545 59.056L90.9141 70.192C86.7206 70.6811 83.0226 68.264 81.9837 64.3506H81.9742Z" fill="#407BFF"/>
<path opacity="0.3" d="M81.9742 64.3506L81.1355 61.1949C79.9537 56.7156 75.7125 53.9436 70.928 54.5095L25.3804 59.8713C19.7 60.5427 15.2015 65.6167 15.3349 71.2183L17.9178 180.41C18.0131 184.247 21.244 186.99 25.1421 186.53L188.109 167.346C192.007 166.886 195.095 163.404 195 159.568L192.77 65.1755C192.674 61.3388 189.443 58.5956 185.545 59.056L90.9141 70.192C86.7206 70.6811 83.0226 68.264 81.9837 64.3506H81.9742Z" fill="black" fill-opacity="0.6"/>
</g>
<defs>
<clipPath id="clip0_427_2933">
<rect width="195" height="187" fill="white"/>
</clipPath>
</defs>
</svg>
