<svg width="272" height="230" viewBox="0 0 272 230" fill="none" xmlns="http://www.w3.org/2000/svg">
<mask id="mask0_426_1980" style="mask-type:luminance" maskUnits="userSpaceOnUse" x="0" y="0" width="272" height="230">
<path d="M115.136 229.807C164.704 233.016 253.385 195.29 263.593 180.104C290.528 140.027 243.712 80.085 209.341 66.8281C180.38 55.6534 97.5676 -23.0855 56.9836 6.67558C-12.9249 57.9456 -0.136093 86.6752 2.84606 126.045C8.04571 194.946 73.481 227.114 115.155 229.807H115.136Z" fill="white"/>
</mask>
<g mask="url(#mask0_426_1980)">
<path d="M315.609 -76.1323H-34.3162V260.313H315.609V-76.1323Z" fill="#BFD1FF"/>
<path d="M200.069 104.784H227.922C228.4 104.784 228.744 104.326 228.61 103.867L226.144 95.424C226.049 95.1183 225.781 94.9082 225.456 94.9082H202.516C202.191 94.9082 201.924 95.1183 201.828 95.424L199.362 103.867C199.228 104.326 199.572 104.784 200.05 104.784H200.069Z" fill="#1B47E7"/>
<mask id="mask1_426_1980" style="mask-type:luminance" maskUnits="userSpaceOnUse" x="177" y="163" width="20" height="45">
<path d="M196.877 163.542H183.457C180.437 163.542 177.99 173.284 177.99 185.299C177.99 197.315 180.437 207.057 183.457 207.057H196.877C193.857 207.057 191.41 197.315 191.41 185.299C191.41 173.284 193.857 163.542 196.877 163.542Z" fill="white"/>
</mask>
<g mask="url(#mask1_426_1980)">
<path d="M196.686 163.542H183.266C183.266 163.542 183.171 163.542 183.113 163.561H196.533C196.533 163.561 196.629 163.542 196.686 163.542Z" fill="#1B47E7"/>
<path d="M196.552 163.581H183.132C183.132 163.581 183.037 163.6 182.979 163.619H196.399C196.399 163.619 196.495 163.581 196.552 163.581Z" fill="#1B47E7"/>
<path d="M196.399 163.618H182.979C182.979 163.618 182.865 163.656 182.807 163.695H196.227C196.227 163.695 196.342 163.637 196.399 163.618Z" fill="#1B47E7"/>
<path d="M196.208 163.695H182.788C182.788 163.695 182.674 163.752 182.616 163.79H196.036C196.036 163.79 196.151 163.714 196.208 163.695Z" fill="#1B47E7"/>
<path d="M196.036 163.79H182.616C182.616 163.79 182.425 163.905 182.329 163.981H195.749C195.749 163.981 195.94 163.847 196.036 163.79Z" fill="#1B47E7"/>
<path d="M195.749 163.981H182.329C182.177 164.115 182.004 164.267 181.852 164.459H195.271C195.424 164.267 195.577 164.115 195.749 163.981Z" fill="#1B47E7"/>
<path d="M195.29 164.478H181.871C181.355 165.089 180.877 166.006 180.437 167.152H193.857C194.296 166.006 194.774 165.089 195.29 164.478Z" fill="#1B47E7"/>
<path d="M193.856 167.152H180.437C179.863 168.642 179.385 170.553 178.984 172.749H192.404C192.786 170.553 193.283 168.642 193.856 167.152Z" fill="#1B47E7"/>
<path d="M192.404 172.749H178.984C178.544 175.194 178.239 178.002 178.086 181.039H191.505C191.658 178.002 191.964 175.194 192.404 172.749Z" fill="#1B47E7"/>
<path d="M191.505 181.04H178.086C178.009 182.415 177.99 183.848 177.99 185.299C177.99 186.98 178.028 188.623 178.124 190.189H191.544C191.448 188.623 191.41 186.98 191.41 185.299C191.41 183.848 191.448 182.415 191.505 181.04Z" fill="#1B47E7"/>
<path d="M191.544 190.189H178.124C178.258 192.596 178.506 194.831 178.812 196.856H192.232C191.907 194.831 191.678 192.577 191.544 190.189Z" fill="#1B47E7"/>
<path d="M192.232 196.856H178.812C179.041 198.327 179.309 199.664 179.634 200.867H193.054C192.748 199.664 192.48 198.327 192.232 196.856Z" fill="#1B47E7"/>
<path d="M193.054 200.868H179.634C179.844 201.708 180.093 202.491 180.341 203.179H193.761C193.513 202.491 193.264 201.708 193.054 200.868Z" fill="#1B47E7"/>
<path d="M193.761 203.198H180.341C180.532 203.714 180.724 204.191 180.934 204.611H194.354C194.143 204.191 193.952 203.714 193.761 203.198Z" fill="#1B47E7"/>
<path d="M194.354 204.611H180.934C181.087 204.936 181.259 205.242 181.431 205.509H194.851C194.679 205.242 194.526 204.936 194.354 204.611Z" fill="#1B47E7"/>
<path d="M194.832 205.509H181.412C181.565 205.758 181.718 205.968 181.89 206.159H195.31C195.157 205.968 194.985 205.758 194.832 205.509Z" fill="#1B47E7"/>
<path d="M195.31 206.159H181.89C182.387 206.751 182.903 207.056 183.457 207.056H196.877C196.342 207.056 195.807 206.751 195.31 206.159Z" fill="#1B47E7"/>
</g>
<path d="M196.877 163.542C193.857 163.542 191.41 173.284 191.41 185.299C191.41 197.315 193.857 207.057 196.877 207.057C199.897 207.057 202.344 197.315 202.344 185.299C202.344 173.284 199.897 163.542 196.877 163.542Z" fill="#1B47E7"/>
<mask id="mask2_426_1980" style="mask-type:luminance" maskUnits="userSpaceOnUse" x="114" y="163" width="22" height="50">
<path d="M135.972 163.542H120.832C117.41 163.542 114.657 174.545 114.657 188.107C114.657 201.67 117.41 212.673 120.832 212.673H135.972C132.55 212.673 129.798 201.67 129.798 188.107C129.798 174.545 132.55 163.542 135.972 163.542Z" fill="white"/>
</mask>
<g mask="url(#mask2_426_1980)">
<path d="M135.762 163.561H120.622C120.622 163.561 120.507 163.561 120.45 163.599H135.59C135.59 163.599 135.705 163.58 135.762 163.561Z" fill="#1B47E7"/>
<path d="M135.59 163.581H120.45C120.45 163.581 120.335 163.619 120.278 163.638H135.418C135.418 163.638 135.533 163.6 135.59 163.581Z" fill="#1B47E7"/>
<path d="M135.418 163.638H120.278C120.278 163.638 120.144 163.695 120.067 163.714H135.208C135.208 163.714 135.341 163.657 135.418 163.638Z" fill="#1B47E7"/>
<path d="M135.227 163.714H120.086C120.086 163.714 119.953 163.79 119.876 163.828H135.016C135.016 163.828 135.15 163.752 135.227 163.714Z" fill="#1B47E7"/>
<path d="M135.016 163.829H119.876C119.761 163.886 119.666 163.962 119.57 164.058H134.71C134.806 163.981 134.921 163.905 135.016 163.829Z" fill="#1B47E7"/>
<path d="M134.711 164.058H119.571C119.399 164.21 119.207 164.382 119.035 164.592H134.176C134.348 164.382 134.52 164.21 134.711 164.058Z" fill="#1B47E7"/>
<path d="M134.175 164.593H119.035C118.462 165.28 117.907 166.312 117.429 167.611H132.57C133.067 166.312 133.602 165.28 134.175 164.593Z" fill="#1B47E7"/>
<path d="M132.551 167.611H117.41C116.78 169.292 116.225 171.45 115.766 173.934H130.907C131.346 171.45 131.901 169.292 132.551 167.611Z" fill="#1B47E7"/>
<path d="M130.926 173.933H115.785C115.288 176.684 114.944 179.855 114.772 183.293H129.912C130.084 179.855 130.429 176.684 130.926 173.933Z" fill="#1B47E7"/>
<path d="M129.912 183.293H114.772C114.696 184.841 114.657 186.464 114.657 188.107C114.657 189.998 114.715 191.851 114.81 193.628H129.951C129.855 191.851 129.798 189.998 129.798 188.107C129.798 186.464 129.836 184.86 129.912 183.293Z" fill="#1B47E7"/>
<path d="M129.951 193.628H114.811C114.963 196.34 115.231 198.881 115.594 201.154H130.734C130.371 198.862 130.104 196.34 129.951 193.628Z" fill="#1B47E7"/>
<path d="M130.734 201.154H115.594C115.862 202.816 116.168 204.325 116.512 205.681H131.652C131.308 204.325 131.002 202.797 130.734 201.154Z" fill="#1B47E7"/>
<path d="M131.652 205.681H116.512C116.76 206.636 117.028 207.515 117.315 208.298H132.455C132.168 207.515 131.9 206.636 131.652 205.681Z" fill="#1B47E7"/>
<path d="M132.455 208.298H117.315C117.525 208.891 117.754 209.425 117.984 209.903H133.124C132.895 209.425 132.665 208.891 132.455 208.298Z" fill="#1B47E7"/>
<path d="M133.105 209.903H117.965C118.137 210.285 118.328 210.61 118.519 210.915H133.659C133.468 210.61 133.277 210.266 133.105 209.903Z" fill="#1B47E7"/>
<path d="M133.678 210.915H118.538C118.71 211.182 118.882 211.431 119.073 211.641H134.214C134.041 211.431 133.85 211.182 133.678 210.915Z" fill="#1B47E7"/>
<path d="M134.194 211.66H119.054C119.609 212.31 120.201 212.673 120.813 212.673H135.953C135.341 212.673 134.749 212.31 134.194 211.66Z" fill="#1B47E7"/>
</g>
<path d="M135.972 212.673C139.382 212.673 142.147 201.674 142.147 188.107C142.147 174.54 139.382 163.542 135.972 163.542C132.562 163.542 129.798 174.54 129.798 188.107C129.798 201.674 132.562 212.673 135.972 212.673Z" fill="#1B47E7"/>
<path d="M313.066 186.751C313.066 186.751 317.865 179.244 317.865 165.185V144.555C317.865 144.555 314.863 136.475 304.999 133.189C304.999 133.189 289.286 103.199 260.783 103.199H198.827C198.827 103.199 178.392 104.097 170.324 107.917C162.238 111.737 139.471 139.321 139.471 139.321C139.471 139.321 118.251 147.172 115.785 157.945C113.319 168.719 111.522 188.222 120.048 198.996H297.831L313.085 186.77L313.066 186.751Z" fill="#1B47E7"/>
<path d="M145.225 135.5C145.225 135.5 145.664 130.343 142.529 130.343C139.394 130.343 128.383 130.114 128.383 135.5C128.383 140.887 141.86 139.321 141.86 139.321C141.86 139.321 145.225 138.881 145.225 135.5Z" fill="#1B47E7"/>
<mask id="mask3_426_1980" style="mask-type:luminance" maskUnits="userSpaceOnUse" x="233" y="163" width="22" height="50">
<path d="M254.609 163.542H239.469C236.047 163.542 233.294 174.545 233.294 188.107C233.294 201.67 236.047 212.673 239.469 212.673H254.609C251.187 212.673 248.434 201.67 248.434 188.107C248.434 174.545 251.187 163.542 254.609 163.542Z" fill="white"/>
</mask>
<g mask="url(#mask3_426_1980)">
<path d="M254.398 163.561H239.258C239.258 163.561 239.143 163.561 239.086 163.599H254.226C254.226 163.599 254.341 163.58 254.398 163.561Z" fill="#1B47E7"/>
<path d="M254.245 163.581H239.105C239.105 163.581 238.99 163.619 238.933 163.638H254.073C254.073 163.638 254.188 163.6 254.245 163.581Z" fill="#1B47E7"/>
<path d="M254.073 163.638H238.933C238.933 163.638 238.799 163.695 238.723 163.714H253.863C253.863 163.714 253.997 163.657 254.073 163.638Z" fill="#1B47E7"/>
<path d="M253.863 163.714H238.723C238.723 163.714 238.589 163.79 238.512 163.828H253.653C253.653 163.828 253.786 163.752 253.863 163.714Z" fill="#1B47E7"/>
<path d="M253.672 163.829H238.532C238.417 163.886 238.321 163.962 238.226 164.058H253.366C253.462 163.981 253.576 163.905 253.672 163.829Z" fill="#1B47E7"/>
<path d="M253.347 164.058H238.207C238.035 164.21 237.844 164.382 237.672 164.592H252.812C252.984 164.382 253.156 164.21 253.347 164.058Z" fill="#1B47E7"/>
<path d="M252.812 164.593H237.672C237.098 165.28 236.544 166.312 236.066 167.611H251.206C251.703 166.312 252.238 165.28 252.812 164.593Z" fill="#1B47E7"/>
<path d="M251.206 167.611H236.066C235.435 169.292 234.88 171.45 234.422 173.934H249.562C250.001 171.45 250.556 169.292 251.206 167.611Z" fill="#1B47E7"/>
<path d="M249.562 173.933H234.422C233.925 176.684 233.58 179.855 233.408 183.293H248.549C248.721 179.855 249.065 176.684 249.562 173.933Z" fill="#1B47E7"/>
<path d="M248.549 183.293H233.409C233.332 184.841 233.294 186.464 233.294 188.107C233.294 189.998 233.351 191.851 233.447 193.628H248.587C248.491 191.851 248.434 189.998 248.434 188.107C248.434 186.464 248.472 184.86 248.549 183.293Z" fill="#1B47E7"/>
<path d="M248.587 193.628H233.447C233.6 196.34 233.867 198.881 234.231 201.154H249.371C249.007 198.862 248.74 196.34 248.587 193.628Z" fill="#1B47E7"/>
<path d="M249.371 201.154H234.23C234.498 202.816 234.804 204.325 235.148 205.681H250.288C249.944 204.325 249.638 202.797 249.371 201.154Z" fill="#1B47E7"/>
<path d="M250.288 205.681H235.148C235.397 206.636 235.664 207.515 235.951 208.298H251.091C250.804 207.515 250.537 206.636 250.288 205.681Z" fill="#1B47E7"/>
<path d="M251.091 208.298H235.951C236.161 208.891 236.391 209.425 236.62 209.903H251.76C251.531 209.425 251.301 208.891 251.091 208.298Z" fill="#1B47E7"/>
<path d="M251.76 209.903H236.62C236.792 210.285 236.983 210.61 237.175 210.915H252.315C252.124 210.61 251.932 210.266 251.76 209.903Z" fill="#1B47E7"/>
<path d="M252.314 210.915H237.174C237.346 211.182 237.518 211.431 237.71 211.641H252.85C252.678 211.431 252.487 211.182 252.314 210.915Z" fill="#1B47E7"/>
<path d="M252.85 211.66H237.71C238.264 212.31 238.857 212.673 239.468 212.673H254.609C253.997 212.673 253.404 212.31 252.85 211.66Z" fill="#1B47E7"/>
</g>
<path d="M254.608 212.673C258.019 212.673 260.783 201.674 260.783 188.107C260.783 174.54 258.019 163.542 254.608 163.542C251.198 163.542 248.434 174.54 248.434 188.107C248.434 201.674 251.198 212.673 254.608 212.673Z" fill="#1B47E7"/>
<path d="M254.609 201.269C256.435 201.269 257.916 195.376 257.916 188.108C257.916 180.839 256.435 174.946 254.609 174.946C252.782 174.946 251.302 180.839 251.302 188.108C251.302 195.376 252.782 201.269 254.609 201.269Z" fill="#BFD1FF"/>
<path d="M269.959 108.967L282.996 135.022L298.748 132.921C293.166 119.836 281.238 108.031 269.94 108.967H269.959Z" fill="#BFD1FF"/>
<path d="M261.93 137.83L279.116 135.538L266.69 109.234C266.69 109.234 258.795 109.273 261.949 137.811L261.93 137.83Z" fill="#BFD1FF"/>
<path d="M253.691 108.91H172.427C172.427 108.91 159.409 118.117 142.128 138.748H253.691V108.91Z" fill="#BFD1FF"/>
<path d="M227.482 158.365L226.393 167.611H236.066C236.066 167.611 234.403 159.951 232.835 158.824C232.472 158.575 230.426 158.442 227.482 158.365Z" fill="#BFD1FF"/>
<path d="M195.329 167.611H224.462L225.571 158.346C215.171 158.232 197.355 158.709 197.355 158.709L195.329 167.611Z" fill="#BFD1FF"/>
<path d="M116.397 167.611C116.397 167.611 116.302 159.951 117.869 158.843C119.437 157.716 143.886 158.728 143.886 158.728L141.325 167.63H116.397V167.611Z" fill="#BFD1FF"/>
<path d="M147.5 160.103H191.697L192.041 158.709H147.805L147.5 160.103Z" fill="#BFD1FF"/>
<path d="M146.677 163.542H190.894L191.161 162.358H146.964L146.677 163.542Z" fill="#BFD1FF"/>
<path d="M145.836 167.248H190.014L190.339 165.796H146.181L145.836 167.248Z" fill="#BFD1FF"/>
<path d="M264.587 135.5C264.587 135.5 264.148 130.343 267.283 130.343C270.418 130.343 281.429 130.114 281.429 135.5C281.429 140.887 267.952 139.321 267.952 139.321C267.952 139.321 264.587 138.881 264.587 135.5Z" fill="#1B47E7"/>
<path d="M259.311 138.805C259.311 140.638 260.057 142.109 260.993 142.109C261.93 142.109 267.608 140.619 267.608 138.805C267.608 136.99 261.911 135.5 260.993 135.5C260.076 135.5 259.311 136.99 259.311 138.805Z" fill="#1B47E7"/>
<path d="M34.0056 174.029C29.4941 179.415 34.0056 312.595 34.0056 312.595H63.2154C63.2154 312.595 72.2192 236.645 73.8632 234.506L70.1164 312.595H89.9592L100.607 176.722C100.607 176.722 39.0332 168.031 34.0056 174.029Z" fill="#1B47E7"/>
<path d="M109.573 147.381C119.016 151.144 131.059 127.4 136.316 112.883C136.316 112.883 131.652 112.596 129.186 107.171C120.832 124.592 113.434 131.278 113.434 131.278C111.771 130.399 96.8793 105.414 93.8398 102.816C90.0356 99.5687 81.3377 98.0214 81.6627 106.56C81.8921 112.749 99.4027 143.332 109.592 147.4L109.573 147.381Z" fill="#ECB5BC"/>
<path d="M114.696 127.267C115.04 131.737 121.004 136.933 124.789 139.378C126.166 137.372 128.078 134.679 129.358 130.897C124.923 127.821 123.279 126.408 119.074 123.122C118.118 124.058 115.442 125.911 114.696 127.267Z" fill="#F2D666"/>
<path d="M117.907 125.681C116.283 126.216 114.352 128.719 112.899 129.636C107.91 123.676 95.7898 102.033 91.6033 100.199C87.9903 98.6138 83.4598 99.1105 80.1717 101.403C73.5193 106.025 103.436 148.126 107.317 149.521C114.581 152.138 126.032 137.678 125.975 134.659C125.535 135.099 117.888 125.681 117.888 125.681H117.907Z" fill="#F2D666"/>
<path d="M114.639 128.948C117.009 133.036 120.01 136.646 123.623 139.702C124.216 140.199 124.904 139.32 124.273 138.862C120.546 136.092 117.372 132.73 114.792 128.872C114.734 128.776 114.581 128.872 114.639 128.967V128.948Z" fill="#EDB25A"/>
<path d="M112.402 129.597C109.209 134.411 107.871 139.913 108.521 145.643C108.579 146.102 109.305 146.102 109.248 145.643C108.502 139.989 109.668 134.602 112.727 129.769C112.842 129.578 112.536 129.406 112.421 129.597H112.402Z" fill="#EDB25A"/>
<path d="M112.383 129.368C109.573 130.724 106.61 133.571 106.227 136.818C106.189 137.162 106.743 137.315 106.896 136.99C107.546 135.596 107.986 134.201 108.942 132.94C109.936 131.622 111.197 130.591 112.669 129.808C112.975 129.636 112.708 129.196 112.402 129.349L112.383 129.368Z" fill="#EDB25A"/>
<path d="M110.758 132.482C110.108 136.837 109.095 142.205 111.523 146.197C111.676 146.465 112.096 146.293 112.02 145.987C110.815 141.326 110.72 137.315 111.293 132.558C111.332 132.253 110.815 132.196 110.758 132.482Z" fill="#EDB25A"/>
<path d="M124.98 135.92C124.98 136.436 124.56 136.856 124.044 136.856C123.527 136.856 123.107 136.436 123.107 135.92C123.107 135.405 123.527 134.984 124.044 134.984C124.56 134.984 124.98 135.405 124.98 135.92Z" fill="#EDB25A"/>
<path d="M126.548 133.322C127.065 133.322 127.485 132.903 127.485 132.386C127.485 131.869 127.065 131.45 126.548 131.45C126.031 131.45 125.611 131.869 125.611 132.386C125.611 132.903 126.031 133.322 126.548 133.322Z" fill="#EDB25A"/>
<path d="M56.5247 97.3529L84.9125 124.21L83.7272 93.5707L83.7846 70.4572L61.5905 66.7896L56.5247 97.3529Z" fill="#ECB5BC"/>
<path d="M84.4258 81.9303L59.7762 77.8526L66.8698 35.0354L104.533 41.2658L99.5933 71.0795C98.4037 78.2597 91.6113 83.119 84.4258 81.9303Z" fill="#ECB5BC"/>
<path d="M83.8611 81.4981C78.5659 79.9317 75.2014 75.9967 71.5311 72.1189C70.7664 71.3166 69.5239 72.5774 70.3267 73.3224C74.3794 77.0855 78.1071 80.9059 83.67 82.1857C84.1096 82.2813 84.3008 81.6318 83.8611 81.4981Z" fill="#DC8D8F"/>
<path d="M98.7527 57.9453C98.5234 59.3397 98.7336 60.5241 99.2115 60.6196C99.6894 60.696 100.282 59.6263 100.511 58.2509C100.741 56.8564 100.531 55.6721 100.053 55.5766C99.5748 55.5002 98.9821 56.5699 98.7527 57.9453Z" fill="#595655"/>
<path d="M87.952 56.1689C87.7226 57.5634 87.9328 58.7477 88.4108 58.8432C88.8887 58.9196 89.4813 57.869 89.7107 56.4745C89.9401 55.0801 89.7298 53.8957 89.2519 53.8002C88.774 53.7238 88.1814 54.7936 87.952 56.1689Z" fill="#595655"/>
<path d="M95.5412 57.1815C94.4516 60.9447 93.6296 66.2359 95.7515 69.7889C96.2103 70.553 97.5867 70.2856 97.5102 69.3114C97.3573 67.4967 96.6117 65.7775 96.325 63.9628C95.9618 61.7278 95.828 59.512 96 57.2388C96.0191 56.9905 95.6368 56.9332 95.5604 57.1815H95.5412Z" fill="#DC8D8F"/>
<path d="M96.7073 72.3294C96.7073 72.3294 88.5255 71.0305 87.4741 70.8013C87.4741 72.062 89.099 74.8318 92.4826 75.3858C94.6619 75.7487 96.3824 74.5071 96.7073 72.3294Z" fill="white"/>
<path d="M62.3936 31.7944C64.3817 27.0761 68.2814 22.4534 73.1561 21.3837C80.4585 19.7982 89.7873 23.1984 95.4075 27.2099C101.563 31.6033 111.408 35.6339 118.232 30.2089C116.913 39.3397 111.198 44.1916 102.461 46.312C92.9415 48.6042 86.3846 47.4772 77.3808 44.3445C77.0367 49.2155 78.2219 54.1629 79.2733 58.8621C78.1646 58.9385 75.6985 59.3587 74.7045 58.7474C72.6017 57.4676 71.9517 52.864 71.3974 50.7437C67.6888 55.8439 61.6098 66.7894 61.6098 66.7894C61.6098 66.1018 52.9118 46.6367 53.5618 42.0904C55.2631 30.1898 63.4832 32.0427 62.3936 31.7944Z" fill="#595655"/>
<path d="M66.5608 54.755C65.9874 58.2125 68.8739 61.5745 71.1679 61.9374C73.4619 62.3195 74.2839 59.5688 74.8573 56.1113C75.4308 52.6538 74.0353 49.5401 71.7414 49.1772C69.4474 48.7952 67.1343 51.2975 66.5608 54.755Z" fill="#ECB5BC"/>
<path d="M73.0602 54.0099C73.1749 52.8065 72.6779 51.5458 71.5691 50.9727C70.5942 50.476 69.0458 50.6098 68.4532 51.6222C68.1855 52.0806 68.759 52.7874 69.256 52.4245C69.8678 51.9469 70.4221 51.5458 71.225 51.8896C72.0279 52.2334 72.4294 53.1694 72.4485 54.029C72.4485 54.4302 73.0411 54.4302 73.0793 54.029L73.0602 54.0099Z" fill="#DC8D8F"/>
<path d="M71.6839 52.1377C70.9765 52.8254 69.0267 55.6525 70.5942 56.3402C71.3398 56.6649 71.703 55.8244 71.703 55.2322C71.703 54.2962 71.8941 53.4748 72.3912 52.6726C72.6588 52.2332 72.0471 51.7748 71.6839 52.1377Z" fill="#DC8D8F"/>
<path d="M141.898 74.0482L143.294 75.0797C143.294 75.0797 143.122 74.9842 143.026 74.9842L141.631 73.9526C141.726 73.9526 141.822 73.9908 141.898 74.0482Z" fill="#E06666"/>
<path d="M111.675 111.011L110.28 109.979C110.108 109.845 110.031 109.597 110.146 109.33L111.542 110.361C111.427 110.629 111.503 110.877 111.675 111.011Z" fill="#E06666"/>
<path d="M126.223 74.9461L124.827 73.8955L141.631 73.9528L143.026 75.0034L126.223 74.9461Z" fill="#FC86A0"/>
<path d="M111.522 110.361L110.127 109.33L124.235 74.3345L125.63 75.366L111.522 110.361Z" fill="#B44452"/>
<path d="M125.63 75.3664L124.235 74.3348C124.33 74.0674 124.579 73.8955 124.827 73.8955L126.223 74.927C125.974 74.927 125.726 75.0989 125.63 75.3664Z" fill="#E06666"/>
<path d="M126.223 74.9463L143.026 75.0036C143.37 75.0036 143.6 75.3856 143.447 75.7486L129.358 110.725C129.262 110.992 129.014 111.164 128.746 111.164L111.962 111.107C111.599 111.107 111.369 110.744 111.541 110.381L125.649 75.3856C125.745 75.1182 125.993 74.9463 126.242 74.9463H126.223Z" fill="#E06666"/>
<path d="M140.923 78.5182C140.656 79.3395 139.949 79.9699 139.318 79.9317C138.687 79.8935 138.381 79.2058 138.649 78.3844C138.916 77.563 139.624 76.9327 140.254 76.9709C140.885 77.0091 141.191 77.6968 140.923 78.5182Z" fill="white"/>
<path d="M140.541 78.4989C140.369 79.0529 139.891 79.4731 139.471 79.454C139.05 79.4349 138.84 78.9574 139.012 78.4225C139.184 77.8876 139.662 77.4483 140.082 77.4674C140.503 77.4865 140.713 77.964 140.541 78.4989Z" fill="#1B47E7"/>
<path d="M137.731 78.2698C137.655 78.4991 137.464 78.671 137.292 78.6519C137.119 78.6519 137.043 78.4609 137.1 78.2316C137.158 78.0024 137.368 77.8305 137.54 77.8496C137.712 77.8496 137.789 78.0406 137.731 78.2698Z" fill="white"/>
<path d="M136.336 112.883C137.1 108.776 139.662 100.371 137.597 96.6842C135.208 92.4053 130.046 88.0309 129.454 88.413C128.766 89.2917 131.308 91.8705 132.589 93.7998C134.08 96.0347 135.017 97.8494 135.265 98.8236C132.704 93.9144 128.479 89.9221 128.116 90.2468C126.529 91.603 132.455 96.7415 133.105 100.18C130.964 96.9325 127.561 91.8896 126.395 92.0806C125.057 93.284 129.989 99.9316 130.964 101.555C129.339 99.6259 125.841 93.647 124.56 94.411C123.547 95.1751 127.217 99.9889 127.944 102.377C128.097 102.892 128.899 105.891 128.211 109.54C127.6 112.787 124.044 117.257 121.903 120.39C127.255 124.707 134.29 116.627 136.336 112.883Z" fill="#ECB5BC"/>
<path d="M27.0665 98.3269C32.8588 90.5332 57.6718 90.5332 57.6718 90.5332C88.8315 131.354 83.7465 93.5513 83.7465 93.5513C85.4288 97.7729 97.0324 105.452 99.1543 109.177C100.015 110.686 96.2678 189.043 95.2164 190.113C94.5282 190.819 69.9254 197.524 38.0202 186.961C37.0835 179.893 22.8036 116.187 27.0856 98.3269H27.0665Z" fill="#145187"/>
<path d="M70.862 110.725C70.4415 108.127 55.4351 91.3933 54.8425 89.464C48.6679 88.5471 26.2635 91.2978 24.5622 102.721C22.8417 114.278 24.9063 142.167 26.2635 163.389C27.9267 189.273 26.3018 208.184 26.2635 212.329C35.0188 215.633 51.4207 215.213 66.8285 213.169C72.5825 156.111 70.862 124.058 70.862 110.706V110.725Z" fill="#F2D666"/>
<path d="M46.7372 173.17C44.8829 177.831 43.0095 182.568 40.3141 186.828C38.1922 190.171 34.3498 192.788 32.8014 196.302C32.5146 196.952 32.9734 197.64 33.719 197.487C37.6187 196.646 40.1612 191.909 41.8817 188.623C44.405 183.81 45.9343 178.557 47.4445 173.361C47.5783 172.902 46.9284 172.749 46.7563 173.17H46.7372Z" fill="#EDB25A"/>
<path d="M70.2118 155.634C70.2118 156.532 69.4854 157.277 68.5678 157.277C67.6503 157.277 66.9238 156.551 66.9238 155.634C66.9238 154.717 67.6503 153.991 68.5678 153.991C69.4854 153.991 70.2118 154.717 70.2118 155.634Z" fill="#EDB25A"/>
<path d="M69.1034 176.321C69.1034 177.219 68.377 177.964 67.4594 177.964C66.5419 177.964 65.8154 177.238 65.8154 176.321C65.8154 175.405 66.5419 174.679 67.4594 174.679C68.377 174.679 69.1034 175.405 69.1034 176.321Z" fill="#EDB25A"/>
<path d="M67.6503 198.213C67.6503 199.11 66.9239 199.855 66.0063 199.855C65.0887 199.855 64.3623 199.13 64.3623 198.213C64.3623 197.296 65.0887 196.57 66.0063 196.57C66.9239 196.57 67.6503 197.296 67.6503 198.213Z" fill="#EDB25A"/>
<path d="M66.7903 103.466C66.905 123.925 65.758 144.536 64.3625 164.937C63.2729 180.906 60.2716 197.812 61.3421 213.8C61.3804 214.278 62.145 214.45 62.2215 213.915C64.5919 198.385 64.5537 181.976 65.6051 166.274C67.0197 145.281 67.2682 124.498 66.9815 103.466C66.9815 103.352 66.7903 103.352 66.7903 103.466Z" fill="#EDB25A"/>
<path d="M88.4301 96.4551C86.8817 100.447 85.6009 104.574 84.5112 108.68C84.5112 108.68 88.8506 101.555 88.8506 214.774C93.7062 213.303 99.1544 214.602 100.626 210.514C103.532 202.434 103.608 122.95 102.251 108.337C102.079 106.388 92.1195 99.6261 88.4301 96.436V96.4551Z" fill="#F2D666"/>
<path d="M86.5377 100.543C91.355 117.314 91.8903 135.461 92.5402 152.806C93.324 173.226 93.2858 193.685 93.2475 214.124C93.2475 214.812 94.318 214.812 94.318 214.124C94.2798 192.691 94.2607 171.24 93.2858 149.826C92.5402 133.398 91.852 116.245 87.2259 100.333C87.0921 99.8933 86.4039 100.084 86.5377 100.524V100.543Z" fill="#EDB25A"/>
<path d="M89.5772 154.01C90.2463 153.934 90.9154 153.857 91.5845 153.781C92.1197 153.723 91.9859 152.94 91.4889 153.074C90.8389 153.265 90.189 153.456 89.539 153.647C89.3478 153.704 89.3861 154.029 89.5772 153.991V154.01Z" fill="#EDB25A"/>
<path d="M89.5773 175.805C90.4758 175.748 91.3934 175.691 92.2919 175.614C92.636 175.595 92.636 175.041 92.2919 175.08C91.3934 175.194 90.4758 175.328 89.5773 175.442C89.3479 175.481 89.3479 175.825 89.5773 175.805Z" fill="#EDB25A"/>
<path d="M89.5773 197.028L92.2919 196.837C92.636 196.818 92.636 196.264 92.2919 196.302L89.5773 196.665C89.3479 196.703 89.3479 197.047 89.5773 197.028Z" fill="#EDB25A"/>
<path d="M101.964 108.356C102.614 120.562 101.964 132.806 102.633 144.993C102.672 145.586 103.475 145.566 103.532 144.993C104.832 133.074 103.398 120.275 102.5 108.356C102.481 108.012 101.945 108.012 101.964 108.356Z" fill="#EDB25A"/>
<path d="M102.806 102.11C105.52 97.9071 109.974 89.5595 114.792 88.0313C120.393 86.2548 128.479 86.656 128.689 87.4774C128.575 88.7954 124.216 88.9864 121.54 89.5977C118.405 90.3236 116.111 91.145 115.078 91.7945C121.349 89.5977 128.307 89.5786 128.364 90.1517C128.632 92.6349 119.246 92.2529 115.862 94.7362C120.374 93.6473 127.504 92.0428 128.364 93.1507C128.555 95.2901 118.787 97.0666 116.608 97.6588C119.59 97.315 127.561 94.9463 128.058 96.6846C128.326 98.1746 121.177 99.378 118.558 100.868C117.487 101.479 110.968 112.272 106.227 112.979C98.0266 112.367 95.9047 111.928 102.806 102.09V102.11Z" fill="#ECB5BC"/>
<path d="M64.9551 144.325C73.8634 149.196 96.7074 126.006 107.795 112.444C107.795 112.444 101.066 113.59 99.269 107.897C84.4921 123.122 70.7283 128.795 70.7283 128.795C69.1799 127.725 47.0431 103.771 44.3477 100.849C40.9641 97.1621 32.0176 96.4935 31.2912 105.013C30.7751 111.183 55.3205 139.072 64.9551 144.344V144.325Z" fill="#ECB5BC"/>
<path d="M81.4334 122.148C81.4334 122.148 76.2146 125.166 71.512 127.86C67.2108 123.084 45.7623 87.1722 31.1191 98.3278C20.7389 106.236 61.2083 145.414 65.3565 146.713C72.2767 148.853 87.8565 134.584 87.8565 134.584C89.7682 130.152 84.2244 127.516 81.4334 122.167V122.148Z" fill="#F2D666"/>
<path d="M87.0537 117.41C89.2903 119.874 93.515 127.343 94.4326 128.929C94.4326 128.929 90.2461 134.373 87.9139 136.589C82.829 133.169 80.8982 127.63 79.2351 121.918C81.3953 120.314 83.154 118.977 87.0537 117.429V117.41Z" fill="#F2D666"/>
<path d="M78.9482 123.714C79.4261 126.159 80.1717 128.528 81.2804 130.763C82.2171 132.635 83.4214 135.118 85.2948 136.188C85.811 136.475 86.2316 135.921 86.0213 135.462C85.1993 133.514 83.4406 131.986 82.3892 130.114C81.2039 128.031 80.3819 125.796 79.8085 123.485C79.6746 122.912 78.8335 123.16 78.9482 123.714Z" fill="#EDB25A"/>
<path d="M32.4956 110.782C36.8541 119.875 42.1876 128.242 49.3562 135.367C54.4603 140.448 60.7305 147.745 68.5682 147.554C69.1608 147.554 69.3137 146.656 68.702 146.503C59.9467 144.306 54.2118 137.602 48.1137 131.393C42.0155 125.185 37.0262 118.251 32.7823 110.61C32.6676 110.4 32.3809 110.591 32.4765 110.782H32.4956Z" fill="#EDB25A"/>
<path d="M49.4326 100.524C56.5821 108.337 61.82 118.041 69.2563 125.491C69.543 125.777 70.0209 125.415 69.8106 125.052C64.7066 115.94 56.1042 108.471 49.5473 100.391C49.4708 100.295 49.337 100.429 49.4135 100.524H49.4326Z" fill="#EDB25A"/>
<path d="M71.4738 127.248C69.2372 130.878 64.9742 137.353 67.5167 141.594C67.727 141.957 68.396 141.823 68.3578 141.365C67.8799 136.474 69.868 131.871 72.1046 127.611C72.3149 127.21 71.7223 126.847 71.4929 127.248H71.4738Z" fill="#EDB25A"/>
<path d="M69.1226 130.572C65.6817 131.985 62.9289 134.545 61.304 137.907C60.979 138.595 61.9922 139.034 62.2789 138.327C63.6362 135.08 66.1405 132.558 69.3138 131.068C69.5814 130.935 69.3902 130.457 69.1035 130.572H69.1226Z" fill="#EDB25A"/>
<path d="M39.3965 121.079C44.5197 124.937 52.7589 125.205 58.9526 125.644C59.5452 125.682 59.6981 124.689 59.0864 124.593C52.7397 123.6 45.0167 124.651 39.473 120.926C39.3774 120.868 39.3009 121.021 39.3774 121.079H39.3965Z" fill="#EDB25A"/>
<path d="M89.4813 133.208C89.4813 133.724 89.0608 134.144 88.5446 134.144C88.0285 134.144 87.6079 133.724 87.6079 133.208C87.6079 132.693 88.0285 132.272 88.5446 132.272C89.0608 132.272 89.4813 132.693 89.4813 133.208Z" fill="#EDB25A"/>
<path d="M91.9857 129.674C91.9857 130.19 91.5652 130.61 91.049 130.61C90.5329 130.61 90.1123 130.19 90.1123 129.674C90.1123 129.159 90.5329 128.738 91.049 128.738C91.5652 128.738 91.9857 129.159 91.9857 129.674Z" fill="#EDB25A"/>
<path d="M58.5702 85.0321C58.7231 85.6816 72.0472 102.319 73.8632 104.879C73.8632 104.879 70.9193 111.584 68.0136 114.297C60.6921 111.087 51.8412 92.1381 52.2618 89.3109C55.588 87.5918 57.882 84.7073 58.5893 85.0321H58.5702Z" fill="#F2D666"/>
<path d="M53.2557 90.189C55.6644 96.8938 58.1877 104.516 62.1831 110.475C65.4902 115.423 66.9813 112.558 70.6516 108.947C70.9001 108.699 70.5369 108.336 70.2693 108.565C69.409 109.31 68.5106 110.342 67.5356 110.915C65.2608 112.271 64.4579 111.965 63.0433 109.96C61.8007 108.183 60.8449 106.158 59.87 104.229C57.5569 99.6063 55.4732 94.8881 53.5807 90.0744C53.5042 89.8642 53.1601 89.9406 53.2366 90.1699L53.2557 90.189Z" fill="#EDB25A"/>
<path d="M83.7658 91.2402C82.0836 95.9011 80.9366 99.9699 79.7131 104.745C79.7131 104.745 82.8482 108.146 85.5436 110.037C88.0096 107.343 88.5258 94.6213 88.5258 94.6213C88.5258 94.6213 86.6333 91.6605 83.7467 91.2593L83.7658 91.2402Z" fill="#F2D666"/>
<path d="M87.8182 96.8179C87.8756 99.3584 87.5124 101.918 87.3021 104.459C87.2447 105.242 87.4359 107.84 86.6139 108.298C86.5183 108.356 84.3773 107.63 83.995 107.572C83.3641 107.496 83.1538 108.47 83.67 108.738C85.0464 109.463 87.7418 110.629 88.1623 108.432C88.4682 106.904 88.105 105.051 88.0667 103.504C88.0094 101.288 87.8373 99.0337 87.9903 96.8179C87.9903 96.7033 87.7991 96.6842 87.7991 96.8179H87.8182Z" fill="#EDB25A"/>
</g>
</svg>
