<svg width="149" height="78" viewBox="0 0 149 78" fill="none" xmlns="http://www.w3.org/2000/svg">
<g filter="url(#filter0_d_534_287)">
<path d="M135.871 68.7755V50.1532H134.988V48.4314H131.695V46.2613H132.442V45.2486H129.183V43.272H126.956V38.781H126.32V36.6904H126.089V38.781H125.683V43.272H123.037V40.4213H121.045V37.3587H116.049V38.2899H116.471V45.0428H114.311V43.1233H112.946V39.2334H112.213V34.0536H111.83V39.2334H111.247V43.1233H109.734V45.7784H108.634V43.7488H107.708V45.7784H107.217V41.6113H106.697V36.5375H106.289V40.1238L104.809 41.6113H104.348V36.238H99.3512V37.1692H99.7714V43.922H97.6111V42.0046H97.5238V38.6547H96.2488V38.1127H95.5138V32.9329H95.1321V38.1127H94.5473V38.6547H93.786V42.0046H93.0368V44.6576H92.1089V44.5435H91.9343V42.6302H91.0084V44.5435H90.5191V40.4906H89.9973V35.4189H89.5912V39.0031L88.1091 40.4906H86.2066V41.6113H68.8045V44.5435H68.6116V37.534H64.8717V43.704H63.1966V43.4228H57.3655V40.4906H52.1068V43.4228H50.7506V36.1178H47.1589V39.319H43.5834V46.6484H42.8017V43.272H41.6363V32.4316H41.3521V43.272H39.9024V47.9892H38.0649V50.1532H36.1787V68.7755H135.871Z" fill="#C4F1F7"/>
<path d="M137.559 68.7754V57.8433H135.599V55.5957H133.691V50.6951H132.186V39.437H131.892V50.6951H130.68V54.202H129.868V46.5892H126.156V43.2658H122.426V50.852H121.015V47.8057H115.554V50.852H109.499V51.1434H107.759V44.7349H103.875V52.0155H103.674V48.9713H98.2875V47.8057H96.3119L94.7729 46.2632V42.5383H94.3506V47.8057H93.8085V52.0155H93.3009V50.0288H92.3385V52.0155H92.1578V52.1337H91.1954V49.3788H90.4158V45.8985H89.6239V45.3381H89.0189V39.9566H88.6209V45.3381H87.8575V45.8985L86.5337 47.9422V51.4226H86.4444V53.4134H84.1988V46.3997H84.6374V45.4318H67.2312V51.013H66.752L65.215 49.4685V47.7874H64.7907V51.013H64.2526V55.341H63.741V53.2341H62.7786V55.341H61.6375V52.584H60.066V48.5454H59.461V45.2077H59.061V48.5454H58.2996V52.584H56.8845V54.5769H54.6409V47.5653H55.0775V46.5974H49.8899V49.7761H47.8189V52.7389L45.0739 50.6951V46.0309H44.6516V43.8588H44.412V46.0309H43.7501V50.6951H41.4375V52.7471H38.0529V53.8005H38.8285V56.0542H35.4094V57.8433H34.4917V68.7754H137.559Z" fill="#B6E2EB"/>
<path d="M100.725 32.3195C101.242 32.0464 102.012 34.3306 101.198 34.7239C100.383 35.1172 99.7642 33.4422 99.7642 33.4422C99.7642 33.4422 100.182 32.6047 100.725 32.3195Z" fill="#DC933F"/>
<path d="M103.441 33.3379C103.234 33.2849 102.572 33.3644 102.572 33.3644C102.06 33.5172 101.778 33.5987 101.479 33.5458C101.183 33.4928 100.531 33.992 100.531 33.992C100.531 33.992 100.198 33.3073 100.326 32.5656C100.326 32.5656 100.728 32.4291 100.807 32.3191C100.964 32.099 100.897 31.6894 101.262 31.3471C101.63 31.0048 101.924 30.3976 101.924 30.3976C101.924 30.3976 102.2 30.3853 102.16 30.6441C102.119 30.9049 101.839 31.2024 101.857 31.3227C101.861 31.3471 101.867 31.3716 101.875 31.3919C101.875 31.3919 101.875 31.3919 101.875 31.398C101.906 31.4816 101.965 31.5529 102.036 31.5774C102.04 31.5794 102.046 31.5835 102.052 31.5835C102.34 31.6528 102.949 31.3899 103.207 31.2473C103.567 31.0476 104.078 30.803 104.109 31.07C104.137 31.3369 103.831 31.2371 103.114 31.826L103.146 31.9156C103.098 31.9604 103.721 31.8341 104.253 31.6059C104.618 31.451 104.608 31.7506 104.523 31.8565C104.438 31.9666 104.048 32.0684 103.784 32.1846C103.609 32.26 103.426 32.3354 103.317 32.3802L103.313 32.5065C104.105 32.5432 104.298 32.2926 104.415 32.4923C104.531 32.6899 103.979 32.8835 103.725 32.8754C103.615 32.8713 103.414 32.9181 103.223 32.9711C103.824 33.1178 104.021 32.965 104.08 33.1443C104.139 33.3298 103.65 33.3889 103.443 33.3359L103.441 33.3379Z" fill="#FF8B66"/>
<path d="M101.685 32.2702C101.959 31.9747 101.888 31.4592 101.877 31.396C101.908 31.4795 101.967 31.5509 102.038 31.5753C102.066 32.101 101.685 32.2681 101.685 32.2681V32.2702Z" fill="#EF6E4B"/>
<path d="M92.8954 25.0201C94.1704 25.6355 96.3673 33.4418 96.3673 33.4418C96.3673 33.4418 96.7043 33.1056 96.8424 33.3481C96.9804 33.5905 100.724 32.3211 100.724 32.3211C100.724 32.3211 99.963 33.6985 101.197 34.7255C101.197 34.7255 97.1977 36.7021 95.8495 36.967C94.5014 37.2339 92.3857 30.3792 92.3857 30.3792L92.8954 25.0181V25.0201Z" fill="#F4B71E"/>
<path d="M99.8775 68.429C99.8775 68.6205 99.8572 68.757 99.8572 68.757H94.3184C94.3184 68.647 94.3184 68.537 94.3265 68.429C94.3894 66.9741 94.8463 65.7128 94.8463 65.7128L96.231 65.1157C96.3507 65.8309 96.6573 66.2894 97.0431 66.5869C97.1446 66.6684 97.2502 66.7336 97.3598 66.7907C97.4106 66.8172 97.4613 66.8437 97.5141 66.8681C97.6299 66.9211 97.7497 66.9639 97.8674 67.0006C98.3567 67.1493 98.8501 67.1819 99.1973 67.2349C99.7881 67.3266 99.8775 68.0113 99.8775 68.429Z" fill="#6D6E70"/>
<path d="M99.8775 68.4292C99.8775 68.6207 99.8572 68.7573 99.8572 68.7573H94.3184C94.3184 68.6472 94.3184 68.5372 94.3265 68.4292H99.8775Z" fill="#ADBEC4"/>
<path d="M97.3577 66.7927L96.5882 67.0393L96.4258 66.756L97.0389 66.5869C97.1405 66.6684 97.246 66.7336 97.3557 66.7907L97.3577 66.7927Z" fill="#ADBEC4"/>
<path d="M97.8673 67.0006L97.3495 67.345L97.0308 67.2186L97.514 66.8682C97.6297 66.9211 97.7495 66.9639 97.8673 67.0006Z" fill="#ADBEC4"/>
<path d="M90.0447 68.4286C90.0305 68.6161 89.9818 68.7567 89.9818 68.7567H86.2926C86.2459 68.6487 86.2114 68.5407 86.1891 68.4286C85.8256 66.6559 88.2783 64.4878 88.2783 64.4878L89.0559 65.529C89.0559 65.529 88.9666 67.1979 89.6244 67.5443C90.0204 67.7521 90.0711 68.1454 90.0447 68.4266V68.4286Z" fill="#6D6E70"/>
<path d="M86.189 68.4287H90.0446C90.0304 68.6162 89.9817 68.7568 89.9817 68.7568H86.2925C86.2458 68.6488 86.2113 68.5408 86.189 68.4287Z" fill="#ADBEC4"/>
<path d="M89.4557 67.412C89.4557 67.412 87.9005 67.0554 87.1919 67.5159V67.2592C87.1919 67.2592 88.4994 66.6214 89.4557 67.412Z" fill="#ADBEC4"/>
<path d="M89.1471 67.0166C89.1471 67.0166 88.1543 66.5602 87.1919 67.0166L87.3015 66.7558C87.3015 66.7558 88.4507 66.3198 89.1471 67.0166Z" fill="#ADBEC4"/>
<path d="M83.8823 39.7873C83.8823 43.3104 84.2275 46.8967 84.3168 47.8075C84.4062 48.7184 85.3442 58.8823 85.4762 62.815C85.5432 64.8302 86.1888 67.2673 86.1888 67.2673C86.1888 67.2673 88.1014 65.7166 89.1836 66.8679L89.4556 65.2968L88.9481 64.06C88.9481 64.06 89.4902 63.0371 89.0475 62.2403C88.6029 61.4457 88.4669 44.4433 88.4669 44.4433L89.3216 44.3883L93.4209 64.0579V65.1787C93.4209 65.1787 94.3123 66.605 94.3204 67.5159L97.0431 66.5867L96.5984 65.2948L96.8928 63.4507L95.9041 61.0463C95.9041 61.0463 93.0737 42.2447 93.3032 40.1337L83.8823 39.7832V39.7873Z" fill="#404041"/>
<path d="M82.9263 28.3865C82.9324 28.6167 82.9405 28.8592 82.9507 29.1119C82.9507 29.1649 82.9568 29.2178 82.9588 29.2729C82.9812 29.7293 83.0055 30.2122 83.038 30.7115C83.0522 30.9478 83.0685 31.1862 83.0827 31.4308C83.1192 31.9422 83.1558 32.4659 83.1984 32.9875C83.2146 33.2259 83.2349 33.4643 83.2553 33.7007C83.2938 34.1857 83.3344 34.6727 83.375 35.1434C83.3953 35.3818 83.4156 35.6161 83.4359 35.8464C83.4908 36.4373 83.5436 36.9997 83.5923 37.5213C83.6146 37.7699 83.639 38.0104 83.6613 38.2366C83.706 38.7032 83.7466 39.1209 83.7852 39.4734C83.8136 39.7669 83.838 40.0175 83.8603 40.209C83.8907 40.5024 83.907 40.6675 83.907 40.6675C83.907 40.6675 84.512 41.5213 86.0815 41.9573C86.9647 42.2039 88.1565 42.316 89.7158 42.0694C90.3392 41.9696 90.8752 41.8188 91.3279 41.6497C92.668 41.1464 93.2913 40.4739 93.2913 40.4739C93.2913 40.4739 93.3055 40.2151 93.3278 39.7669C93.34 39.5549 93.3522 39.2982 93.3664 39.0068C93.3847 38.5993 93.409 38.1184 93.4294 37.5886C93.4395 37.3563 93.4517 37.1118 93.4618 36.8591C93.4842 36.2763 93.5085 35.6487 93.5309 34.9987C93.537 34.7644 93.5431 34.526 93.5512 34.2855C93.5694 33.7292 93.5837 33.1587 93.5938 32.5943C93.5979 32.3579 93.6019 32.1195 93.606 31.8852C93.6121 31.4226 93.6182 30.9621 93.6182 30.5179C93.6182 30.2774 93.6182 30.039 93.6182 29.8047C93.6182 29.3095 93.608 28.8327 93.5958 28.3885C93.5958 28.3029 93.5898 28.2214 93.5877 28.1399C93.5877 28.0931 93.5877 28.0462 93.5837 27.9993C93.5796 27.8546 93.5735 27.7161 93.5674 27.5816C93.5634 27.5286 93.5613 27.4777 93.5573 27.4267C93.5268 26.8766 93.4821 26.4079 93.4233 26.0513C93.3684 25.7069 93.2974 25.4645 93.2121 25.3504C93.1938 25.3279 93.1756 25.3076 93.1593 25.2851C92.5116 24.5088 91.2914 24.1726 89.7158 24.087C89.1047 24.0564 88.4387 24.0605 87.7322 24.0951C87.2104 24.1196 86.7129 24.2052 86.252 24.3336C84.4369 24.843 83.507 25.1303 83.0847 25.7518C83.0299 25.8312 82.9893 26.0024 82.9629 26.2449C82.9365 26.4487 82.9243 26.7054 82.9162 27.0029C82.906 27.3982 82.9101 27.8648 82.9263 28.3865Z" fill="#F9D964"/>
<path d="M89.2039 28.4907C89.344 28.4846 89.4821 28.4784 89.6222 28.4723C89.6161 28.3338 89.612 28.1952 89.6059 28.0566C89.4658 28.0628 89.3257 28.0689 89.1836 28.075C89.1897 28.2135 89.1978 28.3521 89.2039 28.4907Z" fill="#6D6E70"/>
<path d="M88.6884 28.1056C88.8285 28.0974 88.9686 28.0893 89.1087 28.0832C89.1026 27.9446 89.0945 27.806 89.0884 27.6675C88.9463 27.6736 88.8062 27.6817 88.6641 27.6899C88.6722 27.8285 88.6803 27.967 88.6884 28.1056Z" fill="#6D6E70"/>
<path d="M88.2945 28.5437C88.4326 28.5355 88.5727 28.5253 88.7108 28.5192C88.7026 28.3806 88.6945 28.2421 88.6864 28.1035C88.5463 28.1117 88.4062 28.1198 88.2661 28.13C88.2763 28.2686 88.2844 28.4071 88.2945 28.5457V28.5437Z" fill="#6D6E70"/>
<path d="M87.7726 28.1665C87.9127 28.1563 88.0528 28.1461 88.1929 28.1359C88.1828 27.9973 88.1726 27.8588 88.1645 27.7202C88.0244 27.7304 87.8823 27.7406 87.7422 27.7508C87.7523 27.8893 87.7645 28.0279 87.7747 28.1665H87.7726Z" fill="#6D6E70"/>
<path d="M87.3886 28.6128C87.5267 28.6006 87.6668 28.5904 87.8048 28.5802C87.7947 28.4417 87.7845 28.3031 87.7723 28.1646C87.6322 28.1747 87.4921 28.187 87.3521 28.1972C87.3642 28.3357 87.3764 28.4743 87.3866 28.6128H87.3886Z" fill="#6D6E70"/>
<path d="M86.859 28.2463C86.9991 28.2341 87.1371 28.2198 87.2772 28.2096C87.265 28.0711 87.2529 27.9325 87.2407 27.7939C87.1006 27.8062 86.9585 27.8184 86.8184 27.8327C86.8326 27.9712 86.8448 28.1098 86.859 28.2483V28.2463Z" fill="#6D6E70"/>
<path d="M86.4831 28.6986C86.6211 28.6844 86.7592 28.6701 86.8973 28.6579C86.8851 28.5193 86.8709 28.3807 86.8587 28.2422C86.7186 28.2544 86.5805 28.2687 86.4404 28.2829C86.4546 28.4215 86.4689 28.5601 86.4831 28.6966V28.6986Z" fill="#6D6E70"/>
<path d="M85.949 28.3418C86.0871 28.3255 86.2272 28.3112 86.3673 28.2969C86.3531 28.1584 86.3389 28.0198 86.3226 27.8833C86.1825 27.8976 86.0424 27.9139 85.9023 27.9281C85.9186 28.0667 85.9348 28.2032 85.949 28.3418Z" fill="#6D6E70"/>
<path d="M85.5819 28.8004C85.72 28.7841 85.8581 28.7678 85.9961 28.7515C85.9799 28.613 85.9657 28.4744 85.9494 28.3379C85.8114 28.3542 85.6713 28.3705 85.5332 28.3868C85.5494 28.5254 85.5677 28.6619 85.584 28.8004H85.5819Z" fill="#6D6E70"/>
<path d="M85.0416 28.4539C85.1797 28.4356 85.3178 28.4173 85.4579 28.401C85.4416 28.2624 85.4233 28.1259 85.4071 27.9873C85.267 28.0036 85.1269 28.0219 84.9868 28.0403C85.0051 28.1788 85.0234 28.3154 85.0416 28.4539Z" fill="#6D6E70"/>
<path d="M84.6823 28.9184C84.8204 28.9 84.9564 28.8797 85.0945 28.8634C85.0762 28.7248 85.058 28.5883 85.0397 28.4497C84.9016 28.468 84.7636 28.4864 84.6255 28.5068C84.6438 28.6453 84.6641 28.7818 84.6823 28.9204V28.9184Z" fill="#6D6E70"/>
<path d="M89.608 22.8014L89.2182 25.1162C89.2182 25.1162 88.5928 25.4769 87.1411 24.6577C87.1411 24.6577 87.732 22.8727 86.9868 21.699C86.9868 21.699 87.1513 21.695 87.4132 21.7052C87.4132 21.7052 87.7827 23.0337 89.608 22.8014Z" fill="#EF6E4B"/>
<path d="M90.4242 18.6893C90.4242 18.6893 91.0902 18.1432 90.4871 17.9659C90.4871 17.9659 90.7409 17.2976 90.4506 17.1875C90.1582 17.0775 89.8618 17.3465 89.6994 17.0612C89.5369 16.7739 89.1857 16.3154 88.5624 16.7657C87.939 17.2161 87.5919 16.4764 87.3259 16.7168C87.0579 16.9552 87.2223 17.3404 86.7838 17.3995C86.3472 17.4565 85.9371 17.5584 86.0366 17.9985C86.1361 18.4387 85.6549 18.4672 85.6326 18.7341C85.6102 19.0011 85.8153 19.0805 85.8336 19.3088C85.8518 19.537 85.529 19.6348 85.6447 19.9771C85.7605 20.3194 86.0914 20.2705 86.065 20.5171C86.0386 20.7636 85.8214 21.3077 86.1341 21.3831C86.4467 21.4605 86.5645 22.0148 86.932 21.9353C87.2975 21.8558 90.4242 18.6913 90.4242 18.6913V18.6893Z" fill="#6D6E70"/>
<path d="M86.524 20.5923C86.4448 22.7869 89.5675 23.7303 90.1522 22.685C90.339 22.3508 90.5258 21.4196 90.5949 20.7777C90.6111 20.6331 90.6233 20.4843 90.6294 20.3376C90.674 19.3371 90.4954 18.3427 89.9228 18.1226C87.931 17.3544 86.6194 17.9005 86.522 20.5923H86.524Z" fill="#FF8B66"/>
<path d="M88.6377 19.9345C88.6377 20.0832 88.7006 20.2055 88.7839 20.2075C88.8671 20.2075 88.9362 20.0873 88.9382 19.9386C88.9382 19.7898 88.8752 19.6676 88.792 19.6655C88.7088 19.6655 88.6397 19.7857 88.6397 19.9345H88.6377Z" fill="#1A4850"/>
<path d="M90.002 20.0649C90.002 20.2136 90.0649 20.3359 90.1481 20.3379C90.2314 20.3379 90.3004 20.2177 90.3024 20.069C90.3024 19.9202 90.2395 19.798 90.1563 19.7959C90.073 19.7939 90.004 19.9161 90.002 20.0649Z" fill="#1A4850"/>
<path d="M88.0526 20.3948C88.014 20.5109 88.1013 20.6454 88.2475 20.6923C88.3937 20.7412 88.5419 20.6841 88.5805 20.568C88.619 20.4518 88.5317 20.3173 88.3856 20.2705C88.2394 20.2216 88.0912 20.2786 88.0526 20.3948Z" fill="#DB614D"/>
<path d="M90.286 20.6333C90.3165 20.7474 90.4525 20.8106 90.5967 20.7779C90.6129 20.6333 90.6251 20.4845 90.6312 20.3378C90.5885 20.3317 90.5418 20.3337 90.4972 20.346C90.349 20.3867 90.2556 20.5151 90.286 20.6333Z" fill="#DB614D"/>
<path d="M88.4873 19.1784C88.4589 19.1804 88.4305 19.1682 88.4102 19.1458C88.3797 19.1071 88.3878 19.052 88.4264 19.0215C88.668 18.832 89.0112 18.8911 89.0254 18.8931C89.0741 18.9013 89.1045 18.9481 89.0964 18.995C89.0883 19.0418 89.0436 19.0745 88.9949 19.0663C88.9929 19.0663 88.7147 19.0194 88.536 19.16C88.5218 19.1702 88.5056 19.1763 88.4894 19.1784H88.4873Z" fill="#8B383E"/>
<path d="M90.4829 19.439C90.4829 19.439 90.4829 19.439 90.4809 19.439C90.4322 19.4411 90.3916 19.4044 90.3895 19.3555C90.3875 19.2883 90.2291 19.2556 90.1459 19.2516C90.0972 19.2516 90.0586 19.2088 90.0606 19.1599C90.0606 19.111 90.1033 19.0723 90.152 19.0743C90.3022 19.0784 90.556 19.1415 90.5662 19.3453C90.5682 19.3922 90.5317 19.4329 90.485 19.437L90.4829 19.439Z" fill="#8B383E"/>
<path d="M89.9369 21.1386C89.8719 21.1447 89.7968 21.1406 89.7136 21.1304L89.7298 20.998C89.9146 21.0204 90.0486 20.998 90.1095 20.9389C90.1359 20.9124 90.144 20.8818 90.144 20.8655C89.7298 20.3418 89.6851 19.6714 89.6831 19.6429L89.8151 19.6348C89.8151 19.6348 89.8597 20.3072 90.2597 20.8003L90.2719 20.8146V20.8329C90.276 20.8451 90.2861 20.947 90.2008 21.0326C90.142 21.0937 90.0526 21.1284 89.9349 21.1365L89.9369 21.1386Z" fill="#EF6E4B"/>
<path d="M90.0525 21.4318C90.0525 21.4318 89.9997 21.5215 89.5307 21.4624C89.0597 21.4033 88.7612 21.2749 88.7612 21.2749C88.7612 21.2749 88.8303 22.2245 89.5368 22.2285C90.1236 22.2326 90.0525 21.4318 90.0525 21.4318Z" fill="#1A4850"/>
<path d="M87.1491 20.6273C87.1491 20.6273 87.1024 19.8326 87.5816 19.3721C88.0608 18.9116 87.6445 18.2351 87.6445 18.2351C87.6445 18.2351 89.5653 17.909 90.4221 18.6895C90.4221 18.6895 91.0616 17.5606 89.2343 17.098C87.405 16.6375 84.4345 18.0619 86.9319 21.9334L86.5238 20.5947L87.1491 20.6293V20.6273Z" fill="#8B383E"/>
<path d="M87.0885 20.5273C87.0885 20.5273 86.658 20.0098 86.2519 20.3195C85.8459 20.6292 86.5139 21.5788 86.9504 21.5482C87.3869 21.5176 87.0905 20.5273 87.0905 20.5273H87.0885Z" fill="#FF8B66"/>
<path d="M82.9585 29.2729C82.9808 29.7294 83.0052 30.2123 83.0377 30.7115C83.0519 30.9479 83.0681 31.1863 83.0823 31.4308C83.1189 31.9423 83.1554 32.466 83.1981 32.9876C83.2143 33.226 83.2346 33.4644 83.2549 33.7008C83.2935 34.1857 83.3341 34.6727 83.3747 35.1434C83.395 35.3819 83.4153 35.6162 83.4356 35.8464C83.4904 36.4374 83.5432 36.9998 83.592 37.5214C83.6143 37.77 83.6387 38.0104 83.661 38.2366C83.7057 38.7033 83.7463 39.121 83.7848 39.4735C83.8133 39.7669 83.8376 40.0175 83.86 40.2091C83.8904 40.5025 83.9067 40.6676 83.9067 40.6676C83.9067 40.6676 84.5117 41.5213 86.0812 41.9574C86.9644 42.204 88.1562 42.316 89.7155 42.0695C90.3388 41.9696 90.8748 41.8188 91.3276 41.6497C92.6676 41.1464 93.291 40.474 93.291 40.474C93.291 40.474 93.3052 40.2152 93.3275 39.7669C93.3397 39.555 93.3519 39.2983 93.3661 39.0069C93.3844 38.5993 93.4087 38.1184 93.429 37.5886C93.4392 37.3564 93.4514 37.1118 93.4615 36.8592C93.4838 36.2764 93.5082 35.6488 93.5305 34.9988C93.5366 34.7644 93.5427 34.526 93.5509 34.2856C93.5691 33.7293 93.5833 33.1588 93.5935 32.5943C93.5975 32.358 93.6016 32.1195 93.6057 31.8852C93.6118 31.4227 93.6179 30.9622 93.6179 30.5179C93.6179 30.2775 93.6179 30.0391 93.6179 29.8048C93.6179 29.3096 93.6077 28.8328 93.5955 28.3886C92.7712 28.3173 89.6668 28.1542 83.8823 29.0712C83.5574 29.1221 83.2488 29.1894 82.9585 29.2729Z" fill="#6D6E70"/>
<path d="M86.3008 34.5586C86.7678 34.5505 87.0317 36.7063 86.1181 36.9325C86.1181 36.9325 85.0237 34.581 86.3008 34.5586Z" fill="#DC933F"/>
<path d="M93.1875 27.9874C93.3195 27.9935 93.4514 27.9955 93.5834 27.9996C93.5794 27.8549 93.5733 27.7164 93.5672 27.5819C93.4433 27.5819 93.3174 27.5758 93.1936 27.5737C93.1916 27.7123 93.1895 27.8488 93.1875 27.9874Z" fill="#6D6E70"/>
<path d="M92.7612 28.3966C92.9013 28.3966 93.0394 28.4007 93.1795 28.4028C93.1815 28.2642 93.1835 28.1256 93.1876 27.9871C93.0475 27.985 92.9074 27.983 92.7673 27.981C92.7673 28.1195 92.7653 28.2581 92.7633 28.3966H92.7612Z" fill="#6D6E70"/>
<path d="M92.2701 27.9811C92.4102 27.9811 92.5503 27.9811 92.6904 27.9832C92.6904 27.8446 92.6904 27.706 92.6924 27.5675C92.5503 27.5675 92.4102 27.5654 92.2681 27.5654C92.2681 27.704 92.2681 27.8426 92.2681 27.9811H92.2701Z" fill="#6D6E70"/>
<path d="M91.8517 28.3966C91.9898 28.3966 92.1299 28.3966 92.2679 28.3966V27.981C92.1278 27.981 91.9878 27.981 91.8477 27.981C91.8477 28.1195 91.8497 28.2581 91.8517 28.3966Z" fill="#6D6E70"/>
<path d="M91.3524 27.9892C91.4925 27.9871 91.6325 27.9851 91.7726 27.9831C91.7726 27.8445 91.7686 27.7059 91.7686 27.5674C91.6265 27.5674 91.4864 27.5694 91.3442 27.5735C91.3463 27.7121 91.3503 27.8506 91.3524 27.9892Z" fill="#6D6E70"/>
<path d="M90.9443 28.4132C91.0824 28.4091 91.2225 28.4071 91.3605 28.405C91.3585 28.2665 91.3565 28.1279 91.3524 27.9873C91.2123 27.9893 91.0722 27.9934 90.9321 27.9955C90.9362 28.134 90.9402 28.2726 90.9423 28.4111L90.9443 28.4132Z" fill="#6D6E70"/>
<path d="M90.4385 28.0158C90.5786 28.0117 90.7187 28.0056 90.8588 28.0036C90.8547 27.865 90.8507 27.7265 90.8466 27.5879C90.7045 27.592 90.5644 27.596 90.4243 27.6001C90.4304 27.7387 90.4345 27.8772 90.4406 28.0158H90.4385Z" fill="#6D6E70"/>
<path d="M90.0363 28.4457C90.1744 28.4395 90.3125 28.4334 90.4526 28.4294C90.4485 28.2908 90.4424 28.1522 90.4384 28.0137C90.2983 28.0177 90.1582 28.0239 90.0181 28.03C90.0242 28.1685 90.0302 28.3071 90.0363 28.4457Z" fill="#6D6E70"/>
<path d="M89.5249 28.0567C89.665 28.0485 89.803 28.0424 89.9431 28.0363C89.937 27.8977 89.9309 27.7592 89.9228 27.6206C89.7827 27.6267 89.6406 27.6349 89.5005 27.641C89.5086 27.7795 89.5167 27.9181 89.5228 28.0567H89.5249Z" fill="#6D6E70"/>
<path d="M87.3565 23.4473C87.3565 23.4473 88.1666 24.2603 88.7615 24.2847L89.1188 25.0224L89.3747 24.1992L89.4417 23.8018C89.4417 23.8018 90.1563 24.3357 90.1563 25.4829C90.1563 25.4829 89.9208 25.1813 89.6102 25.1141L89.1188 25.4075L88.5808 25.1997L88.2661 25.6113C88.2661 25.6113 86.6032 25.0937 86.656 24.6087C86.7149 24.0708 87.3565 23.4493 87.3565 23.4493V23.4473Z" fill="#F4B71E"/>
<path d="M88.9988 25.2158C88.9988 25.2158 89.0455 25.4094 89.1064 25.7456C89.1389 25.9147 89.1815 26.1165 89.216 26.3549C89.2546 26.5912 89.2972 26.8582 89.3439 27.1496C89.3845 27.4409 89.4211 27.7588 89.4637 28.095C89.5064 28.4313 89.551 28.7838 89.5774 29.1526C89.6099 29.5194 89.6424 29.9004 89.6769 30.2855C89.7135 30.6706 89.7175 31.066 89.7399 31.4592C89.7581 31.8525 89.7764 32.2458 89.7926 32.6329C89.7926 33.0201 89.7926 33.4032 89.7926 33.772C89.7926 34.1408 89.7926 34.4994 89.7926 34.8377C89.8008 35.1759 89.7662 35.4958 89.7581 35.7913C89.7013 36.9732 89.6627 37.7597 89.6627 37.7597C89.6627 37.7597 89.7135 36.9732 89.7906 35.7913C89.8048 35.4958 89.8434 35.1759 89.8414 34.8377C89.8475 34.4994 89.8515 34.1408 89.8576 33.772C89.8637 33.4032 89.8678 33.0201 89.8739 32.6309C89.8617 32.2417 89.8515 31.8484 89.8393 31.4531C89.8231 31.0598 89.8251 30.6625 89.7947 30.2753C89.7683 29.8882 89.7398 29.5051 89.7135 29.1363C89.6932 28.7654 89.6546 28.4109 89.616 28.0726C89.5774 27.7344 89.547 27.4165 89.5104 27.121C89.4678 26.8276 89.4292 26.5586 89.3947 26.3202C89.3642 26.0818 89.3236 25.874 89.2932 25.7028C89.2363 25.3605 89.1917 25.1689 89.1917 25.1689L88.9927 25.2117L88.9988 25.2158Z" fill="#F4B71E"/>
<path d="M88.1887 28.9366L86.2051 29.2076V30.9967C86.2051 30.9967 87.2426 31.7669 88.2639 30.9967C88.2639 30.9967 88.41 29.2402 88.1887 28.9346V28.9366Z" fill="#F4B71E"/>
<path d="M86.2804 36.5003C86.4793 36.5819 87.8803 37.079 88.1564 37.0424C88.1666 37.0424 88.1767 37.0403 88.1869 37.0363C88.4569 36.9833 88.7594 36.7184 88.9483 36.6511C89.1452 36.5798 89.2122 36.3924 89.3827 36.264C89.5553 36.1356 89.6629 35.7485 89.6629 35.7485C89.6629 35.7485 90.2456 35.2227 90.002 35.1535C89.6974 35.0679 89.3523 35.3735 89.3523 35.3735L88.597 35.5039C88.597 35.5039 87.6915 35.1453 87.728 34.9619C87.7686 34.7806 88.1422 34.9293 88.4691 34.9028C88.6863 34.8865 88.7026 34.6481 88.7026 34.6481L88.1442 34.5075C88.1442 34.5075 87.328 34.3751 87.1534 34.4464C86.9788 34.5177 86.3332 34.9273 86.3332 34.9273L85.1251 34.9008L84.8916 36.484C84.8916 36.484 86.0753 36.4188 86.2763 36.5024L86.2804 36.5003Z" fill="#FF8B66"/>
<path d="M88.189 37.0383C88.459 36.9853 88.7615 36.7204 88.9503 36.6532C89.1473 36.5819 89.2143 36.3944 89.3848 36.266C89.5574 36.1376 89.665 35.7505 89.665 35.7505C89.5168 35.8748 88.8042 36.0052 88.7493 36.0643C88.6945 36.1234 88.7798 36.1825 88.7554 36.3047C88.7311 36.425 88.4773 36.429 88.4935 36.5574C88.5077 36.6878 88.4976 36.8121 88.3169 36.8712C88.2397 36.8977 88.2093 36.967 88.191 37.0403L88.189 37.0383Z" fill="#EF6E4B"/>
<path d="M83.0846 25.75C84.3272 26.4061 84.7677 29.1386 84.6358 30.2471L83.2673 33.8946C83.2673 33.8946 83.5353 34.3856 83.316 34.4753L86.3007 34.5588C86.3007 34.5588 85.5372 35.3576 86.1179 36.9327C86.1179 36.9327 82.2176 38.1064 80.5466 36.9327C80.0634 36.5924 79.8035 35.6266 79.9253 34.9195C80.7822 29.9231 83.0846 25.752 83.0846 25.752V25.75Z" fill="#F4B71E"/>
<path d="M84.9785 41.9777C84.9785 41.9777 87.5591 41.7862 87.7215 41.9777C87.8819 42.1692 88.9296 43.3022 87.7215 44.0296C86.5135 44.7571 85.3054 44.6756 85.3054 44.6756L84.9785 41.9777Z" fill="#A3A5A8"/>
<path d="M90.9842 54.5054H94.0338C96.9514 54.5054 99.3188 57.6964 99.3188 61.6311C99.3188 65.5658 96.9535 68.7568 94.0338 68.7568H90.9842C88.0666 68.7568 85.6992 65.5658 85.6992 61.6311C85.6992 57.6964 88.0646 54.5054 90.9842 54.5054Z" fill="#2D2D2D"/>
<path d="M85.6992 61.6311C85.6992 65.5658 88.0646 68.7568 90.9842 68.7568C93.9039 68.7568 96.2692 65.5658 96.2692 61.6311C96.2692 57.6964 93.9039 54.5054 90.9842 54.5054C88.0646 54.5054 85.6992 57.6964 85.6992 61.6311Z" fill="#2D2D2D"/>
<path d="M87.3643 61.6313C87.3643 64.1132 88.8586 66.1264 90.7001 66.1264C90.8138 66.1264 90.9255 66.1183 91.0351 66.104H91.0412C92.7224 65.8738 94.0319 63.9583 94.0319 61.6313C94.0319 59.3043 92.7203 57.3889 91.0412 57.1586H91.0351C90.9255 57.1444 90.8138 57.1362 90.7001 57.1362C88.8586 57.1362 87.3643 59.1494 87.3643 61.6313Z" fill="#2D2D2D"/>
<path d="M88.0425 61.6309C88.0425 63.9579 89.3541 65.8733 91.0332 66.1036H91.0393C92.7204 65.8733 94.03 63.9579 94.03 61.6309C94.03 59.3039 92.7184 57.3885 91.0393 57.1582H91.0332C89.3521 57.3885 88.0425 59.3039 88.0425 61.6309Z" fill="#2D2D2D"/>
<path d="M90.3447 61.6312C90.3447 62.487 90.8604 63.1819 91.4939 63.1819C91.5325 63.1819 91.5711 63.1799 91.6096 63.1737C92.1883 63.0943 92.6411 62.4341 92.6411 61.6312C92.6411 60.8284 92.1883 60.1682 91.6096 60.0887C91.5711 60.0826 91.5325 60.0806 91.4939 60.0806C90.8584 60.0806 90.3447 60.7754 90.3447 61.6292V61.6312Z" fill="#2D2D2D"/>
<path d="M89.1551 59.0269C89.1551 59.0269 90.3449 59.9886 90.1845 60.9158C90.0058 61.9448 88.4181 61.9346 88.4181 61.9346C88.4181 61.9346 88.2191 60.1822 89.1551 59.0289V59.0269Z" fill="#2D2D2D"/>
<path d="M88.749 63.1796C88.749 63.1796 90.0403 62.8535 90.7002 63.1796C91.358 63.5056 90.7002 65.6472 90.7002 65.6472C90.7002 65.6472 89.0211 64.7588 88.749 63.1796Z" fill="#2D2D2D"/>
<path d="M92.1353 65.3762C92.1353 65.3762 91.7637 63.7725 92.3383 63.1816C92.9149 62.5886 93.5585 63.4058 93.5585 63.4058C93.5585 63.4058 93.2296 64.6487 92.1353 65.3782V65.3762Z" fill="#2D2D2D"/>
<path d="M92.7872 61.1972C92.507 60.2436 93.3212 59.292 93.3212 59.292C93.3212 59.292 93.8288 60.4372 93.8288 61.8065C93.8288 61.8065 93.0044 61.9348 92.7872 61.1952V61.1972Z" fill="#2D2D2D"/>
<path d="M92.509 58.2875C92.509 58.2875 92.174 59.5957 91.4958 59.6649C90.8157 59.7322 90.2065 57.9064 90.2065 57.9064C90.2065 57.9064 91.5019 56.8591 92.509 58.2895V58.2875Z" fill="#2D2D2D"/>
<path d="M64.2792 54.5054H67.3287C70.2464 54.5054 72.6138 57.6964 72.6138 61.6311C72.6138 65.5658 70.2484 68.7568 67.3287 68.7568H64.2792C61.3615 68.7568 58.9941 65.5658 58.9941 61.6311C58.9941 57.6964 61.3595 54.5054 64.2792 54.5054Z" fill="#2D2D2D"/>
<path d="M58.9941 61.6311C58.9941 65.5658 61.3595 68.7568 64.2792 68.7568C67.1988 68.7568 69.5642 65.5658 69.5642 61.6311C69.5642 57.6964 67.1988 54.5054 64.2792 54.5054C61.3595 54.5054 58.9941 57.6964 58.9941 61.6311Z" fill="#2D2D2D"/>
<path d="M60.6592 61.6313C60.6592 64.1132 62.1535 66.1264 63.9951 66.1264C64.1088 66.1264 64.2204 66.1183 64.3301 66.104H64.3362C66.0173 65.8738 67.3269 63.9583 67.3269 61.6313C67.3269 59.3043 66.0153 57.3889 64.3362 57.1586H64.3301C64.2204 57.1444 64.1088 57.1362 63.9951 57.1362C62.1535 57.1362 60.6592 59.1494 60.6592 61.6313Z" fill="#2D2D2D"/>
<path d="M61.3374 61.6309C61.3374 63.9579 62.649 65.8733 64.3301 66.1036H64.3362C66.0174 65.8733 67.3269 63.9579 67.3269 61.6309C67.3269 59.3039 66.0153 57.3885 64.3362 57.1582H64.3301C62.649 57.3885 61.3374 59.3039 61.3374 61.6309Z" fill="#2D2D2D"/>
<path d="M63.6396 61.6312C63.6396 62.487 64.1554 63.1819 64.7888 63.1819C64.8274 63.1819 64.866 63.1799 64.9046 63.1737H64.9066C65.4852 63.0943 65.938 62.4341 65.938 61.6312C65.938 60.8284 65.4852 60.1682 64.9066 60.0887H64.9046C64.866 60.0826 64.8274 60.0806 64.7888 60.0806C64.1533 60.0806 63.6396 60.7754 63.6396 61.6292V61.6312Z" fill="#2D2D2D"/>
<path d="M62.45 59.0269C62.45 59.0269 63.6398 59.9886 63.4794 60.9158C63.3008 61.9448 61.713 61.9346 61.713 61.9346C61.713 61.9346 61.514 60.1822 62.45 59.0289V59.0269Z" fill="#2D2D2D"/>
<path d="M62.0439 63.1796C62.0439 63.1796 63.3373 62.8535 63.9951 63.1796C64.6529 63.5056 63.9951 65.6472 63.9951 65.6472C63.9951 65.6472 62.316 64.7588 62.0439 63.1796Z" fill="#2D2D2D"/>
<path d="M65.4302 65.3762C65.4302 65.3762 65.0586 63.7725 65.6332 63.1816C66.2078 62.5886 66.8514 63.4058 66.8514 63.4058C66.8514 63.4058 66.5245 64.6487 65.4281 65.3782L65.4302 65.3762Z" fill="#2D2D2D"/>
<path d="M66.0821 61.1972C65.8019 60.2436 66.6161 59.292 66.6161 59.292C66.6161 59.292 67.1237 60.4372 67.1237 61.8065C67.1237 61.8065 66.2994 61.9348 66.0821 61.1952V61.1972Z" fill="#2D2D2D"/>
<path d="M65.8039 58.2875C65.8039 58.2875 65.4689 59.5957 64.7907 59.6649C64.1106 59.7322 63.5015 57.9064 63.5015 57.9064C63.5015 57.9064 64.7968 56.8591 65.8039 58.2895V58.2875Z" fill="#2D2D2D"/>
<path d="M22.854 50.8193H102.519V63.0372H48.8588C48.1055 63.6403 46.8772 64.0336 45.4843 64.0336C44.0915 64.0336 42.8611 63.6403 42.1099 63.0372H22.856V50.8193H22.854Z" fill="#2D2D2D"/>
<path d="M57.1605 54.5054H60.2101C63.1277 54.5054 65.4951 57.6964 65.4951 61.6311C65.4951 65.5658 63.1297 68.7568 60.2101 68.7568H57.1605C54.2429 68.7568 51.8755 65.5658 51.8755 61.6311C51.8755 57.6964 54.2408 54.5054 57.1605 54.5054Z" fill="#404041"/>
<path d="M51.8774 61.6311C51.8774 65.5658 54.2428 68.7568 57.1625 68.7568C60.0821 68.7568 62.4475 65.5658 62.4475 61.6311C62.4475 57.6964 60.0821 54.5054 57.1625 54.5054C54.2428 54.5054 51.8774 57.6964 51.8774 61.6311Z" fill="#58595B"/>
<path d="M53.5425 61.6313C53.5425 64.1132 55.0368 66.1264 56.8784 66.1264C56.9921 66.1264 57.1037 66.1183 57.2134 66.104H57.2195C58.9006 65.8738 60.2102 63.9583 60.2102 61.6313C60.2102 59.3043 58.8986 57.3889 57.2195 57.1586H57.2134C57.1037 57.1444 56.9921 57.1362 56.8784 57.1362C55.0368 57.1362 53.5425 59.1494 53.5425 61.6313Z" fill="#404041"/>
<path d="M54.2207 61.6309C54.2207 63.9579 55.5323 65.8733 57.2114 66.1036H57.2175C58.8986 65.8733 60.2082 63.9579 60.2082 61.6309C60.2082 59.3039 58.8966 57.3885 57.2175 57.1582H57.2114C55.5303 57.3885 54.2207 59.3039 54.2207 61.6309Z" fill="#6D6E70"/>
<path d="M56.5229 61.6312C56.5229 62.487 57.0387 63.1819 57.6721 63.1819C57.7107 63.1819 57.7493 63.1799 57.7879 63.1737C58.3665 63.0943 58.8193 62.4341 58.8193 61.6312C58.8193 60.8284 58.3665 60.1682 57.7879 60.0887C57.7493 60.0826 57.7107 60.0806 57.6721 60.0806C57.0366 60.0806 56.5229 60.7754 56.5229 61.6292V61.6312Z" fill="#404041"/>
<path d="M55.3314 59.0269C55.3314 59.0269 56.5212 59.9886 56.3608 60.9158C56.1821 61.9448 54.5944 61.9346 54.5944 61.9346C54.5944 61.9346 54.3954 60.1822 55.3314 59.0289V59.0269Z" fill="#404041"/>
<path d="M54.9253 63.1796C54.9253 63.1796 56.2166 62.8535 56.8744 63.1796C57.5323 63.5056 56.8744 65.6472 56.8744 65.6472C56.8744 65.6472 55.1953 64.7588 54.9253 63.1796Z" fill="#404041"/>
<path d="M58.314 65.3762C58.314 65.3762 57.9424 63.7725 58.517 63.1816C59.0936 62.5886 59.7372 63.4058 59.7372 63.4058C59.7372 63.4058 59.4083 64.6487 58.314 65.3782V65.3762Z" fill="#404041"/>
<path d="M58.9654 61.1972C58.6852 60.2436 59.4994 59.292 59.4994 59.292C59.4994 59.292 60.007 60.4372 60.007 61.8065C60.007 61.8065 59.1806 61.9348 58.9654 61.1952V61.1972Z" fill="#404041"/>
<path d="M58.6852 58.2875C58.6852 58.2875 58.3502 59.5957 57.6721 59.6649C56.9919 59.7322 56.3828 57.9064 56.3828 57.9064C56.3828 57.9064 57.6782 56.8591 58.6852 58.2895V58.2875Z" fill="#404041"/>
<path d="M30.4554 54.5054H33.505C36.4226 54.5054 38.79 57.6964 38.79 61.6311C38.79 65.5658 36.4247 68.7568 33.505 68.7568H30.4554C27.5378 68.7568 25.1704 65.5658 25.1704 61.6311C25.1704 57.6964 27.5358 54.5054 30.4554 54.5054Z" fill="#404041"/>
<path d="M25.1724 61.6311C25.1724 65.5658 27.5377 68.7568 30.4574 68.7568C33.377 68.7568 35.7424 65.5658 35.7424 61.6311C35.7424 57.6964 33.377 54.5054 30.4574 54.5054C27.5377 54.5054 25.1724 57.6964 25.1724 61.6311Z" fill="#58595B"/>
<path d="M26.8354 61.6313C26.8354 64.1132 28.3298 66.1264 30.1713 66.1264C30.285 66.1264 30.3967 66.1183 30.5063 66.104H30.5124C32.1936 65.8738 33.5031 63.9583 33.5031 61.6313C33.5031 59.3043 32.1915 57.3889 30.5124 57.1586H30.5063C30.3967 57.1444 30.285 57.1362 30.1713 57.1362C28.3298 57.1362 26.8354 59.1494 26.8354 61.6313Z" fill="#404041"/>
<path d="M27.5156 61.6309C27.5156 63.9579 28.8272 65.8733 30.5084 66.1036H30.5145C32.1956 65.8733 33.5052 63.9579 33.5052 61.6309C33.5052 59.3039 32.1936 57.3885 30.5145 57.1582H30.5084C28.8272 57.3885 27.5156 59.3039 27.5156 61.6309Z" fill="#6D6E70"/>
<path d="M29.8179 61.6312C29.8179 62.487 30.3336 63.1819 30.9671 63.1819C31.0056 63.1819 31.0442 63.1799 31.0828 63.1737C31.6614 63.0943 32.1142 62.4341 32.1142 61.6312C32.1142 60.8284 31.6614 60.1682 31.0828 60.0887C31.0442 60.0826 31.0056 60.0806 30.9671 60.0806C30.3316 60.0806 29.8179 60.7754 29.8179 61.6292V61.6312Z" fill="#404041"/>
<path d="M28.6259 59.0269C28.6259 59.0269 29.8157 59.9886 29.6553 60.9158C29.4766 61.9448 27.8889 61.9346 27.8889 61.9346C27.8889 61.9346 27.692 60.1822 28.6259 59.0289V59.0269Z" fill="#404041"/>
<path d="M28.2202 63.1796C28.2202 63.1796 29.5115 62.8535 30.1714 63.1796C30.8292 63.5056 30.1714 65.6472 30.1714 65.6472C30.1714 65.6472 28.4923 64.7588 28.2202 63.1796Z" fill="#404041"/>
<path d="M31.6064 65.3762C31.6064 65.3762 31.2349 63.7725 31.8095 63.1816C32.3841 62.5886 33.0277 63.4058 33.0277 63.4058C33.0277 63.4058 32.7008 64.6487 31.6044 65.3782L31.6064 65.3762Z" fill="#404041"/>
<path d="M32.2603 61.1972C31.9802 60.2436 32.7943 59.292 32.7943 59.292C32.7943 59.292 33.3019 60.4372 33.3019 61.8065C33.3019 61.8065 32.4776 61.9348 32.2603 61.1952V61.1972Z" fill="#404041"/>
<path d="M31.9802 58.2875C31.9802 58.2875 31.6451 59.5957 30.967 59.6649C30.2868 59.7322 29.6777 57.9064 29.6777 57.9064C29.6777 57.9064 30.9731 56.8591 31.9802 58.2895V58.2875Z" fill="#404041"/>
<path d="M21.2233 59.8154H24.1105C25.1256 56.0233 27.9153 53.2928 31.1883 53.2928C34.4612 53.2928 37.253 56.0233 38.2661 59.8154H50.6837C51.6989 56.0233 54.4886 53.2928 57.7616 53.2928C61.0345 53.2928 63.8262 56.0233 64.8394 59.8154H106.965C106.965 59.8154 106.342 51.9296 104.145 50.4136C100.371 47.8074 87.4758 44.8182 87.4758 44.8182C87.4758 44.8182 78.6255 34.4424 77.8113 34.3344C69.5965 33.2402 45.3175 32.7552 39.9614 34.3344C39.7787 34.3874 39.5757 34.4872 39.3584 34.6237H39.3564C36.6438 36.3048 33.0379 43.7015 33.0379 43.7015C33.0379 43.7015 26.5956 44.4025 24.5003 45.026C22.409 45.6495 21.2192 59.8195 21.2192 59.8195L21.2233 59.8154Z" fill="#F9D964"/>
<path d="M21.2236 59.8158H24.1108C24.326 59.0109 24.6204 58.2549 24.9879 57.5601C25.0772 57.3808 25.1767 57.2055 25.2803 57.0364C25.5747 56.5433 25.9077 56.0909 26.2731 55.6814C26.5513 55.3635 26.8497 55.0762 27.1644 54.8154C28.3258 53.8495 29.7085 53.2932 31.1886 53.2932C33.0728 53.2932 34.7986 54.1979 36.1122 55.6895C36.4858 56.1093 36.8249 56.5739 37.1254 57.0812C37.6127 57.9004 38.0025 58.8214 38.2685 59.8158H50.6861C50.9196 58.9355 51.2505 58.1143 51.6647 57.3686C52.0079 56.745 52.4058 56.1765 52.8566 55.6732C53.0738 55.4226 53.3073 55.1903 53.5509 54.9763C54.1113 54.4791 54.7265 54.0777 55.3843 53.7924C56.1335 53.4685 56.9335 53.2912 57.766 53.2912C59.2339 53.2912 60.6044 53.8393 61.7617 54.7889C62.0845 55.0538 62.3931 55.3492 62.6794 55.6732C63.658 56.7736 64.4113 58.1979 64.8438 59.8117H74.7966C74.7966 59.8117 74.6768 54.0879 72.7256 52.2887C70.7765 50.4874 58.2471 45.6071 58.2471 45.6071C58.2471 45.6071 57.1954 35.6735 56.5071 34.8951C55.6117 33.8844 43.7179 33.7377 39.3608 34.618H39.3588C36.6462 36.2991 32.752 42.571 32.752 42.571C32.752 42.571 26.598 44.3968 24.5047 45.0203C23.6804 45.2648 22.9982 47.6081 22.4703 50.359C22.2571 51.4736 22.0723 52.6554 21.9119 53.7924C21.8185 54.4445 21.7353 55.0823 21.6642 55.6834C21.4246 57.6233 21.2805 59.1841 21.2358 59.663C21.2277 59.7608 21.2236 59.8138 21.2236 59.8138V59.8158Z" fill="#F4B71E"/>
<path d="M105.079 51.561C105.079 51.561 102.458 51.8687 101.412 52.5167C100.364 53.1626 100.769 58.0123 100.769 58.0123H106.766C106.766 58.0123 106.626 52.7592 105.079 51.561Z" fill="#C4F1F7"/>
<path d="M71.6657 51.561C71.6657 51.561 80.0287 51.8687 81.0744 52.5167C82.122 53.1626 82.6053 58.0123 82.6053 58.0123H70.3866C70.3866 58.0123 70.1206 52.7592 71.6657 51.561Z" fill="#C4F1F7"/>
<path d="M104.795 52.0095C104.795 52.0095 105.51 53.116 105.619 54.6789C105.759 56.6982 105.719 57.6681 105.719 57.6681H106.444C106.444 57.6681 106.243 52.7186 105.175 51.9097L104.793 52.0095H104.795Z" fill="#ED5A28"/>
<path d="M102.641 54.4893C102.641 55.5876 103.264 56.478 104.031 56.478C104.484 56.478 104.884 56.1703 105.136 55.6915C104.933 55.9706 104.655 56.1398 104.348 56.1398C103.711 56.1398 103.193 55.4001 103.193 54.4893C103.193 53.5784 103.711 52.8387 104.348 52.8387C104.655 52.8387 104.933 53.0079 105.136 53.287C104.884 52.8102 104.484 52.5005 104.031 52.5005C103.264 52.5005 102.641 53.391 102.641 54.4893Z" fill="white"/>
<path d="M101.25 56.6573C101.25 57.2156 101.567 57.6659 101.957 57.6659C102.186 57.6659 102.389 57.509 102.517 57.2665C102.413 57.4092 102.273 57.4947 102.117 57.4947C101.794 57.4947 101.53 57.1198 101.53 56.6552C101.53 56.1906 101.792 55.8157 102.117 55.8157C102.273 55.8157 102.413 55.9013 102.517 56.0439C102.389 55.8014 102.186 55.6445 101.957 55.6445C101.567 55.6445 101.25 56.0969 101.25 56.6552V56.6573Z" fill="white"/>
<path d="M76.0654 54.4893C76.0654 55.5876 76.6887 56.478 77.4562 56.478C77.909 56.478 78.309 56.1703 78.5607 55.6915C78.3577 55.9706 78.0795 56.1398 77.773 56.1398C77.1354 56.1398 76.6177 55.4001 76.6177 54.4893C76.6177 53.5784 77.1354 52.8387 77.773 52.8387C78.0795 52.8387 78.3577 53.0079 78.5607 53.287C78.309 52.8102 77.909 52.5005 77.4562 52.5005C76.6887 52.5005 76.0654 53.391 76.0654 54.4893Z" fill="white"/>
<path d="M79.5068 56.6573C79.5068 57.2156 79.8236 57.6659 80.2134 57.6659C80.4428 57.6659 80.6459 57.509 80.7738 57.2665C80.6702 57.4092 80.5301 57.4947 80.3738 57.4947C80.051 57.4947 79.787 57.1198 79.787 56.6552C79.787 56.1906 80.0489 55.8157 80.3738 55.8157C80.5301 55.8157 80.6702 55.9013 80.7738 56.0439C80.6459 55.8014 80.4428 55.6445 80.2134 55.6445C79.8236 55.6445 79.5068 56.0969 79.5068 56.6552V56.6573Z" fill="white"/>
<path d="M71.9577 51.7871C71.9577 51.7871 74.5545 51.9685 74.7961 52.0907C75.0377 52.213 75.5819 57.6678 75.5819 57.6678H70.8715C70.8715 57.6678 70.7517 53.6679 71.9577 51.7871Z" fill="#ED5A28"/>
<path d="M82.6071 52.8384L82.7228 53.3865L82.7736 53.629L82.8426 53.9611L82.9319 54.385L82.9989 54.7151L83.0883 55.1348L83.1553 55.4629L83.2446 55.8827L83.3116 56.2046L83.3989 56.6162L83.4659 56.9382L83.5512 57.3477L83.6182 57.6677L83.6913 58.012H99.8773V52.8384C99.8773 52.8384 97.0612 53.3233 92.8705 53.3233C88.6799 53.3233 82.603 52.8384 82.603 52.8384H82.6071Z" fill="#F4B71E"/>
<path d="M82.7227 53.3864L83.6932 58.0119H99.1544V53.3232C99.1544 53.3232 96.3383 53.8082 92.1476 53.8082C88.9072 53.8082 84.5318 53.5168 82.7207 53.3864H82.7227Z" fill="#DC933F"/>
<path d="M82.7735 53.6288L82.8425 53.9609C88.5072 54.4968 94.2166 54.4927 99.8793 53.9487V53.6206C94.1922 54.2156 88.4585 54.2176 82.7715 53.6288H82.7735Z" fill="#F9D964"/>
<path d="M82.9316 54.3847L82.9986 54.7148C88.6126 55.1285 94.261 55.1224 99.879 54.6924V54.3623C94.2427 54.8452 88.5679 54.8513 82.9316 54.3847Z" fill="#F9D964"/>
<path d="M83.0904 55.1344L83.1574 55.4625C88.7246 55.7661 94.3142 55.7559 99.8794 55.436V55.1079C94.2919 55.4788 88.6759 55.4869 83.0884 55.1344H83.0904Z" fill="#F9D964"/>
<path d="M83.2466 55.8806L83.3136 56.2025C88.8301 56.3981 94.3607 56.392 99.8792 56.1781V55.8521C94.3425 56.1108 88.7854 56.119 83.2466 55.8785V55.8806Z" fill="#F9D964"/>
<path d="M83.4009 56.6159L83.4679 56.9379C88.9356 57.0316 94.4115 57.0296 99.8792 56.9236V56.5996C94.3912 56.7504 88.8889 56.7565 83.4009 56.6159Z" fill="#F9D964"/>
<path d="M83.5532 57.3473L83.6202 57.6673H99.8793V57.3433C94.438 57.3861 88.9925 57.3901 83.5532 57.3473Z" fill="#F9D964"/>
<path d="M81.801 51.5609C81.801 51.5609 68.5671 45.6252 62.2324 45.126C62.2324 45.126 73.712 48.1784 80.4122 51.5609H81.801Z" fill="#F4B71E"/>
<path d="M99.8793 52.213C99.8793 52.213 92.6837 47.131 84.9785 45.126C84.9785 45.126 92.8827 46.7581 100.689 51.9094L99.8793 52.213Z" fill="#F4B71E"/>
<path d="M65.737 58.0122H107.17C107.704 58.0122 108.137 58.4462 108.137 58.9821V63.0636C108.137 63.5995 107.704 64.0335 107.17 64.0335H65.737C65.203 64.0335 64.7705 63.5995 64.7705 63.0636V58.9821C64.7705 58.4462 65.203 58.0122 65.737 58.0122Z" fill="white"/>
<path d="M65.737 58.0122H73.5883C74.1223 58.0122 74.5548 58.4462 74.5548 58.9821V63.0636C74.5548 63.5995 74.1223 64.0335 73.5883 64.0335H65.737C65.203 64.0335 64.7705 63.5995 64.7705 63.0636V58.9821C64.7705 58.4462 65.203 58.0122 65.737 58.0122Z" fill="#C4F1F7"/>
<path d="M98.2308 58.5767H86.5137V63.5465H98.2308V58.5767Z" fill="#8F9194"/>
<path d="M38.195 61.8144H50.6878L50.9294 59.0269H37.9554C37.9554 59.0269 37.7138 60.4206 38.197 61.8144H38.195Z" fill="#DC933F"/>
<path d="M21.2354 59.6648H22.884C23.1987 51.9482 24.2626 51.3022 23.822 50.8173C23.554 50.5239 22.9266 50.4077 22.4718 50.3608C21.745 54.1774 21.3166 58.7805 21.2374 59.6648H21.2354Z" fill="#ED5A28"/>
<path d="M21.0407 58.0122H22.8517C23.3857 58.0122 23.8182 58.4462 23.8182 58.9821V63.0636C23.8182 63.5995 23.3857 64.0335 22.8517 64.0335H21.0407C20.5067 64.0335 20.0742 63.5995 20.0742 63.0636V58.9821C20.0742 58.4462 20.5067 58.0122 21.0407 58.0122Z" fill="#C4F1F7"/>
<path d="M57.1607 45.609C57.1607 45.609 57.1059 45.7109 57.0287 45.8963C56.9475 46.0817 56.846 46.3507 56.7363 46.6808C56.6876 46.8479 56.6348 47.0272 56.58 47.2167C56.5211 47.4062 56.4704 47.61 56.4277 47.8219C56.383 48.0338 56.3343 48.2518 56.2876 48.476C56.2531 48.7001 56.2186 48.9283 56.1841 49.1566C56.1556 49.3848 56.115 49.613 56.0968 49.8392C56.0805 50.0653 56.0643 50.2895 56.048 50.5055C56.0318 50.7215 56.0216 50.9293 56.0115 51.127C56.0054 51.3246 56.0115 51.5121 56.0115 51.6853C56.0115 52.0317 56.0277 52.319 56.0318 52.5207C56.0399 52.7225 56.046 52.8366 56.046 52.8366C56.046 52.8366 56.0582 52.7225 56.0785 52.5207C56.0947 52.319 56.1272 52.0337 56.1475 51.6914C56.1597 51.5202 56.1678 51.3348 56.1881 51.1372C56.2125 50.9415 56.2389 50.7357 56.2612 50.5218C56.2836 50.3078 56.3059 50.0878 56.3282 49.8636C56.3506 49.6395 56.3932 49.4153 56.4237 49.1892C56.4541 48.963 56.4866 48.7368 56.5171 48.5126C56.5577 48.2905 56.5983 48.0745 56.6348 47.8626C56.6734 47.6507 56.7038 47.4469 56.7505 47.2554C56.7911 47.0639 56.8318 46.8805 56.8663 46.7134C56.9089 46.5463 56.9455 46.3935 56.98 46.259C57.0104 46.1225 57.0449 46.0063 57.0734 45.9105C57.1262 45.717 57.1627 45.6069 57.1627 45.6069L57.1607 45.609Z" fill="#DC933F"/>
<path d="M44.8791 44.6758C44.8791 44.6758 44.7776 44.8612 44.6375 45.2056C44.5603 45.3747 44.4913 45.5887 44.404 45.8332C44.3187 46.0777 44.2152 46.3507 44.1421 46.6605C44.0588 46.9682 43.9695 47.3003 43.8741 47.6528C43.7969 48.0094 43.7198 48.3864 43.6446 48.7776C43.5695 49.1688 43.4842 49.5723 43.4396 49.9859C43.3827 50.3996 43.3279 50.8193 43.271 51.2411C43.2467 51.451 43.2162 51.6629 43.1959 51.8728C43.1817 52.0827 43.1675 52.2946 43.1533 52.5025C43.1249 52.9181 43.0964 53.3277 43.07 53.7251C43.0457 54.1224 43.0112 54.5055 43.0132 54.8682C43.0132 55.2329 43.0112 55.5773 43.0091 55.8952C43.0051 56.5309 43.0172 57.0607 43.0172 57.4316C43.0233 57.8024 43.0274 58.0123 43.0274 58.0123C43.0274 58.0123 43.0416 57.8004 43.0639 57.4316C43.0822 57.0607 43.1188 56.533 43.1452 55.8993C43.1594 55.5834 43.1736 55.2391 43.1898 54.8763C43.202 54.5136 43.2548 54.1326 43.2812 53.7373C43.3137 53.342 43.3462 52.9344 43.3807 52.5208C43.3969 52.313 43.4132 52.1051 43.4314 51.8952C43.4538 51.6874 43.4863 51.4775 43.5127 51.2676C43.5634 50.8479 43.6142 50.4302 43.6649 50.0185C43.7055 49.6049 43.7827 49.2035 43.8538 48.8143C43.9208 48.4251 43.9857 48.0481 44.0487 47.6915C44.1299 47.339 44.205 47.0048 44.2761 46.6951C44.341 46.3854 44.4223 46.1083 44.4933 45.8597C44.5644 45.6131 44.6192 45.393 44.6842 45.2219C44.7471 45.0487 44.7877 44.9081 44.8243 44.8164C44.8608 44.7247 44.8811 44.6758 44.8811 44.6758H44.8791Z" fill="#DC933F"/>
<path d="M33.3018 43.7935C33.3018 43.7935 33.2369 43.9158 33.1435 44.1399C33.0947 44.252 33.0399 44.3885 32.9831 44.5475C32.9262 44.7064 32.8552 44.8857 32.7963 45.0854C32.7394 45.2851 32.6765 45.5031 32.6115 45.7314C32.5405 45.9596 32.4917 46.2061 32.4349 46.4608C32.3821 46.7156 32.3192 46.9784 32.2725 47.2474C32.2318 47.5184 32.1933 47.7935 32.1527 48.0686C32.1202 48.3437 32.0674 48.6187 32.0532 48.8918C32.0329 49.1648 32.0146 49.4318 31.9963 49.6926C31.9801 49.9514 31.9659 50.204 31.9517 50.4404C31.9517 50.6788 31.9517 50.905 31.9517 51.1128C31.9517 51.5285 31.9659 51.8749 31.9679 52.1174C31.976 52.3599 31.9801 52.4985 31.9801 52.4985C31.9801 52.4985 31.9923 52.3599 32.0146 52.1195C32.0308 51.877 32.0654 51.5326 32.0877 51.119C32.0999 50.9132 32.1121 50.689 32.1263 50.4506C32.1527 50.2142 32.1791 49.9656 32.2075 49.7089C32.2318 49.4521 32.2582 49.1852 32.2846 48.9162C32.3009 48.6452 32.3577 48.3742 32.3922 48.1012C32.4288 47.8281 32.4674 47.5551 32.5039 47.2861C32.5506 47.0192 32.5993 46.7563 32.644 46.5036C32.6948 46.251 32.7252 46.0024 32.7821 45.7721C32.8328 45.5419 32.8816 45.3218 32.9262 45.1201C32.975 44.9183 33.0277 44.737 33.0684 44.574C33.109 44.411 33.1496 44.2704 33.1861 44.1542C33.2551 43.9219 33.3018 43.7915 33.3018 43.7915V43.7935Z" fill="#DC933F"/>
<path d="M27.3001 52.1786C27.2331 52.1052 27.2006 52.0074 27.2087 51.9035L27.3996 49.713C27.4179 49.5112 27.5965 49.3462 27.7975 49.3462H29.9802C30.0817 49.3462 30.1751 49.3869 30.2421 49.4603C30.3091 49.5337 30.3416 49.6315 30.3335 49.7354L30.1426 51.9259C30.1243 52.1317 29.9497 52.2927 29.7447 52.2927H27.562C27.4605 52.2927 27.3671 52.2519 27.2981 52.1786H27.3001ZM27.7996 49.5887C27.7204 49.5887 27.6493 49.6559 27.6412 49.7354L27.4504 51.9259C27.4463 51.9605 27.4564 51.9931 27.4788 52.0155C27.4991 52.038 27.5295 52.0502 27.5641 52.0502H29.7467C29.8259 52.0502 29.8969 51.9829 29.9051 51.9035L30.0959 49.713C30.1 49.6783 30.0878 49.6457 30.0675 49.6233C30.0472 49.6009 30.0167 49.5887 29.9822 49.5887H27.7996Z" fill="#DC933F"/>
<path d="M45.7441 47.1411C45.7441 47.1411 47.8577 47.0596 48.2211 47.3021L48.01 48.1457H45.5228C45.5228 48.1457 45.4822 47.4223 45.7441 47.1391V47.1411Z" fill="#DC933F"/>
<path d="M33.7285 47.1411C33.7285 47.1411 35.8421 47.0596 36.2055 47.3021L35.9943 48.1457H33.5072C33.5072 48.1457 33.4665 47.4223 33.7285 47.1391V47.1411Z" fill="#DC933F"/>
<path d="M58.0013 39.0925C58.0764 39.6182 58.1637 40.1664 58.2551 40.7104C58.6226 42.8704 59.0713 44.9202 59.0713 44.9202C59.0713 44.9202 61.3899 45.0934 64.7075 45.2667C65.3491 45.2993 66.0293 45.3319 66.7338 45.3645H66.7358C68.9997 45.4684 71.5498 45.558 74.0715 45.5947C76.0024 45.6212 77.915 45.6171 79.6692 45.5642C80.6316 45.5356 81.5412 45.4888 82.3818 45.4256C82.6274 45.4093 82.867 45.3869 83.0985 45.3645C84.538 45.232 85.7217 45.0344 86.5115 44.7593C86.5115 44.7593 84.5542 42.2978 82.4406 39.9076H82.4386C80.9138 38.1756 79.3078 36.4884 78.2987 35.7874C78.2987 35.7874 77.651 35.763 76.5892 35.7263C74.9628 35.6733 72.362 35.5959 69.6068 35.5388C69.223 35.5307 68.8332 35.5246 68.4454 35.5164C67.5541 35.5021 66.6546 35.4899 65.7836 35.4818C63.5076 35.4634 61.394 35.4777 59.92 35.5551C58.9758 35.604 58.2936 35.6794 58.0074 35.7854C57.6642 35.9138 57.7617 37.3727 58.0033 39.0925H58.0013Z" fill="#6383EA"/>
<path d="M45.7441 44.0297L48.1826 44.1723L50.5906 44.3129L51.6504 44.3761L56.7954 44.6776C56.7954 44.6776 56.3385 41.6395 55.9345 39.1128C55.8411 38.5239 55.7497 37.9635 55.6685 37.4765C55.5122 36.5372 55.3883 35.8708 55.3457 35.7873C55.2868 35.6732 54.2229 35.5998 52.8747 35.555C52.1621 35.5306 51.3703 35.5142 50.6068 35.5041C48.7572 35.4755 47.072 35.4776 47.072 35.4776C47.072 35.4776 46.6558 37.2239 46.1928 40.4719C46.1583 40.694 46.1279 40.9222 46.0954 41.1606C46.0345 41.5967 45.9736 42.0572 45.9147 42.5401C45.8558 43.0149 45.801 43.5121 45.7441 44.0317V44.0297Z" fill="#6383EA"/>
<path d="M34.167 43.4653L41.9636 43.885L44.6578 44.0297C44.6578 44.0297 44.7878 43.1474 45.005 41.8881C45.0741 41.4826 45.1553 41.0364 45.2426 40.5698C45.2852 40.3497 45.3299 40.1215 45.3725 39.8912C45.6649 38.3915 46.0222 36.7532 46.41 35.4756C46.41 35.4756 41.7646 35.5265 39.5657 35.875C39.2754 35.9218 39.0297 35.9728 38.8409 36.0278C38.786 36.0441 38.7292 36.0665 38.6723 36.0971C38.4165 36.2336 38.1282 36.5066 37.8298 36.8673C37.2349 37.5846 36.5872 38.6543 36.0045 39.7262C34.9893 41.5927 34.169 43.4632 34.169 43.4632L34.167 43.4653Z" fill="#6383EA"/>
<path d="M59.918 35.555C64.0355 38.367 69.1013 41.9065 74.0716 45.5926C76.0024 45.6191 77.915 45.615 79.6693 45.562C75.0522 42.0348 70.1347 38.5117 65.7837 35.4837C63.5076 35.4654 61.394 35.4797 59.92 35.5571L59.918 35.555Z" fill="#84A8EF"/>
<path d="M76.5894 35.7241C78.4816 37.0506 80.4552 38.4566 82.4408 39.9013C80.916 38.1734 79.31 36.4842 78.3009 35.7852C78.3009 35.7852 77.6533 35.7608 76.5914 35.7241H76.5894Z" fill="#84A8EF"/>
<path d="M45.9166 42.5381C45.8578 43.0129 45.8029 43.5101 45.7461 44.0297L48.1845 44.1723C47.4252 43.6221 46.6679 43.074 45.9187 42.5381H45.9166Z" fill="#84A8EF"/>
<path d="M36.0025 39.728C37.8583 41.0036 39.8724 42.4055 41.9616 43.8848L44.6559 44.0295C44.6559 44.0295 44.7858 43.1472 45.0031 41.8879C42.4793 40.0887 40.0389 38.3892 37.8258 36.8691C37.2309 37.5864 36.5832 38.6562 36.0005 39.728H36.0025Z" fill="#84A8EF"/>
<path d="M68.4434 35.5161C72.5487 38.3261 77.519 41.8125 82.3817 45.4233C82.6274 45.407 82.867 45.3845 83.0985 45.3621C78.6357 41.9429 73.8746 38.5196 69.6047 35.5385C69.221 35.5304 68.8312 35.5243 68.4434 35.5161Z" fill="#84A8EF"/>
<path d="M46.1951 40.4697C46.1606 40.6918 46.1301 40.9201 46.0977 41.1585C47.5372 42.159 49.0478 43.2165 50.5908 44.3128L51.6507 44.3759C49.8031 43.0311 47.9656 41.7188 46.1931 40.4697H46.1951Z" fill="#84A8EF"/>
<path d="M38.6704 36.0991C40.5038 37.3257 42.7555 38.8499 45.2427 40.5697C45.2853 40.3496 45.33 40.1214 45.3726 39.8912C43.3098 38.4444 41.3464 37.0894 39.5658 35.877C39.2755 35.9238 39.0298 35.9748 38.841 36.0298C38.7861 36.0461 38.7293 36.0685 38.6724 36.0991H38.6704Z" fill="#84A8EF"/>
<path d="M66.734 45.3622C63.7697 43.1717 60.7851 41.0444 58.0015 39.0923C58.0766 39.618 58.1639 40.1661 58.2553 40.7102C60.2998 42.1284 62.4825 43.6648 64.7077 45.2664C65.3493 45.299 66.0295 45.3316 66.734 45.3642V45.3622Z" fill="#84A8EF"/>
<path d="M50.6069 35.502C52.1195 36.5126 53.9306 37.7352 55.9366 39.1127C55.8432 38.5238 55.7519 37.9635 55.6706 37.4765C54.7022 36.804 53.7662 36.1622 52.8748 35.5529C52.1622 35.5284 51.3703 35.5121 50.6069 35.502Z" fill="#84A8EF"/>
<path d="M57.1609 45.6087C57.1609 45.6087 57.0208 43.5588 56.7974 43.3816C56.5741 43.2043 55.1488 42.3301 54.9255 42.0876C54.7021 41.8452 51.017 42.0061 50.9277 42.4911C50.8384 42.9761 50.4952 44.431 51.2708 44.6734C52.0464 44.9159 54.9255 45.1238 54.9255 45.1238C54.9255 45.1238 56.0767 45.6067 57.1609 45.6067V45.6087Z" fill="#A3A5A8"/>
<path d="M36.1118 55.6895C36.4854 56.1092 36.8245 56.5738 37.125 57.0812V55.6915H36.1118V55.6895Z" fill="#6D6E70"/>
<path d="M39.0092 53.8125H37.125V55.7035H39.0092V53.8125Z" fill="#6D6E70"/>
<path d="M41.2304 55.6855H39.3462V57.5765H41.2304V55.6855Z" fill="#6D6E70"/>
<path d="M43.1146 53.8086H41.2305V55.6995H43.1146V53.8086Z" fill="#6D6E70"/>
<path d="M45.3358 55.6812H43.4517V57.5721H45.3358V55.6812Z" fill="#6D6E70"/>
<path d="M47.2201 53.8047H45.3359V55.6956H47.2201V53.8047Z" fill="#6D6E70"/>
<path d="M49.4413 55.6772H47.5571V57.5682H49.4413V55.6772Z" fill="#6D6E70"/>
<path d="M51.3256 53.8003H49.4414V55.6912H51.3256V53.8003Z" fill="#6D6E70"/>
<path d="M51.6626 55.6729V57.3702C52.0057 56.7467 52.4037 56.1782 52.8544 55.6749H51.6626V55.6729Z" fill="#6D6E70"/>
<path d="M53.5488 53.7964V54.9803C54.1092 54.4831 54.7244 54.0817 55.3822 53.7964H53.5488Z" fill="#6D6E70"/>
<path d="M61.7593 53.7881V54.7927C62.0821 55.0576 62.3907 55.353 62.677 55.677H63.6434V53.7881H61.7593Z" fill="#6D6E70"/>
<path d="M65.8646 55.6606H63.9805V57.5516H65.8646V55.6606Z" fill="#6D6E70"/>
<path d="M67.7489 53.7842H65.8647V55.6751H67.7489V53.7842Z" fill="#6D6E70"/>
<path d="M69.9721 55.6567H68.0879V57.5477H69.9721V55.6567Z" fill="#6D6E70"/>
<path d="M23.3979 55.6709V57.5598H24.9877C25.0771 57.3825 25.1765 57.2073 25.2801 57.0382V55.6709H23.3979Z" fill="#6D6E70"/>
<path d="M25.2803 55.6711V55.6833H26.2731C26.5513 55.3655 26.8497 55.0782 27.1644 54.8173V53.7944H25.2823L25.2803 55.6711Z" fill="#6D6E70"/>
<path d="M50.9297 33.3748L59.0917 33.4604L60.0074 33.4706H64.7706L61.3373 26.895H54.2189L50.9297 33.3748Z" fill="#B6E2EB"/>
<path d="M59.0913 33.4604L60.007 33.4706H64.7702L61.3369 26.895H60.21L59.0913 33.4604Z" fill="#C4F1F7"/>
<path d="M125.588 21.2205C126.759 21.1838 128.18 21.5995 128.333 23.0075C128.485 24.4155 127.726 25.7543 128.463 27.0013C129.2 28.2484 129.687 28.9249 129.36 30.0374C129.033 31.15 123.403 31.2947 122.368 29.634C121.332 27.9712 122.506 25.8276 122.368 24.3707C122.229 22.9158 125.588 21.2205 125.588 21.2205Z" fill="#58595B"/>
<path d="M120.25 30.6484C120.25 30.6484 118.211 33.332 117.45 33.9658C116.686 34.6015 116.451 36.794 117.421 36.3702C118.392 35.9464 120.78 32.682 120.78 32.682L120.25 30.6484Z" fill="#EF6E4B"/>
<path d="M118.735 32.9043C118.822 33.8701 119.438 35.2598 120.295 35.5064C120.295 35.5064 120.301 35.5064 120.303 35.5064C120.498 35.5614 120.697 35.4228 120.889 35.1498C120.924 35.1009 120.958 35.0479 120.995 34.9908C121.08 34.8462 121.166 34.6791 121.251 34.4896C121.277 34.4325 121.302 34.3714 121.326 34.3102C121.413 34.1024 121.498 33.8701 121.582 33.6297C121.6 33.5746 121.62 33.5176 121.639 33.4605C121.639 33.4565 121.639 33.4544 121.643 33.4524C121.746 33.1406 121.872 32.8085 122.014 32.4702C122.039 32.4152 122.063 32.3582 122.085 32.3011C122.138 32.1748 122.193 32.0505 122.252 31.9241C122.278 31.8671 122.303 31.81 122.327 31.755C122.422 31.5472 122.52 31.3434 122.617 31.1437C122.646 31.0867 122.672 31.0296 122.7 30.9746C122.767 30.8381 122.832 30.7056 122.899 30.5752C122.928 30.5202 122.954 30.4652 122.983 30.4102C123.511 29.3832 123.961 28.6089 123.961 28.6089C123.961 28.6089 123.943 28.6048 123.909 28.5987C123.559 28.5273 121.626 28.1545 121.141 28.4988C121.137 28.4988 121.135 28.5029 121.131 28.507C121.08 28.5436 121.023 28.6027 120.965 28.6761C120.853 28.8147 120.725 29.0062 120.589 29.2344C120.546 29.3037 120.504 29.3791 120.461 29.4565C120.339 29.6664 120.215 29.8946 120.087 30.1269C120.055 30.186 120.02 30.2471 119.99 30.3062C119.882 30.5018 119.777 30.6975 119.673 30.8829C119.639 30.9481 119.604 31.0092 119.566 31.0704C119.419 31.3291 119.281 31.5614 119.155 31.7428C119.117 31.7978 119.08 31.8508 119.046 31.8936C118.997 31.9506 118.956 31.9995 118.916 32.0362C118.865 32.0831 118.825 32.1483 118.794 32.2277C118.755 32.3296 118.735 32.456 118.729 32.5966C118.725 32.6944 118.729 32.7983 118.739 32.9063L118.735 32.9043Z" fill="#CE364C"/>
<path d="M118.735 32.9044C118.823 33.8743 119.442 35.2681 120.301 35.5085C120.762 35.6389 121.231 34.6914 121.637 33.4627C121.46 31.7144 121.078 30.1841 121.078 30.1841C120.437 30.8056 119.531 31.8509 118.733 32.9044H118.735Z" fill="#AF2243"/>
<path d="M113.416 68.7447C113.761 68.4655 114.644 67.2694 114.827 66.6683C115.083 65.8186 115.387 64.651 115.698 63.3774H117.022C116.587 64.7651 116.309 65.9266 116.185 66.4502C116.189 66.5379 116.21 66.6112 116.234 66.6948C116.271 66.8231 116.346 68.7548 116.346 68.7548H113.381C113.394 68.7508 113.402 68.7487 113.408 68.7467C113.414 68.7467 113.414 68.7467 113.416 68.7426V68.7447Z" fill="#EF6E4B"/>
<path d="M123.352 63.3775H124.918C124.625 64.9954 124.396 66.3688 124.396 66.3688V68.7549H122.69C122.855 68.0397 123.328 65.8981 123.328 64.9954C123.328 64.4656 123.336 63.9236 123.35 63.3755L123.352 63.3775Z" fill="#FF8B66"/>
<path d="M115.331 64.8447C116.26 61.2523 117.412 55.8158 117.562 54.9152C117.659 54.3324 117.745 52.4863 117.974 50.2183C118.033 47.6325 118.331 41.7213 119.777 38.3652L123.184 38.4447C123.046 41.11 125.62 43.9851 122.486 47.0681C122.077 48.2194 120.725 52.1215 120.528 53.8413C120.297 55.8688 119.919 56.7695 118.752 59.0313C117.741 60.9895 117.024 63.2716 116.595 64.8447H115.333H115.331Z" fill="#5174CE"/>
<path d="M126.875 50.0574C126.656 51.1924 126.347 51.9524 126.177 52.9081C125.929 54.2998 126.633 56.313 125.923 58.5544C125.586 59.614 124.956 63.1168 124.621 65.0526H123.328C123.328 65.0342 123.328 65.0159 123.328 64.9976C123.328 60.2844 123.976 54.6666 123.88 52.5291C123.84 51.6284 123.687 50.3508 123.525 49.1893C123.525 49.1832 123.023 45.8088 122.536 45.5256C120.538 44.3662 119.775 38.3652 119.775 38.3652L124.873 38.6036C124.873 38.6036 127.844 41.0794 127.064 45.4889C127.064 45.4889 127.066 45.5338 127.072 45.6132C127.196 47.6896 127.072 49.0283 126.877 50.0574H126.875Z" fill="#6383EA"/>
<path d="M116.494 68.7568C116.494 68.7568 116.624 66.9881 116.281 66.5256C116.281 66.5256 115.899 67.1328 115.377 67.1328C115.038 67.1328 114.9 66.3483 114.61 66.5256C114.356 66.6805 114.183 67.1226 113.499 67.575C112.815 68.0274 112.258 67.899 112.216 68.7568H116.492H116.494Z" fill="#CE364C"/>
<path d="M124.639 66.9107C124.639 66.9107 124.619 66.3239 123.805 66.3911C122.993 66.4584 123.052 67.0513 123.052 67.0513C123.052 67.0513 122.93 66.9555 122.822 67.0513C122.715 67.1471 122.806 67.9621 122.601 68.1333C122.396 68.3045 122.459 68.7548 122.459 68.7548H124.832C124.832 68.7548 124.96 68.1761 124.725 67.9601C124.489 67.7462 125.088 66.9739 124.639 66.9087V66.9107Z" fill="#CE364C"/>
<path d="M118.876 40.7062C118.876 40.7062 119.84 43.5488 123.687 45.3847C127.23 47.078 128.439 46.7805 128.439 46.7805C128.439 46.7805 128.264 46.1692 128.069 45.1748C128.059 45.1137 128.045 45.0505 128.032 44.9894C127.935 44.4678 127.833 43.8544 127.748 43.1779C127.74 43.1168 127.734 43.0557 127.726 42.9925C127.671 42.5218 127.624 42.0205 127.594 41.503C127.59 41.4398 127.586 41.3766 127.584 41.3135C127.563 40.9344 127.553 40.5473 127.551 40.152C127.551 40.0909 127.551 40.0277 127.551 39.9645C127.551 39.8667 127.551 39.7689 127.551 39.6691C127.557 39.4001 127.592 39.0883 127.645 38.7419C127.651 38.7093 127.655 38.6747 127.661 38.64C127.718 38.2957 127.793 37.9228 127.88 37.5275C127.972 37.0996 128.077 36.6472 128.183 36.1785C128.197 36.1154 128.211 36.0522 128.225 35.9911C128.292 35.6936 128.357 35.392 128.42 35.0884C128.432 35.0293 128.445 34.9682 128.457 34.907C128.499 34.7012 128.54 34.4954 128.579 34.2876C128.589 34.2264 128.601 34.1633 128.611 34.1021C128.662 33.823 128.705 33.5479 128.743 33.2769C128.751 33.2117 128.759 33.1485 128.767 33.0833C128.796 32.8755 128.816 32.6697 128.832 32.4679C128.839 32.4027 128.841 32.3416 128.845 32.2784C128.865 31.9646 128.871 31.661 128.857 31.3717C128.857 31.3085 128.851 31.2453 128.847 31.1842C128.826 30.9152 128.788 30.6585 128.729 30.4221C128.603 29.9147 128.382 29.4929 128.032 29.1914C127.915 29.0895 127.785 29.008 127.663 28.9163C127.22 28.578 125.35 28.5332 123.905 28.5923C123.07 28.6249 122.38 28.6942 122.183 28.7614C122.128 28.7798 122.116 28.7757 122.098 28.792C121.897 28.9795 121.706 29.1567 121.525 29.3279C121.481 29.3707 121.436 29.4135 121.393 29.4542C121.251 29.5908 121.117 29.7212 120.989 29.8536C120.944 29.9005 120.9 29.9453 120.859 29.9922C120.672 30.1919 120.506 30.3895 120.36 30.5933C120.321 30.6442 120.285 30.7013 120.25 30.7543C120.134 30.9336 120.035 31.119 119.956 31.3167C119.925 31.3859 119.901 31.4593 119.879 31.5326C119.812 31.7364 119.763 31.9524 119.736 32.1867C119.72 32.3355 119.71 32.4924 119.71 32.6595C119.71 32.9386 119.736 33.2423 119.791 33.5764C119.818 33.7476 119.852 33.9289 119.895 34.1185C119.941 34.3161 119.992 34.5219 120.055 34.7379C120.073 34.8051 120.094 34.8744 120.114 34.9437C120.167 35.1251 120.228 35.3105 120.293 35.5041C120.307 35.5509 120.323 35.5958 120.341 35.6447C120.376 35.7486 120.396 35.8586 120.402 35.9727C120.406 36.0522 120.402 36.1337 120.394 36.2172C120.372 36.4536 120.307 36.7043 120.212 36.9753C120.191 37.0344 120.169 37.0955 120.145 37.1586C120.075 37.342 119.996 37.5315 119.911 37.7292C119.885 37.7903 119.858 37.8515 119.83 37.9146C119.726 38.149 119.619 38.3935 119.511 38.6441C119.483 38.7114 119.456 38.7745 119.428 38.8418C119.353 39.0252 119.282 39.2106 119.213 39.4001C119.186 39.4714 119.162 39.5448 119.14 39.6181C119.085 39.7852 119.032 39.9564 118.991 40.1255C118.971 40.205 118.953 40.2865 118.934 40.3659C118.91 40.478 118.89 40.5921 118.874 40.7083L118.876 40.7062Z" fill="#CE364C"/>
<path d="M122.889 22.1697C121.876 22.1432 121.809 24.3724 123.025 25.5563C124.241 26.7422 124.544 22.2125 122.889 22.1697Z" fill="#8B383E"/>
<path d="M126.345 21.9538C126.345 21.9538 123.324 20.9391 122.715 23.0746C122.106 25.21 122.658 27.4617 124.077 27.3109C126.073 27.0989 128.692 23.1561 126.345 21.9538Z" fill="#FF8B66"/>
<path d="M124.822 24.9512C124.837 25.0796 124.717 25.1957 124.558 25.2141C124.4 25.2304 124.26 25.1407 124.246 25.0123C124.232 24.884 124.351 24.7678 124.51 24.7495C124.668 24.7332 124.808 24.8228 124.822 24.9512Z" fill="#DB614D"/>
<path d="M124.589 23.643C124.569 23.643 124.55 23.6308 124.54 23.6145C124.414 23.4169 124.171 23.4413 124.169 23.4413C124.134 23.4454 124.104 23.4209 124.1 23.3863C124.095 23.3516 124.122 23.3211 124.156 23.317C124.169 23.317 124.479 23.2864 124.648 23.5493C124.666 23.5778 124.658 23.6165 124.629 23.6369C124.617 23.6451 124.605 23.6471 124.593 23.6471L124.589 23.643Z" fill="#58595B"/>
<path d="M123.196 23.319C123.184 23.319 123.17 23.3129 123.159 23.3048C122.981 23.156 122.761 23.2498 122.751 23.2538C122.719 23.2681 122.682 23.2538 122.668 23.2212C122.654 23.1886 122.668 23.152 122.701 23.1377C122.713 23.1316 122.999 23.0093 123.239 23.207C123.265 23.2294 123.269 23.2681 123.247 23.2966C123.235 23.3129 123.214 23.3211 123.194 23.319H123.196Z" fill="#58595B"/>
<path d="M122.889 25.5562C122.889 25.5562 123.346 25.8516 124.142 25.5928C124.142 25.5928 123.902 26.5403 123.395 26.4201C122.887 26.2999 122.887 25.5562 122.887 25.5562H122.889Z" fill="#1A4850"/>
<path d="M125.141 23.0502C125.141 23.0502 125.833 23.9346 125.797 25.0838C125.797 25.0838 126.304 24.4603 126.568 25.0023C126.834 25.5443 125.773 26.3349 125.773 26.3349C125.773 26.3349 127.482 26.4307 127.683 24.2117C127.768 23.2764 126.558 22.4226 125.141 23.0502Z" fill="#58595B"/>
<path d="M125.736 25.856C125.505 26.4815 124.615 27.5676 123.673 27.2579C123.673 27.2579 123.779 28.4723 123.279 28.5885C123.279 28.5885 123.105 29.2548 124.047 29.3587C125.224 29.4871 126.128 28.4968 126.128 28.4968C125.356 28.5498 126.071 25.9721 126.071 25.9721C125.817 26.1412 125.734 25.856 125.734 25.856H125.736Z" fill="#EF6E4B"/>
<path d="M123.04 25.2405L123.097 25.1142C123.074 25.104 122.873 25.0062 122.955 24.8106C122.979 24.7515 123.013 24.7128 123.054 24.6985C123.129 24.672 123.212 24.7168 123.214 24.7189L123.281 24.5966C123.281 24.5966 123.143 24.5212 123.011 24.5681C122.93 24.5966 122.869 24.6598 122.829 24.7576C122.723 25.0164 122.922 25.1855 123.042 25.2405H123.04Z" fill="#DB614D"/>
<path d="M124.38 24.4049C124.372 24.5415 124.295 24.6474 124.207 24.6413C124.122 24.6352 124.059 24.5211 124.067 24.3846C124.075 24.248 124.152 24.1421 124.24 24.1482C124.325 24.1543 124.388 24.2684 124.38 24.4049Z" fill="#1A4850"/>
<path d="M124.461 24.3706C124.461 24.3706 124.39 24.0568 124.278 24.0486C124.167 24.0405 123.982 24.2503 123.982 24.2503L123.779 24.1016L123.976 24.179C123.976 24.179 124.144 23.9406 124.299 23.9895C124.453 24.0384 124.461 24.3706 124.461 24.3706Z" fill="#1A4850"/>
<path d="M123.121 24.2096C123.113 24.3462 123.036 24.4521 122.948 24.446C122.863 24.4399 122.8 24.3258 122.808 24.1893C122.816 24.0527 122.894 23.9468 122.981 23.9529C123.066 23.959 123.129 24.0731 123.121 24.2096Z" fill="#1A4850"/>
<path d="M123.202 24.1748C123.202 24.1748 123.131 23.861 123.019 23.8528C122.908 23.8447 122.723 24.0545 122.723 24.0545L122.52 23.9058L122.717 23.9832C122.717 23.9832 122.885 23.7448 123.04 23.7937C123.194 23.8426 123.202 24.1748 123.202 24.1748Z" fill="#1A4850"/>
<path d="M124.376 22.4326C124.376 22.4326 123.919 24.8391 125.797 25.0836C125.797 25.0836 126.467 23.9385 127.354 24.7393C127.354 24.7393 128.3 22.129 126.071 21.7113C126.071 21.7113 125.639 20.7108 123.903 21.0287C121.48 21.4729 121.446 24.1484 122.469 25.2385C122.469 25.2385 121.834 21.9905 124.376 22.4326Z" fill="#58595B"/>
<path d="M128.684 47.8487C128.663 48.0158 129.102 48.2032 129.102 48.2032C129.102 48.2032 129.254 48.4987 129.482 48.4987C129.709 48.4987 130.17 47.7305 129.809 47.3352C129.447 46.9399 128.745 47.327 128.686 47.8487H128.684Z" fill="#EF6E4B"/>
<path d="M128.304 49.6334C128.337 49.6334 128.365 49.611 128.371 49.5763C128.373 49.56 128.674 47.9686 129.923 47.6793C130.185 47.6181 130.371 47.6507 130.475 47.773C130.737 48.0848 130.471 48.9345 130.347 49.2381C130.333 49.2727 130.349 49.3135 130.383 49.3298C130.418 49.344 130.459 49.3277 130.473 49.2931C130.493 49.2462 130.948 48.1255 130.578 47.6854C130.438 47.5203 130.207 47.4735 129.89 47.5468C128.55 47.8565 128.237 49.5376 128.233 49.5539C128.227 49.5906 128.252 49.6273 128.29 49.6334C128.294 49.6334 128.298 49.6334 128.302 49.6334H128.304Z" fill="#0A4993"/>
<path d="M126.018 49.6786L132.288 48.5986L132.454 48.7922L133.796 48.7698L129.807 51.7529L127.555 51.6816L126.757 51.0153L126.018 49.6786Z" fill="#DC933F"/>
<path d="M133.835 52.3782L135.315 57.3053L128.444 59.0903L126.268 58.4138L126.473 52.9203L126.018 49.6783L127.303 49.7782L127.478 50.0818L133.796 48.7695L133.835 52.3782Z" fill="#F9D964"/>
<path d="M126.268 58.4117L128.446 59.0902L127.697 53.7373L127.478 50.0817L127.303 49.7781L126.018 49.6782L126.473 52.9201L126.268 58.4117Z" fill="#DC933F"/>
<path d="M126.268 58.4117L127.616 57.5171L127.188 53.4316L127.303 49.7781L126.018 49.6782L126.473 52.9201L126.268 58.4117Z" fill="#F4B71E"/>
<path d="M127.616 57.5176L128.446 59.0907L126.268 58.4121L127.616 57.5176Z" fill="#F9D964"/>
<path d="M129.658 50.1328C129.658 50.1328 129.677 50.1328 129.687 50.1267C129.721 50.1104 129.738 50.0697 129.721 50.035C129.713 50.0167 128.893 48.1461 129.935 47.6754C131.045 47.1721 132.182 49.5908 132.194 49.6153C132.211 49.6499 132.251 49.6662 132.286 49.6499C132.32 49.6336 132.334 49.5929 132.318 49.5582C132.27 49.4523 131.112 46.9908 129.876 47.5511C128.708 48.0809 129.555 50.0126 129.591 50.0941C129.604 50.1206 129.628 50.1349 129.654 50.1349L129.658 50.1328Z" fill="#0A4993"/>
<path d="M129.908 46.1611C129.908 46.1611 130.743 47.2818 130.658 47.5365C130.572 47.7912 129.908 48.0846 129.908 48.0846C129.908 48.0846 129.783 48.5431 129.48 48.4983C129.48 48.4983 129.612 48.2273 129.517 47.9461C129.421 47.6649 128.966 47.5813 128.966 47.5813L128.682 47.8483C128.682 47.8483 128.664 46.6338 128.849 46.2813C129.033 45.9268 129.906 46.1631 129.906 46.1631L129.908 46.1611Z" fill="#FF8B66"/>
<path d="M122.185 28.7656C123.797 31.2474 127.947 30.5832 127.947 30.5832C127.947 30.5832 129.11 29.6886 128.408 28.7411C128.251 28.5333 127.803 28.3417 127.36 28.3315C127.256 28.3315 127.155 28.3356 127.058 28.354C125.054 28.7207 123.703 28.5761 122.55 28.5761C122.534 28.5761 122.52 28.5761 122.503 28.5761C122.183 28.5903 122.183 28.7635 122.183 28.7635L122.185 28.7656Z" fill="#FF8B66"/>
<path d="M117.403 36.3154C117.909 35.3414 117.783 30.7179 118.069 29.642L116.983 29.5137C116.983 29.5137 116.942 30.18 116.62 31.4454C116.297 32.7108 115.653 35.7693 116.297 36.3174C116.94 36.8656 117.401 36.3174 117.401 36.3174L117.403 36.3154Z" fill="#FF8B66"/>
<path d="M122.503 28.5781C122.686 28.9816 123.517 29.1323 123.517 29.1323L123.624 29.4971L124.245 29.116C125.776 29.0244 126.936 28.3804 127.36 28.3315C127.256 28.3315 127.155 28.3356 127.058 28.354C125.054 28.7207 123.703 28.5761 122.55 28.5761C122.534 28.5761 122.52 28.5761 122.503 28.5761V28.5781Z" fill="#EF6E4B"/>
<path d="M118.018 27.9996C118.175 29.0877 118.164 29.1671 118.246 29.2425C118.292 29.2853 118.329 29.3179 118.879 29.43C119.186 29.4952 119.34 29.5176 119.423 29.5095C119.48 29.5054 119.507 29.4871 119.525 29.4585C119.582 29.3689 119.569 29.2446 119.417 28.1402C119.251 26.9278 119.243 26.8829 119.224 26.8299C119.184 26.7158 119.102 26.6771 118.55 26.5956C117.953 26.506 117.933 26.4958 117.874 26.5447C117.86 26.5549 117.848 26.5712 117.846 26.5956C117.821 26.6955 117.872 26.9746 118.018 27.9975V27.9996Z" fill="#25559F"/>
<path d="M118.018 27.9998C118.175 29.0879 118.165 29.1673 118.246 29.2427C118.292 29.2855 118.329 29.3181 118.879 29.4302C119.186 29.4954 119.34 29.5178 119.423 29.5097C119.464 29.4139 119.44 29.2163 119.302 28.2198C119.133 27.0074 119.129 26.9626 119.111 26.9096C119.07 26.7935 118.987 26.7547 118.435 26.6732C118.063 26.6203 117.915 26.5938 117.844 26.5958C117.819 26.6957 117.87 26.9748 118.016 27.9977L118.018 27.9998Z" fill="#3C71BC"/>
<path d="M119.497 28.1707C119.214 27.8203 119.214 27.7327 118.433 27.6369C118.433 27.6369 118.632 27.4779 118.699 27.4087C118.766 27.3394 119.131 27.427 119.239 27.3272C119.365 27.209 119.192 27.2029 118.991 27.1947C118.839 27.1886 118.638 27.1295 118.549 27.1784C118.341 27.2946 118.053 27.4555 117.84 27.7184C117.627 27.9812 117.146 28.8962 116.993 29.4626C116.906 29.7948 117.416 30.0148 117.84 29.7968C118.323 29.5482 118.404 29.0694 118.784 28.8167L119.152 29.0368C119.152 29.0368 119.072 29.2955 119.16 29.3098C119.225 29.32 119.279 29.1611 119.316 29.0082C119.334 28.9328 119.145 28.6272 119.145 28.6272L119.369 28.7372C119.369 28.7372 119.405 28.9879 119.541 28.9777C119.592 28.9736 119.598 28.8615 119.582 28.725C119.572 28.6313 119.566 28.5498 119.491 28.4662C119.491 28.4662 119.655 28.3664 119.497 28.1707Z" fill="#FF8B66"/>
<path d="M120.057 34.7423C120.075 34.8095 120.096 34.8768 120.116 34.946C120.145 34.9522 120.171 34.9583 120.203 34.9644C120.536 35.0337 121.095 35.1478 122.138 35.755C123.525 36.5578 125.204 36.7107 126.282 36.7107C126.936 36.7107 127.369 36.6536 127.379 36.6516L127.354 36.4682C127.326 36.4723 124.4 36.8513 122.23 35.592C121.16 34.9705 120.583 34.8523 120.238 34.781C120.167 34.7667 120.108 34.7545 120.055 34.7402L120.057 34.7423Z" fill="#C4F1F7"/>
<path d="M120.396 36.2195C121.314 37.002 123.604 37.5155 127.218 37.7539C127.377 37.7641 127.513 37.7743 127.537 37.7783L127.574 37.597C127.543 37.5909 127.45 37.5868 127.231 37.5705C122.673 37.2689 120.983 36.57 120.405 35.9771C120.409 36.0545 120.405 36.136 120.396 36.2195Z" fill="#C4F1F7"/>
<path d="M120.146 37.159C121.817 38.5283 126.008 38.7524 127.306 38.7524C127.47 38.7524 127.586 38.7484 127.647 38.7443C127.665 38.7443 127.677 38.7402 127.685 38.7382L127.663 38.6424L127.645 38.5568C127.354 38.6057 122.012 38.5405 120.213 36.9756C120.193 37.0347 120.171 37.0958 120.146 37.159Z" fill="#C4F1F7"/>
<path d="M119.832 37.915C121.249 39.3842 125.722 39.9364 127.549 40.1524C127.549 40.0912 127.549 40.0281 127.549 39.9649C125.704 39.7448 121.197 39.1865 119.911 37.7275C119.885 37.7887 119.859 37.8498 119.83 37.913L119.832 37.915Z" fill="#C4F1F7"/>
<path d="M119.432 38.8422C121.077 41.0123 125.763 41.4259 127.594 41.5034C127.59 41.4402 127.586 41.377 127.584 41.3139C126.843 41.2772 125.637 41.1855 124.362 40.9491C122.468 40.5966 120.421 39.9242 119.515 38.6445C119.487 38.7118 119.461 38.7749 119.432 38.8422Z" fill="#C4F1F7"/>
<path d="M119.144 39.6166C121.284 42.618 125.827 43.1091 127.75 43.1764C127.742 43.1152 127.736 43.0541 127.728 42.9909C125.795 42.9196 121.265 42.4183 119.217 39.3965C119.19 39.4678 119.166 39.5412 119.144 39.6145V39.6166Z" fill="#C4F1F7"/>
<path d="M118.937 40.3644C121.647 44.2421 126.388 45.0205 128.069 45.1753C128.059 45.1142 128.045 45.051 128.033 44.9899C126.315 44.8228 121.621 44.0179 118.993 40.126C118.973 40.2054 118.955 40.287 118.937 40.3664V40.3644Z" fill="#C4F1F7"/>
<path d="M128.41 28.7434C127.797 28.0853 126.818 29.1571 126.759 31.048C126.735 31.7999 127.037 35.8223 127.232 38.3673C127.47 41.4462 128.848 46.2816 128.848 46.2816C128.848 46.2816 129.466 46.5547 129.906 46.1634C129.906 46.1634 129.283 39.2659 128.972 37.8375C128.972 37.8375 129.565 29.9844 128.408 28.7434H128.41Z" fill="#FF8B66"/>
<path d="M124.824 30.4572C124.824 30.4572 124.889 30.7322 125.001 31.1724C125.015 31.2356 125.033 31.3008 125.052 31.3721C125.096 31.5514 125.147 31.7511 125.204 31.965C125.222 32.0343 125.24 32.1016 125.259 32.1729C125.297 32.3155 125.338 32.4643 125.379 32.6151C125.397 32.6803 125.415 32.7455 125.433 32.8127C125.49 33.0185 125.549 33.2304 125.612 33.4423C125.63 33.5055 125.649 33.5687 125.665 33.6298C125.764 33.9701 125.87 34.3124 125.975 34.6466C125.996 34.7118 126.016 34.775 126.038 34.8381C126.107 35.0562 126.183 35.2681 126.254 35.4719C126.274 35.531 126.296 35.588 126.317 35.6451C126.436 35.9711 126.556 36.2686 126.672 36.5172C126.702 36.5824 126.733 36.6435 126.761 36.7006C126.895 36.9634 127.025 37.1509 127.143 37.2344C127.348 37.3791 127.606 37.4769 127.88 37.5319C128.753 37.7092 129.758 37.4606 129.478 36.9695C129.344 36.7373 129.354 36.5315 129.427 36.3053C129.453 36.2299 129.484 36.1504 129.518 36.0648C129.622 35.8162 129.758 35.5289 129.839 35.1519C129.853 35.0847 129.868 35.0134 129.876 34.94C129.89 34.8463 129.9 34.7465 129.906 34.6385C129.914 34.453 129.9 34.233 129.87 33.9884C129.862 33.9192 129.851 33.8478 129.841 33.7765C129.801 33.5137 129.746 33.2345 129.683 32.9492C129.669 32.8881 129.654 32.8249 129.638 32.7638C129.604 32.6069 129.563 32.448 129.524 32.2931C129.508 32.232 129.494 32.1729 129.478 32.1138C129.399 31.8183 129.317 31.5351 129.246 31.2906C129.228 31.2274 129.212 31.1683 129.194 31.1133C129.062 30.667 128.962 30.3716 128.962 30.3716C128.889 30.392 128.812 30.4123 128.735 30.4286C127.555 30.7078 125.996 30.6548 124.826 30.4592L124.824 30.4572Z" fill="#CE364C"/>
<path d="M120.962 28.676C121.007 28.9063 121.149 29.1773 121.395 29.4565C121.716 29.8233 122.215 30.2165 122.899 30.5731C123.285 30.7789 123.732 30.9705 124.237 31.1437C124.512 31.2374 124.784 31.3128 125.052 31.3719C125.703 31.5166 126.335 31.5695 126.913 31.5695C127.685 31.5695 128.361 31.4758 128.861 31.376C129.005 31.3454 129.133 31.3169 129.244 31.2883C129.226 31.2252 129.21 31.1661 129.192 31.1111C129.09 31.1375 128.976 31.162 128.848 31.1885C127.979 31.3658 126.54 31.5329 124.999 31.1722C124.765 31.1172 124.53 31.0499 124.294 30.9684C123.801 30.7993 123.362 30.6098 122.981 30.4081C122.323 30.0617 121.834 29.6847 121.525 29.3301C121.285 29.0571 121.153 28.7983 121.131 28.5782C121.131 28.5517 121.127 28.5273 121.127 28.5049C121.076 28.5416 121.019 28.6007 120.96 28.674L120.962 28.676Z" fill="#C4F1F7"/>
<path d="M120.459 29.4544C120.526 29.6194 120.66 29.8008 120.861 29.9943C121.226 30.353 121.813 30.7483 122.619 31.1436C123.295 31.4798 124.13 31.816 125.115 32.1298C125.163 32.1461 125.212 32.1604 125.261 32.1746C126.13 32.4395 126.966 32.572 127.74 32.572C128.122 32.572 128.489 32.5394 128.836 32.4742C129.076 32.4294 129.305 32.3703 129.525 32.2928C129.508 32.2317 129.494 32.1726 129.478 32.1135C129.277 32.1848 129.068 32.2398 128.848 32.2826C127.791 32.4905 126.534 32.3845 125.206 31.9648C125.194 31.9607 125.182 31.9566 125.169 31.9546C124.181 31.6387 123.358 31.3025 122.703 30.9745C121.896 30.5751 121.332 30.1859 120.991 29.8578C120.731 29.6092 120.601 29.3932 120.587 29.2363C120.544 29.3056 120.502 29.381 120.459 29.4584V29.4544Z" fill="#C4F1F7"/>
<path d="M119.988 30.304C120.022 30.3509 120.061 30.3875 120.098 30.414C120.102 30.5383 120.156 30.6484 120.254 30.7564C120.477 31.0029 120.922 31.2311 121.498 31.5266C121.728 31.6427 121.984 31.7732 122.254 31.9239C122.311 31.9545 122.367 31.9851 122.426 32.0177C123.19 32.4435 123.797 32.5414 124.566 32.6636C124.832 32.7064 125.119 32.7512 125.437 32.8124C125.807 32.8857 126.225 32.9815 126.714 33.1241C127.25 33.277 127.709 33.336 128.103 33.336C128.345 33.336 128.56 33.3136 128.749 33.279C129.179 33.2016 129.488 33.0569 129.683 32.9448C129.669 32.8837 129.654 32.8205 129.638 32.7594C129.464 32.8592 129.179 33.0039 128.771 33.0834C128.288 33.1812 127.624 33.1934 126.763 32.9428C126.225 32.7879 125.776 32.6881 125.378 32.6127C125.094 32.5597 124.836 32.5169 124.591 32.4782C123.811 32.3539 123.247 32.2642 122.514 31.8547C122.451 31.82 122.388 31.7854 122.327 31.7507C122.061 31.604 121.807 31.4757 121.578 31.3595C120.997 31.06 120.536 30.8256 120.359 30.5933C120.301 30.52 120.272 30.4466 120.278 30.3712L120.282 30.3162L120.234 30.2857C120.234 30.2857 120.144 30.2266 120.083 30.1206C120.051 30.1797 120.016 30.2408 119.986 30.2999L119.988 30.304Z" fill="#C4F1F7"/>
<path d="M119.564 31.0664C119.679 31.264 119.807 31.425 119.848 31.4759C119.858 31.4963 119.866 31.5147 119.878 31.533C120.089 31.8896 120.692 32.0689 121.448 32.2951C121.628 32.3481 121.817 32.4051 122.012 32.4683C122.284 32.5559 122.568 32.6537 122.851 32.7719C123.139 32.8921 123.381 33.0001 123.594 33.0979C124.29 33.4158 124.713 33.6073 125.665 33.6277C125.807 33.6318 125.961 33.6318 126.128 33.6277C126.987 33.6012 127.129 33.7153 127.307 33.8559C127.468 33.9823 127.669 34.1392 128.314 34.2553C128.406 34.2716 128.495 34.2838 128.578 34.29C128.66 34.2981 128.735 34.3002 128.808 34.3002C129.301 34.3002 129.642 34.1494 129.866 33.9843C129.857 33.915 129.847 33.8437 129.837 33.7724C129.622 33.9578 129.24 34.1575 128.611 34.1045C128.526 34.0984 128.438 34.0882 128.345 34.0719C127.746 33.966 127.573 33.8294 127.421 33.7092C127.192 33.5258 127.003 33.4158 126.122 33.4423C125.935 33.4484 125.764 33.4484 125.61 33.4423C124.737 33.4158 124.327 33.2304 123.669 32.9308C123.456 32.833 123.212 32.723 122.92 32.6007C122.635 32.4846 122.355 32.3868 122.083 32.2992C121.88 32.2319 121.683 32.1728 121.498 32.1178C120.743 31.8937 120.15 31.7123 120.01 31.3883L119.996 31.3659C119.984 31.3516 119.97 31.3353 119.955 31.317C119.874 31.2131 119.761 31.0521 119.669 30.8789C119.635 30.9441 119.6 31.0052 119.562 31.0664H119.564Z" fill="#C4F1F7"/>
<path d="M119.044 31.8894C119.249 32.0993 119.515 32.2684 119.635 32.3377C119.631 32.4477 119.657 32.5537 119.714 32.6596C119.887 32.9958 120.347 33.3015 121.013 33.5134C121.206 33.5745 121.399 33.6092 121.584 33.6316C121.773 33.654 121.955 33.6601 122.126 33.6683C122.558 33.6866 122.932 33.7029 123.21 33.9291C123.653 34.2898 125.243 34.7482 126.043 34.8379C126.223 34.8583 126.365 34.8603 126.443 34.8379C126.743 34.7523 127.506 34.897 128.424 35.0906C128.54 35.115 128.66 35.1374 128.779 35.1639L128.849 35.1782C129.025 35.2149 129.184 35.2291 129.326 35.2291C129.529 35.2291 129.699 35.1986 129.841 35.1476C129.856 35.0804 129.87 35.0091 129.878 34.9357C129.655 35.0355 129.336 35.0906 128.887 34.9968L128.818 34.9826C128.694 34.9581 128.574 34.9316 128.461 34.9092C127.458 34.6973 126.731 34.5608 126.388 34.6606C126.321 34.681 126.173 34.6728 125.978 34.6464C125.222 34.5384 123.74 34.1227 123.322 33.7865C122.999 33.5236 122.577 33.5053 122.132 33.4849C121.972 33.4767 121.807 33.4706 121.643 33.4543C121.456 33.4339 121.263 33.4013 121.066 33.3402C120.266 33.0896 119.765 32.6719 119.822 32.3051L119.832 32.2419L119.775 32.2113C119.765 32.2052 119.753 32.1991 119.74 32.191C119.552 32.083 119.316 31.9138 119.156 31.7427C119.117 31.7977 119.08 31.8507 119.046 31.8935L119.044 31.8894Z" fill="#C4F1F7"/>
<path d="M118.727 32.5946C118.912 33.0021 119.184 33.2548 119.419 33.4708C119.616 33.6501 119.785 33.8049 119.84 34.0046C119.85 34.0474 119.87 34.0861 119.899 34.1208C120.085 34.3633 120.625 34.4305 121.251 34.4937C121.293 34.4978 121.336 34.5039 121.379 34.5059C122.024 34.5711 122.755 34.6445 123.007 34.9073C123.549 35.4697 125.618 35.7998 126.321 35.645C126.373 35.6348 126.418 35.6205 126.455 35.6042C126.84 35.4249 127.508 35.7652 128.186 36.1829C128.219 36.2033 128.253 36.2237 128.286 36.244C128.477 36.3643 128.678 36.4091 128.875 36.4091C129.072 36.4091 129.265 36.3622 129.431 36.3031C129.457 36.2277 129.488 36.1483 129.522 36.0627C129.218 36.2012 128.763 36.3255 128.383 36.0892C128.333 36.0586 128.28 36.024 128.229 35.9954C127.565 35.5899 126.846 35.2171 126.377 35.4371C126.349 35.4514 126.308 35.4636 126.258 35.4718C125.642 35.5859 123.647 35.3067 123.139 34.7789C122.839 34.4672 122.108 34.3938 121.397 34.3205C121.373 34.3205 121.352 34.3144 121.33 34.3123C120.733 34.2532 120.083 34.1799 120.022 33.9517C119.982 33.807 119.901 33.6868 119.799 33.5747C119.724 33.4932 119.639 33.4137 119.549 33.3302C119.263 33.0693 118.946 32.7759 118.796 32.2217C118.758 32.3236 118.737 32.4499 118.731 32.5905L118.727 32.5946Z" fill="#C4F1F7"/>
<path d="M125.791 4.17334H98.9372C98.1119 4.17334 97.4429 4.84479 97.4429 5.67306V13.3449C97.4429 14.1732 98.1119 14.8446 98.9372 14.8446H125.791C126.616 14.8446 127.285 14.1732 127.285 13.3449V5.67306C127.285 4.84479 126.616 4.17334 125.791 4.17334Z" fill="#84A8EF"/>
<path d="M112.622 14.1191C112.622 14.1191 113.718 18.0926 118.804 20.7416C118.804 20.7416 115.261 18.1945 115.261 14.1191H112.622Z" fill="#84A8EF"/>
<path d="M102.765 7.63525L103.372 8.86804L104.73 9.0657L103.747 10.0275L103.979 11.3825L102.765 10.7427L101.553 11.3825L101.784 10.0275L100.801 9.0657L102.16 8.86804L102.765 7.63525Z" fill="white"/>
<path d="M107.564 7.63525L108.172 8.86804L109.53 9.0657L108.547 10.0275L108.779 11.3825L107.564 10.7427L106.352 11.3825L106.584 10.0275L105.601 9.0657L106.959 8.86804L107.564 7.63525Z" fill="white"/>
<path d="M112.366 7.63525L112.971 8.86804L114.33 9.0657L113.347 10.0275L113.578 11.3825L112.366 10.7427L111.152 11.3825L111.384 10.0275L110.401 9.0657L111.759 8.86804L112.366 7.63525Z" fill="white"/>
<path d="M117.166 7.63525L117.773 8.86804L119.129 9.0657L118.147 10.0275L118.378 11.3825L117.166 10.7427L115.952 11.3825L116.183 10.0275L115.201 9.0657L116.559 8.86804L117.166 7.63525Z" fill="white"/>
<path d="M121.966 7.63525L122.573 8.86804L123.929 9.0657L122.947 10.0275L123.178 11.3825L121.966 10.7427L120.752 11.3825L120.983 10.0275L120 9.0657L121.359 8.86804L121.966 7.63525Z" fill="white"/>
<path d="M145 69.3867C145 69.7249 144.728 69.998 144.391 69.998H4.60911C4.27207 69.998 4 69.7249 4 69.3867C4 69.0484 4.27207 68.7754 4.60911 68.7754H144.391C144.728 68.7754 145 69.0484 145 69.3867Z" fill="#6383EA"/>
</g>
<defs>
<filter id="filter0_d_534_287" x="0" y="0" width="149" height="78" filterUnits="userSpaceOnUse" color-interpolation-filters="sRGB">
<feFlood flood-opacity="0" result="BackgroundImageFix"/>
<feColorMatrix in="SourceAlpha" type="matrix" values="0 0 0 0 0 0 0 0 0 0 0 0 0 0 0 0 0 0 127 0" result="hardAlpha"/>
<feOffset dy="4"/>
<feGaussianBlur stdDeviation="2"/>
<feComposite in2="hardAlpha" operator="out"/>
<feColorMatrix type="matrix" values="0 0 0 0 0 0 0 0 0 0 0 0 0 0 0 0 0 0 0.25 0"/>
<feBlend mode="normal" in2="BackgroundImageFix" result="effect1_dropShadow_534_287"/>
<feBlend mode="normal" in="SourceGraphic" in2="effect1_dropShadow_534_287" result="shape"/>
</filter>
</defs>
</svg>
