<svg width="65" height="65" viewBox="0 0 65 65" fill="none" xmlns="http://www.w3.org/2000/svg">
<path d="M32.0898 64.0959C49.8125 64.0959 64.1796 49.7476 64.1796 32.048C64.1796 14.3484 49.8125 0 32.0898 0C14.3671 0 0 14.3484 0 32.048C0 49.7476 14.3671 64.0959 32.0898 64.0959Z" fill="#00A4DC"/>
<mask id="mask0_534_329" style="mask-type:luminance" maskUnits="userSpaceOnUse" x="0" y="0" width="65" height="65">
<path d="M32.0898 64.0959C49.8125 64.0959 64.1796 49.7476 64.1796 32.048C64.1796 14.3484 49.8125 0 32.0898 0C14.3671 0 0 14.3484 0 32.048C0 49.7476 14.3671 64.0959 32.0898 64.0959Z" fill="white"/>
</mask>
<g mask="url(#mask0_534_329)">
<path d="M29.4239 19.4604L24.2792 24.5984C23.8603 25.2475 25.814 27.1987 27.016 28.3992C27.9518 29.3337 26.9495 31.4022 25.9472 32.4032L24.2323 34.1159C23.4844 34.8627 23.4844 36.0749 24.2323 36.8256L28.9345 41.5218C29.6824 42.2686 30.8961 42.2686 31.6478 41.5218L33.3627 39.8091C34.3651 38.8081 36.4363 37.8071 37.372 38.7416C38.574 39.9421 40.5317 41.8932 41.1777 41.4748L46.3224 36.3369L29.4239 19.4604ZM31.178 38.898C30.4615 39.6136 29.2987 39.6136 28.5822 38.898L26.8594 37.1775C26.1429 36.462 26.1429 35.3006 26.8594 34.5851L27.6699 33.7757C28.3864 33.0601 29.5492 33.0601 30.2657 33.7757L31.9885 35.4962C32.705 36.2117 32.705 37.3731 31.9885 38.0886L31.178 38.898Z" fill="#B7B9BC"/>
<path d="M53.8746 28.5635L37.2072 11.9178C35.4453 10.1582 32.5911 10.1582 30.8331 11.9178L23.4645 19.2768C21.7026 21.0364 21.7026 23.8869 23.4645 25.6426L23.8834 26.061L26.7338 23.2144C27.9553 21.9944 29.9365 21.9944 31.1581 23.2144L42.5633 34.6048C43.7849 35.8248 43.7849 37.8033 42.5633 39.0233L39.713 41.8699L40.1319 42.2883C41.8938 44.0479 44.7481 44.0479 46.506 42.2883L53.8746 34.9293C55.6365 33.1697 55.6365 30.3192 53.8746 28.5635ZM51.5959 32.6692C51.3454 32.9195 50.9382 32.9195 50.6876 32.6692L44.6032 26.5928L44.0237 27.1715C43.4795 27.715 42.5986 27.715 42.0543 27.1715L38.601 23.7227C38.0568 23.1792 38.0568 22.2994 38.601 21.7559L39.1805 21.1772L33.0961 15.1007C32.8455 14.8505 32.8455 14.4438 33.0961 14.1936L33.3937 13.8964C33.6443 13.6461 34.0515 13.6461 34.302 13.8964L51.8935 31.4649C52.1441 31.7152 52.1441 32.1218 51.8935 32.3721L51.5959 32.6692Z" fill="#404547"/>
<path d="M47.4429 1.46484L64.342 18.3419L51.5541 31.1131C51.0918 31.5749 50.3415 31.5721 49.882 31.1131L34.6578 15.9088C34.1954 15.4471 34.1982 14.6978 34.6578 14.2388L47.4456 1.46761L47.4429 1.46484Z" fill="#2A2C28"/>
<path d="M51.5188 5.53655L50.5166 4.53564L36.8926 18.1418L37.8948 19.1427L51.5188 5.53655Z" fill="#393A37"/>
<path d="M46.6379 27.8809L47.6401 28.8818L61.2641 15.2756L60.2619 14.2747L46.6379 27.8809Z" fill="#393A37"/>
<path d="M32.6414 50.9449L14.7927 33.1194C13.3585 31.687 11.0331 31.687 9.59891 33.1194L1.56462 41.1432C0.130398 42.5755 0.130397 44.8978 1.56462 46.3302L19.4134 64.1557C20.8476 65.588 23.1729 65.588 24.6072 64.1557L32.6415 56.1319C34.0757 54.6995 34.0757 52.3772 32.6414 50.9449Z" fill="#404547"/>
<path d="M15.1344 36.6664L29.0933 50.6072C29.1681 50.6818 29.1653 50.8007 29.0933 50.8726L28.6227 51.3426C27.7284 52.2357 26.2777 52.2357 25.3835 51.3426L14.3979 40.3714C13.5037 39.4783 13.5037 38.0295 14.3979 37.1364L14.8686 36.6664C14.9433 36.5918 15.0624 36.5945 15.1344 36.6664Z" fill="#FF5E65"/>
</g>
</svg>
