<svg width="64" height="64" viewBox="0 0 64 64" fill="none" xmlns="http://www.w3.org/2000/svg">
<g clip-path="url(#clip0_534_330)">
<path d="M54.6241 54.6234C67.12 42.1275 67.12 21.8676 54.6241 9.37171C42.1282 -3.1242 21.8683 -3.1242 9.37243 9.37171C-3.12348 21.8676 -3.12348 42.1275 9.37243 54.6234C21.8683 67.1193 42.1282 67.1193 54.6241 54.6234Z" fill="#E8391C"/>
<path d="M31.9975 58.8417C46.8229 58.8417 58.8412 46.8234 58.8412 31.998C58.8412 17.1726 46.8229 5.1543 31.9975 5.1543C17.1722 5.1543 5.15381 17.1726 5.15381 31.998C5.15381 46.8234 17.1722 58.8417 31.9975 58.8417Z" fill="#F6F6F6"/>
<path d="M42.3105 22.6299H22.5858C18.1858 22.6299 14.6196 26.1961 14.6196 30.5961V50.3208H22.5858V33.8784C22.5858 32.0643 24.0584 30.5917 25.8681 30.5917H42.3105V22.6255V22.6299Z" fill="#1E1E1E"/>
<path d="M39.3209 33.9271L40.1415 26.6129L39.3209 19.2987C39.281 18.9439 39.6447 18.6867 39.964 18.8375L55.5194 26.2004C55.8653 26.3645 55.8653 26.8569 55.5194 27.021L39.964 34.3839C39.6447 34.5347 39.281 34.2775 39.3209 33.9226V33.9271Z" fill="#1E1E1E"/>
<path d="M10.0425 49.98L13.9097 53.8472L54.5822 13.1746L50.7151 9.30743L10.0425 49.98Z" fill="#E8391C"/>
</g>
<defs>
<clipPath id="clip0_534_330">
<rect width="64" height="64" fill="white"/>
</clipPath>
</defs>
</svg>
