<svg width="100" height="116" viewBox="0 0 100 116" fill="none" xmlns="http://www.w3.org/2000/svg">
<g clip-path="url(#clip0_978_455)">
<path d="M95.8393 13.6946C98.1372 13.6946 99.9999 11.8352 99.9999 9.54161C99.9999 7.24801 98.1372 5.38867 95.8393 5.38867C93.5415 5.38867 91.6787 7.24801 91.6787 9.54161C91.6787 11.8352 93.5415 13.6946 95.8393 13.6946Z" fill="url(#paint0_linear_978_455)"/>
<g style="mix-blend-mode:color-burn">
<path d="M50.1514 95.2051C52.7606 91.2809 54.0664 85.2134 54.0664 77.005C54.0664 68.7967 52.7606 62.7309 50.1514 58.8049C47.5405 54.8808 43.9473 52.9169 39.3724 52.9169C34.7975 52.9169 31.3097 54.8808 28.7006 58.8049C26.0897 62.7309 24.7856 68.7984 24.7856 77.005C24.7856 85.2116 26.0897 91.2809 28.7006 95.2051C31.3097 99.131 34.8676 101.093 39.3724 101.093C43.8772 101.093 47.5405 99.131 50.1514 95.2051ZM22.7472 111.157C17.8835 108.089 14.0758 103.646 11.3248 97.8276C8.57123 92.0112 7.19531 85.0709 7.19531 77.005C7.19531 68.9391 8.57123 61.9997 11.3248 56.1825C14.0766 50.3661 17.8844 45.9231 22.7472 42.8535C27.6092 39.7857 33.1509 38.25 39.3715 38.25C45.5921 38.25 51.133 39.7857 55.9967 42.8535C60.8587 45.9231 64.6656 50.3661 67.4191 56.1825C70.171 62.0006 71.5486 68.9409 71.5486 77.005C71.5486 85.0692 70.171 92.0112 67.4191 97.8276C64.6656 103.646 60.8578 108.089 55.9967 111.157C51.133 114.226 45.593 115.76 39.3715 115.76C33.1501 115.76 27.6083 114.226 22.7472 111.157Z" fill="white"/>
<path d="M50.8174 94.6964C53.4266 90.7723 54.7324 84.7047 54.7324 76.4964C54.7324 68.288 53.4266 62.2222 50.8174 58.2963C48.2066 54.3721 44.6133 52.4083 40.0384 52.4083C35.4635 52.4083 31.9758 54.3721 29.3666 58.2963C26.7558 62.2222 25.4516 68.2897 25.4516 76.4964C25.4516 84.703 26.7558 90.7723 29.3666 94.6964C31.9758 98.6224 35.5336 100.584 40.0384 100.584C44.5432 100.584 48.2066 98.6224 50.8174 94.6964ZM23.4133 110.649C18.5495 107.581 14.7418 103.138 11.9908 97.3198C9.23724 91.5034 7.86133 84.5631 7.86133 76.4972C7.86133 68.4313 9.23724 61.4919 11.9908 55.6747C14.7426 49.8583 18.5504 45.4153 23.4133 42.3457C28.2752 39.2779 33.8169 37.7422 40.0375 37.7422C46.2581 37.7422 51.799 39.2779 56.6627 42.3457C61.5247 45.4153 65.3316 49.8583 68.0851 55.6747C70.837 61.4928 72.2146 68.433 72.2146 76.4972C72.2146 84.5614 70.837 91.5034 68.0851 97.3198C65.3316 103.138 61.5238 107.581 56.6627 110.649C51.799 113.718 46.259 115.252 40.0375 115.252C33.8161 115.252 28.2744 113.718 23.4133 110.649Z" fill="#FCFCFC"/>
<path d="M51.4826 94.1867C54.0917 90.2625 55.3976 84.1949 55.3976 75.9866C55.3976 67.7782 54.0917 61.7124 51.4826 57.7865C48.8717 53.8623 45.2784 51.8985 40.7036 51.8985C36.1287 51.8985 32.6409 53.8623 30.0318 57.7865C27.4209 61.7124 26.1168 67.78 26.1168 75.9866C26.1168 84.1932 27.4209 90.2625 30.0318 94.1867C32.6409 98.1126 36.1987 100.075 40.7036 100.075C45.2084 100.075 48.8717 98.1126 51.4826 94.1867ZM24.0793 110.139C19.2156 107.071 15.4078 102.628 12.6568 96.81C9.90326 90.9936 8.52734 84.0534 8.52734 75.9875C8.52734 67.9215 9.90326 60.9821 12.6568 55.1649C15.4087 49.3486 19.2164 44.9056 24.0793 41.836C28.9412 38.7681 34.483 37.2324 40.7036 37.2324C46.9242 37.2324 52.465 38.7681 57.3287 41.836C62.1907 44.9056 65.9976 49.3486 68.7512 55.1649C71.503 60.983 72.8806 67.9233 72.8806 75.9875C72.8806 84.0516 71.503 90.9936 68.7512 96.81C65.9976 102.628 62.1898 107.071 57.3287 110.139C52.465 113.209 46.925 114.742 40.7036 114.742C34.4821 114.742 28.9404 113.209 24.0793 110.139Z" fill="#F9F9F9"/>
<path d="M52.1485 93.6789C54.7576 89.7547 56.0635 83.6871 56.0635 75.4788C56.0635 67.2704 54.7576 61.2046 52.1485 57.2787C49.5376 53.3545 45.9443 51.3907 41.3695 51.3907C36.7946 51.3907 33.3068 53.3545 30.6977 57.2787C28.0868 61.2046 26.7827 67.2722 26.7827 75.4788C26.7827 83.6854 28.0868 89.7547 30.6977 93.6789C33.3068 97.6048 36.8647 99.5669 41.3695 99.5669C45.8743 99.5669 49.5376 97.6048 52.1485 93.6789ZM24.7443 109.631C19.8806 106.563 16.0728 102.12 13.3219 96.3022C10.5683 90.4858 9.19238 83.5456 9.19238 75.4796C9.19238 67.4137 10.5683 60.4743 13.3219 54.6571C16.0737 48.8407 19.8815 44.3978 24.7443 41.3282C29.6063 38.2603 35.148 36.7246 41.3686 36.7246C47.5892 36.7246 53.1301 38.2603 57.9938 41.3282C62.8557 44.3978 66.6626 48.8407 69.4162 54.6571C72.168 60.4752 73.5457 67.4155 73.5457 75.4796C73.5457 83.5438 72.168 90.4858 69.4162 96.3022C66.6626 102.12 62.8549 106.563 57.9938 109.631C53.1301 112.701 47.5901 114.235 41.3686 114.235C35.1471 114.235 29.6054 112.701 24.7443 109.631Z" fill="#F6F6F6"/>
<path d="M52.814 93.1711C55.4232 89.2469 56.729 83.1793 56.729 74.971C56.729 66.7626 55.4232 60.6968 52.814 56.7709C50.2031 52.8467 46.6098 50.8829 42.035 50.8829C37.4601 50.8829 33.9723 52.8467 31.3632 56.7709C28.7523 60.6968 27.4482 66.7644 27.4482 74.971C27.4482 83.1776 28.7523 89.2469 31.3632 93.1711C33.9723 97.097 37.5302 99.0591 42.035 99.0591C46.5398 99.0591 50.2031 97.097 52.814 93.1711ZM25.4098 109.123C20.5461 106.055 16.7384 101.612 13.9874 95.7944C11.2338 89.978 9.85791 83.0377 9.85791 74.9718C9.85791 66.9059 11.2338 59.9665 13.9874 54.1493C16.7392 48.3329 20.547 43.8899 25.4098 40.8203C30.2718 37.7525 35.8135 36.2168 42.0341 36.2168C48.2547 36.2168 53.7956 37.7525 58.6593 40.8203C63.5213 43.8899 67.3282 48.3329 70.0817 54.1493C72.8336 59.9674 74.2112 66.9076 74.2112 74.9718C74.2112 83.036 72.8336 89.978 70.0817 95.7944C67.3282 101.612 63.5204 106.055 58.6593 109.123C53.7956 112.193 48.2556 113.727 42.0341 113.727C35.8127 113.727 30.2709 112.193 25.4098 109.123Z" fill="#F2F2F2"/>
<path d="M53.4792 92.6613C56.0883 88.7371 57.3942 82.6695 57.3942 74.4612C57.3942 66.2529 56.0883 60.187 53.4792 56.2611C50.8683 52.3369 47.275 50.3731 42.7001 50.3731C38.1253 50.3731 34.6375 52.3369 32.0284 56.2611C29.4175 60.187 28.1133 66.2546 28.1133 74.4612C28.1133 82.6678 29.4175 88.7371 32.0284 92.6613C34.6375 96.5872 38.1953 98.5493 42.7001 98.5493C47.2049 98.5493 50.8683 96.5872 53.4792 92.6613ZM26.0758 108.614C21.2121 105.546 17.4044 101.103 14.6534 95.2846C11.8998 89.4683 10.5239 82.528 10.5239 74.4621C10.5239 66.3962 11.8998 59.4567 14.6534 53.6395C17.4052 47.8232 21.213 43.3802 26.0758 40.3106C30.9378 37.2427 36.4795 35.707 42.7001 35.707C48.9207 35.707 54.4616 37.2427 59.3253 40.3106C64.1873 43.3802 67.9942 47.8232 70.7477 53.6395C73.4996 59.4576 74.8772 66.3979 74.8772 74.4621C74.8772 82.5262 73.4996 89.4683 70.7477 95.2846C67.9942 101.103 64.1864 105.546 59.3253 108.614C54.4616 111.683 48.9216 113.217 42.7001 113.217C36.4787 113.217 30.937 111.683 26.0758 108.614Z" fill="#EFEFEF"/>
<path d="M54.1451 92.1543C56.7542 88.2302 58.0601 82.1626 58.0601 73.9543C58.0601 65.7459 56.7542 59.6801 54.1451 55.7542C51.5342 51.83 47.9409 49.8662 43.366 49.8662C38.7912 49.8662 35.3034 51.83 32.6943 55.7542C30.0834 59.6801 28.7793 65.7476 28.7793 73.9543C28.7793 82.1609 30.0834 88.2302 32.6943 92.1543C35.3034 96.0803 38.8612 98.0423 43.366 98.0423C47.8709 98.0423 51.5342 96.0803 54.1451 92.1543ZM26.7409 108.106C21.8772 105.038 18.0694 100.595 15.3184 94.7768C12.5649 88.9604 11.189 82.0202 11.189 73.9543C11.189 65.8883 12.5649 58.9489 15.3184 53.1317C18.0703 47.3153 21.878 42.8724 26.7409 39.8028C31.6029 36.7349 37.1446 35.1992 43.3652 35.1992C49.5858 35.1992 55.1266 36.7349 59.9903 39.8028C64.8523 42.8724 68.6592 47.3153 71.4128 53.1317C74.1646 58.9498 75.5423 65.8901 75.5423 73.9543C75.5423 82.0184 74.1646 88.9604 71.4128 94.7768C68.6592 100.595 64.8514 105.038 59.9903 108.106C55.1266 111.175 49.5866 112.709 43.3652 112.709C37.1437 112.709 31.602 111.175 26.7409 108.106Z" fill="#ECECEC"/>
<path d="M54.8102 91.6465C57.4194 87.7223 58.7252 81.6548 58.7252 73.4464C58.7252 65.2381 57.4194 59.1723 54.8102 55.2464C52.1993 51.3222 48.6061 49.3583 44.0312 49.3583C39.4563 49.3583 35.9685 51.3222 33.3594 55.2464C30.7485 59.1723 29.4444 65.2398 29.4444 73.4464C29.4444 81.653 30.7485 87.7223 33.3594 91.6465C35.9685 95.5724 39.5264 97.5345 44.0312 97.5345C48.536 97.5345 52.1993 95.5724 54.8102 91.6465ZM27.4069 107.598C22.5432 104.53 18.7354 100.087 15.9845 94.269C13.2309 88.4526 11.855 81.5123 11.855 73.4464C11.855 65.3805 13.2309 58.4411 15.9845 52.6239C18.7363 46.8075 22.5441 42.3646 27.4069 39.2949C32.2689 36.2271 37.8106 34.6914 44.0312 34.6914C50.2518 34.6914 55.7926 36.2271 60.6563 39.2949C65.5183 42.3646 69.3252 46.8075 72.0788 52.6239C74.8306 58.442 76.2083 65.3823 76.2083 73.4464C76.2083 81.5106 74.8306 88.4526 72.0788 94.269C69.3252 100.087 65.5175 104.53 60.6563 107.598C55.7926 110.668 50.2527 112.201 44.0312 112.201C37.8097 112.201 32.268 110.668 27.4069 107.598Z" fill="#E9E9E9"/>
<path d="M55.4761 91.1368C58.0853 87.2126 59.3911 81.145 59.3911 72.9367C59.3911 64.7283 58.0853 58.6625 55.4761 54.7366C52.8652 50.8124 49.272 48.8486 44.6971 48.8486C40.1222 48.8486 36.6345 50.8124 34.0253 54.7366C31.4144 58.6625 30.1103 64.7301 30.1103 72.9367C30.1103 81.1433 31.4144 87.2126 34.0253 91.1368C36.6345 95.0627 40.1923 97.0248 44.6971 97.0248C49.2019 97.0248 52.8652 95.0627 55.4761 91.1368ZM28.0719 107.088C23.2082 104.02 19.4005 99.5773 16.6495 93.7592C13.8959 87.9429 12.52 81.0026 12.52 72.9367C12.52 64.8708 13.8959 57.9314 16.6495 52.1141C19.4013 46.2978 23.2091 41.8548 28.0719 38.7852C32.9339 35.7173 38.4756 34.1816 44.6962 34.1816C50.9168 34.1816 56.4577 35.7173 61.3214 38.7852C66.1834 41.8548 69.9903 46.2978 72.7438 52.1141C75.4957 57.9322 76.8733 64.8725 76.8733 72.9367C76.8733 81.0009 75.4957 87.9429 72.7438 93.7592C69.9903 99.5773 66.1825 104.02 61.3214 107.088C56.4577 110.158 50.9177 111.692 44.6962 111.692C38.4748 111.692 32.9331 110.158 28.0719 107.088Z" fill="#E6E6E6"/>
<path d="M56.1421 90.6289C58.7513 86.7048 60.0571 80.6372 60.0571 72.4289C60.0571 64.2205 58.7513 58.1547 56.1421 54.2288C53.5313 50.3046 49.938 48.3408 45.3631 48.3408C40.7883 48.3408 37.3005 50.3046 34.6913 54.2288C32.0805 58.1547 30.7763 64.2222 30.7763 72.4289C30.7763 80.6355 32.0805 86.7048 34.6913 90.6289C37.3005 94.5549 40.8583 96.517 45.3631 96.517C49.8679 96.517 53.5313 94.5549 56.1421 90.6289ZM28.738 106.58C23.8743 103.512 20.0665 99.0695 17.3155 93.2514C14.562 87.435 13.186 80.4948 13.186 72.4289C13.186 64.363 14.562 57.4235 17.3155 51.6063C20.0673 45.79 23.8751 41.347 28.738 38.2774C33.5999 35.2095 39.1417 33.6738 45.3623 33.6738C51.5828 33.6738 57.1237 35.2095 61.9874 38.2774C66.8494 41.347 70.6563 45.79 73.4098 51.6063C76.1617 57.4244 77.5393 64.3647 77.5393 72.4289C77.5393 80.493 76.1617 87.435 73.4098 93.2514C70.6563 99.0695 66.8485 103.512 61.9874 106.58C57.1237 109.65 51.5837 111.184 45.3623 111.184C39.1408 111.184 33.5991 109.65 28.738 106.58Z" fill="#E3E3E3"/>
<path d="M56.8068 90.1211C59.4159 86.1969 60.7218 80.1294 60.7218 71.921C60.7218 63.7127 59.4159 57.6469 56.8068 53.721C54.1959 49.7968 50.6026 47.833 46.0278 47.833C41.4529 47.833 37.9651 49.7968 35.356 53.721C32.7451 57.6469 31.441 63.7144 31.441 71.921C31.441 80.1277 32.7451 86.1969 35.356 90.1211C37.9651 94.0471 41.523 96.0091 46.0278 96.0091C50.5326 96.0091 54.1959 94.0471 56.8068 90.1211ZM29.4035 106.073C24.5398 103.005 20.732 98.5617 17.981 92.7436C15.2275 86.9272 13.8516 79.987 13.8516 71.921C13.8516 63.8551 15.2275 56.9157 17.981 51.0985C20.7329 45.2821 24.5406 40.8392 29.4035 37.7696C34.2655 34.7017 39.8072 33.166 46.0278 33.166C52.2484 33.166 57.7892 34.7017 62.6529 37.7696C67.5149 40.8392 71.3218 45.2821 74.0754 51.0985C76.8272 56.9166 78.2049 63.8569 78.2049 71.921C78.2049 79.9852 76.8272 86.9272 74.0754 92.7436C71.3218 98.5617 67.514 103.005 62.6529 106.073C57.7892 109.142 52.2492 110.676 46.0278 110.676C39.8063 110.676 34.2646 109.142 29.4035 106.073Z" fill="#E0E0E0"/>
<path d="M57.4727 89.6114C60.0818 85.6872 61.3877 79.6196 61.3877 71.4113C61.3877 63.2029 60.0818 57.1371 57.4727 53.2112C54.8618 49.287 51.2685 47.3232 46.6937 47.3232C42.1188 47.3232 38.631 49.287 36.0219 53.2112C33.411 57.1371 32.1069 63.2047 32.1069 71.4113C32.1069 79.6179 33.411 85.6872 36.0219 89.6114C38.631 93.5373 42.1889 95.4994 46.6937 95.4994C51.1985 95.4994 54.8618 93.5373 57.4727 89.6114ZM30.0685 105.563C25.2048 102.495 21.397 98.0519 18.6461 92.2338C15.8925 86.4175 14.5166 79.4772 14.5166 71.4113C14.5166 63.3454 15.8925 56.406 18.6461 50.5887C21.3979 44.7724 25.2057 40.3294 30.0685 37.2598C34.9305 34.1919 40.4722 32.6562 46.6928 32.6562C52.9134 32.6562 58.4543 34.1919 63.318 37.2598C68.1799 40.3294 71.9869 44.7724 74.7404 50.5887C77.4922 56.4068 78.8699 63.3471 78.8699 71.4113C78.8699 79.4755 77.4922 86.4175 74.7404 92.2338C71.9869 98.0519 68.1791 102.495 63.318 105.563C58.4543 108.632 52.9143 110.166 46.6928 110.166C40.4714 110.166 34.9296 108.632 30.0685 105.563Z" fill="#DDDDDD"/>
<path d="M58.1379 89.1036C60.747 85.1794 62.0529 79.1118 62.0529 70.9035C62.0529 62.6951 60.747 56.6293 58.1379 52.7034C55.527 48.7792 51.9337 46.8154 47.3588 46.8154C42.784 46.8154 39.2962 48.7792 36.687 52.7034C34.0762 56.6293 32.772 62.6969 32.772 70.9035C32.772 79.1101 34.0762 85.1794 36.687 89.1036C39.2962 93.0295 42.854 94.9916 47.3588 94.9916C51.8636 94.9916 55.527 93.0295 58.1379 89.1036ZM30.7345 105.055C25.8708 101.987 22.0631 97.5441 19.3121 91.726C16.5585 85.9096 15.1826 78.9694 15.1826 70.9035C15.1826 62.8376 16.5585 55.8982 19.3121 50.0809C22.0639 44.2646 25.8717 39.8216 30.7345 36.752C35.5965 33.6841 41.1382 32.1484 47.3588 32.1484C53.5794 32.1484 59.1203 33.6841 63.984 36.752C68.846 39.8216 72.6529 44.2646 75.4064 50.0809C78.1583 55.899 79.5359 62.8393 79.5359 70.9035C79.5359 78.9676 78.1583 85.9096 75.4064 91.726C72.6529 97.5441 68.8451 101.987 63.984 105.055C59.1203 108.125 53.5803 109.659 47.3588 109.659C41.1374 109.659 35.5957 108.125 30.7345 105.055Z" fill="#D9D9D9"/>
<path d="M58.8038 88.5957C61.4129 84.6716 62.7188 78.604 62.7188 70.3957C62.7188 62.1873 61.4129 56.1215 58.8038 52.1956C56.1929 48.2714 52.5996 46.3076 48.0247 46.3076C43.4499 46.3076 39.9621 48.2714 37.3529 52.1956C34.7421 56.1215 33.4379 62.189 33.4379 70.3957C33.4379 78.6023 34.7421 84.6716 37.3529 88.5957C39.9621 92.5217 43.5199 94.4838 48.0247 94.4838C52.5295 94.4838 56.1929 92.5217 58.8038 88.5957ZM31.3996 104.547C26.5359 101.479 22.7281 97.0363 19.9771 91.2182C17.2236 85.4018 15.8477 78.4616 15.8477 70.3957C15.8477 62.3298 17.2236 55.3903 19.9771 49.5731C22.729 43.7568 26.5367 39.3138 31.3996 36.2442C36.2616 33.1763 41.8033 31.6406 48.0239 31.6406C54.2445 31.6406 59.7853 33.1763 64.649 36.2442C69.511 39.3138 73.3179 43.7568 76.0715 49.5731C78.8233 55.3912 80.201 62.3315 80.201 70.3957C80.201 78.4598 78.8233 85.4018 76.0715 91.2182C73.3179 97.0363 69.5101 101.479 64.649 104.547C59.7853 107.617 54.2453 109.151 48.0239 109.151C41.8024 109.151 36.2607 107.617 31.3996 104.547Z" fill="#D6D6D6"/>
<path d="M59.4698 88.0871C62.0789 84.1629 63.3848 78.0953 63.3848 69.887C63.3848 61.6786 62.0789 55.6128 59.4698 51.6869C56.8589 47.7627 53.2656 45.7989 48.6908 45.7989C44.1159 45.7989 40.6281 47.7627 38.019 51.6869C35.4081 55.6128 34.104 61.6804 34.104 69.887C34.104 78.0936 35.4081 84.1629 38.019 88.0871C40.6281 92.013 44.1859 93.9751 48.6908 93.9751C53.1956 93.9751 56.8589 92.013 59.4698 88.0871ZM32.0656 104.039C27.2019 100.971 23.3941 96.5285 20.6432 90.7104C17.8896 84.894 16.5137 77.9538 16.5137 69.8878C16.5137 61.8219 17.8896 54.8825 20.6432 49.0653C23.395 43.2489 27.2028 38.806 32.0656 35.7364C36.9276 32.6685 42.4693 31.1328 48.6899 31.1328C54.9105 31.1328 60.4513 32.6685 65.315 35.7364C70.177 38.806 73.9839 43.2489 76.7375 49.0653C79.4893 54.8834 80.867 61.8237 80.867 69.8878C80.867 77.952 79.4893 84.894 76.7375 90.7104C73.9839 96.5285 70.1762 100.971 65.315 104.039C60.4513 107.109 54.9113 108.643 48.6899 108.643C42.4684 108.643 36.9267 107.109 32.0656 104.039Z" fill="#D3D3D3"/>
<path d="M60.1349 87.5793C62.7441 83.6551 64.0499 77.5875 64.0499 69.3792C64.0499 61.1708 62.7441 55.105 60.1349 51.1791C57.5241 47.2549 53.9308 45.2911 49.3559 45.2911C44.781 45.2911 41.2933 47.2549 38.6841 51.1791C36.0732 55.105 34.7691 61.1726 34.7691 69.3792C34.7691 77.5858 36.0732 83.6551 38.6841 87.5793C41.2933 91.5052 44.8511 93.4673 49.3559 93.4673C53.8607 93.4673 57.5241 91.5052 60.1349 87.5793ZM32.7316 103.532C27.8679 100.464 24.0601 96.0207 21.3092 90.2026C18.5556 84.3862 17.1797 77.4459 17.1797 69.38C17.1797 61.3141 18.5556 54.3747 21.3092 48.5575C24.061 42.7411 27.8688 38.2981 32.7316 35.2285C37.5936 32.1607 43.1353 30.625 49.3559 30.625C55.5765 30.625 61.1174 32.1607 65.9811 35.2285C70.843 38.2981 74.6499 42.7411 77.4035 48.5575C80.1553 54.3756 81.533 61.3158 81.533 69.38C81.533 77.4442 80.1553 84.3862 77.4035 90.2026C74.6499 96.0207 70.8422 100.464 65.9811 103.532C61.1174 106.601 55.5774 108.135 49.3559 108.135C43.1344 108.135 37.5927 106.601 32.7316 103.532Z" fill="#D0D0D0"/>
<path d="M60.8008 87.0695C63.41 83.1453 64.7158 77.0777 64.7158 68.8694C64.7158 60.6611 63.41 54.5952 60.8008 50.6693C58.19 46.7451 54.5967 44.7813 50.0218 44.7813C45.4469 44.7813 41.9592 46.7451 39.35 50.6693C36.7392 54.5952 35.435 60.6628 35.435 68.8694C35.435 77.076 36.7392 83.1453 39.35 87.0695C41.9592 90.9954 45.517 92.9575 50.0218 92.9575C54.5266 92.9575 58.19 90.9954 60.8008 87.0695ZM33.3967 103.022C28.5329 99.9539 24.7252 95.5109 21.9742 89.6928C19.2206 83.8765 17.8447 76.9362 17.8447 68.8703C17.8447 60.8044 19.2206 53.865 21.9742 48.0477C24.726 42.2314 28.5338 37.7884 33.3967 34.7188C38.2586 31.6509 43.8003 30.1152 50.0209 30.1152C56.2415 30.1152 61.7824 31.6509 66.6461 34.7188C71.5081 37.7884 75.315 42.2314 78.0685 48.0477C80.8204 53.8658 82.198 60.8061 82.198 68.8703C82.198 76.9344 80.8204 83.8765 78.0685 89.6928C75.315 95.5109 71.5072 99.9539 66.6461 103.022C61.7824 106.091 56.2424 107.625 50.0209 107.625C43.7995 107.625 38.2578 106.091 33.3967 103.022Z" fill="#CDCDCD"/>
<path d="M61.466 86.5617C64.0751 82.6375 65.381 76.5699 65.381 68.3616C65.381 60.1533 64.0751 54.0874 61.466 50.1615C58.8551 46.2373 55.2618 44.2735 50.687 44.2735C46.1121 44.2735 42.6243 46.2373 40.0152 50.1615C37.4043 54.0874 36.1002 60.155 36.1002 68.3616C36.1002 76.5682 37.4043 82.6375 40.0152 86.5617C42.6243 90.4876 46.1821 92.4497 50.687 92.4497C55.1918 92.4497 58.8551 90.4876 61.466 86.5617ZM34.0627 102.514C29.199 99.4461 25.3912 95.0031 22.6402 89.185C19.8867 83.3686 18.5107 76.4284 18.5107 68.3625C18.5107 60.2965 19.8867 53.3571 22.6402 47.5399C25.3921 41.7235 29.1998 37.2806 34.0627 34.211C38.9246 31.1431 44.4664 29.6074 50.687 29.6074C56.9076 29.6074 62.4484 31.1431 67.3121 34.211C72.1741 37.2806 75.981 41.7235 78.7346 47.5399C81.4864 53.358 82.864 60.2983 82.864 68.3625C82.864 76.4266 81.4864 83.3686 78.7346 89.185C75.981 95.0031 72.1732 99.4461 67.3121 102.514C62.4484 105.584 56.9084 107.117 50.687 107.117C44.4655 107.117 38.9238 105.584 34.0627 102.514Z" fill="#CACACA"/>
<path d="M62.1319 86.0547C64.741 82.1305 66.0469 76.063 66.0469 67.8546C66.0469 59.6463 64.741 53.5805 62.1319 49.6546C59.521 45.7304 55.9277 43.7665 51.3529 43.7665C46.778 43.7665 43.2902 45.7304 40.6811 49.6546C38.0702 53.5805 36.7661 59.648 36.7661 67.8546C36.7661 76.0613 38.0702 82.1305 40.6811 86.0547C43.2902 89.9806 46.8481 91.9427 51.3529 91.9427C55.8577 91.9427 59.521 89.9806 62.1319 86.0547ZM34.7277 102.006C29.864 98.9383 26.0562 94.4953 23.3053 88.6772C20.5517 82.8608 19.1758 75.9206 19.1758 67.8546C19.1758 59.7887 20.5517 52.8493 23.3053 47.0321C26.0571 41.2157 29.8649 36.7728 34.7277 33.7032C39.5897 30.6353 45.1314 29.0996 51.352 29.0996C57.5726 29.0996 63.1134 30.6353 67.9772 33.7032C72.8391 36.7728 76.646 41.2157 79.3996 47.0321C82.1514 52.8502 83.5291 59.7905 83.5291 67.8546C83.5291 75.9188 82.1514 82.8608 79.3996 88.6772C76.646 94.4953 72.8383 98.9383 67.9772 102.006C63.1134 105.076 57.5735 106.61 51.352 106.61C45.1305 106.61 39.5888 105.076 34.7277 102.006Z" fill="#C7C7C7"/>
<path d="M62.7974 85.545C65.4066 81.6208 66.7124 75.5532 66.7124 67.3449C66.7124 59.1365 65.4066 53.0707 62.7974 49.1448C60.1865 45.2206 56.5932 43.2568 52.0184 43.2568C47.4435 43.2568 43.9557 45.2206 41.3466 49.1448C38.7357 53.0707 37.4316 59.1383 37.4316 67.3449C37.4316 75.5515 38.7357 81.6208 41.3466 85.545C43.9557 89.4709 47.5136 91.433 52.0184 91.433C56.5232 91.433 60.1865 89.4709 62.7974 85.545ZM35.3932 101.496C30.5295 98.4285 26.7218 93.9855 23.9708 88.1674C21.2172 82.3511 19.8413 75.4108 19.8413 67.3449C19.8413 59.279 21.2172 52.3396 23.9708 46.5223C26.7226 40.706 30.5304 36.263 35.3932 33.1934C40.2552 30.1255 45.7969 28.5898 52.0175 28.5898C58.2381 28.5898 63.779 30.1255 68.6427 33.1934C73.5047 36.263 77.3116 40.706 80.0651 46.5223C82.817 52.3404 84.1946 59.2807 84.1946 67.3449C84.1946 75.4091 82.817 82.3511 80.0651 88.1674C77.3116 93.9855 73.5038 98.4285 68.6427 101.496C63.779 104.566 58.239 106.1 52.0175 106.1C45.7961 106.1 40.2543 104.566 35.3932 101.496Z" fill="#C4C4C4"/>
<path d="M63.4626 85.0372C66.0717 81.113 67.3776 75.0454 67.3776 66.8371C67.3776 58.6287 66.0717 52.5629 63.4626 48.637C60.8517 44.7128 57.2584 42.749 52.6835 42.749C48.1087 42.749 44.6209 44.7128 42.0118 48.637C39.4009 52.5629 38.0967 58.6304 38.0967 66.8371C38.0967 75.0437 39.4009 81.113 42.0118 85.0372C44.6209 88.9631 48.1787 90.9252 52.6835 90.9252C57.1883 90.9252 60.8517 88.9631 63.4626 85.0372ZM36.0592 100.989C31.1955 97.9207 27.3878 93.4777 24.6368 87.6596C21.8832 81.8433 20.5073 74.903 20.5073 66.8371C20.5073 58.7712 21.8832 51.8317 24.6368 46.0145C27.3886 40.1982 31.1964 35.7552 36.0592 32.6856C40.9212 29.6177 46.4629 28.082 52.6835 28.082C58.9041 28.082 64.445 29.6177 69.3087 32.6856C74.1707 35.7552 77.9776 40.1982 80.7311 46.0145C83.483 51.8326 84.8606 58.7729 84.8606 66.8371C84.8606 74.9012 83.483 81.8433 80.7311 87.6596C77.9776 93.4777 74.1698 97.9207 69.3087 100.989C64.445 104.058 58.905 105.592 52.6835 105.592C46.4621 105.592 40.9204 104.058 36.0592 100.989Z" fill="#C0C0C0"/>
<path d="M64.1285 84.5293C66.7376 80.6051 68.0435 74.5376 68.0435 66.3292C68.0435 58.1209 66.7376 52.0551 64.1285 48.1292C61.5176 44.205 57.9243 42.2412 53.3494 42.2412C48.7746 42.2412 45.2868 44.205 42.6777 48.1292C40.0668 52.0551 38.7626 58.1226 38.7626 66.3292C38.7626 74.5359 40.0668 80.6051 42.6777 84.5293C45.2868 88.4553 48.8446 90.4173 53.3494 90.4173C57.8543 90.4173 61.5176 88.4553 64.1285 84.5293ZM36.7243 100.481C31.8606 97.4129 28.0528 92.9699 25.3018 87.1518C22.5483 81.3354 21.1724 74.3952 21.1724 66.3292C21.1724 58.2633 22.5483 51.3239 25.3018 45.5067C28.0537 39.6903 31.8614 35.2474 36.7243 32.1778C41.5863 29.1099 47.128 27.5742 53.3486 27.5742C59.5692 27.5742 65.11 29.1099 69.9737 32.1778C74.8357 35.2474 78.6426 39.6903 81.3962 45.5067C84.148 51.3248 85.5257 58.2651 85.5257 66.3292C85.5257 74.3934 84.148 81.3354 81.3962 87.1518C78.6426 92.9699 74.8348 97.4129 69.9737 100.481C65.11 103.55 59.57 105.084 53.3486 105.084C47.1271 105.084 41.5854 103.55 36.7243 100.481Z" fill="#BDBDBD"/>
<path d="M64.7945 84.0196C67.4036 80.0954 68.7095 74.0278 68.7095 65.8195C68.7095 57.6111 67.4036 51.5453 64.7945 47.6194C62.1836 43.6952 58.5903 41.7314 54.0155 41.7314C49.4406 41.7314 45.9528 43.6952 43.3437 47.6194C40.7328 51.5453 39.4287 57.6129 39.4287 65.8195C39.4287 74.0261 40.7328 80.0954 43.3437 84.0196C45.9528 87.9455 49.5107 89.9076 54.0155 89.9076C58.5203 89.9076 62.1836 87.9455 64.7945 84.0196ZM37.3903 99.971C32.5266 96.9031 28.7188 92.4601 25.9679 86.642C23.2143 80.8257 21.8384 73.8854 21.8384 65.8195C21.8384 57.7536 23.2143 50.8142 25.9679 44.9969C28.7197 39.1806 32.5275 34.7376 37.3903 31.668C42.2523 28.6001 47.794 27.0645 54.0146 27.0645C60.2352 27.0645 65.776 28.6001 70.6397 31.668C75.5017 34.7376 79.3086 39.1806 82.0622 44.9969C84.814 50.815 86.1917 57.7553 86.1917 65.8195C86.1917 73.8837 84.814 80.8257 82.0622 86.642C79.3086 92.4601 75.5009 96.9031 70.6397 99.971C65.776 103.041 60.2361 104.575 54.0146 104.575C47.7931 104.575 42.2514 103.041 37.3903 99.971Z" fill="#BABABA"/>
<path d="M65.4596 83.5118C68.0688 79.5876 69.3746 73.52 69.3746 65.3117C69.3746 57.1033 68.0688 51.0375 65.4596 47.1116C62.8488 43.1874 59.2555 41.2236 54.6806 41.2236C50.1058 41.2236 46.618 43.1874 44.0088 47.1116C41.398 51.0375 40.0938 57.1051 40.0938 65.3117C40.0938 73.5183 41.398 79.5876 44.0088 83.5118C46.618 87.4377 50.1758 89.3998 54.6806 89.3998C59.1854 89.3998 62.8488 87.4377 65.4596 83.5118ZM38.0563 99.4632C33.1926 96.3953 29.3848 91.9523 26.6339 86.1342C23.8803 80.3179 22.5044 73.3776 22.5044 65.3117C22.5044 57.2458 23.8803 50.3064 26.6339 44.4891C29.3857 38.6728 33.1935 34.2298 38.0563 31.1602C42.9183 28.0923 48.46 26.5566 54.6806 26.5566C60.9012 26.5566 66.4421 28.0923 71.3058 31.1602C76.1677 34.2298 79.9746 38.6728 82.7282 44.4891C85.48 50.3072 86.8577 57.2475 86.8577 65.3117C86.8577 73.3759 85.48 80.3179 82.7282 86.1342C79.9746 91.9523 76.1669 96.3953 71.3058 99.4632C66.4421 102.533 60.9021 104.067 54.6806 104.067C48.4592 104.067 42.9174 102.533 38.0563 99.4632Z" fill="#B7B7B7"/>
<path d="M66.1255 83.004C68.7347 79.0798 70.0405 73.0122 70.0405 64.8039C70.0405 56.5955 68.7347 50.5297 66.1255 46.6038C63.5147 42.6796 59.9214 40.7158 55.3465 40.7158C50.7717 40.7158 47.2839 42.6796 44.6747 46.6038C42.0639 50.5297 40.7597 56.5972 40.7597 64.8039C40.7597 73.0105 42.0639 79.0798 44.6747 83.004C47.2839 86.9299 50.8417 88.892 55.3465 88.892C59.8513 88.892 63.5147 86.9299 66.1255 83.004ZM38.7214 98.9554C33.8576 95.8875 30.0499 91.4445 27.2989 85.6264C24.5454 79.81 23.1694 72.8698 23.1694 64.8039C23.1694 56.738 24.5454 49.7985 27.2989 43.9813C30.0507 38.165 33.8585 33.722 38.7214 30.6524C43.5833 27.5845 49.125 26.0488 55.3456 26.0488C61.5662 26.0488 67.1071 27.5845 71.9708 30.6524C76.8328 33.722 80.6397 38.165 83.3932 43.9813C86.1451 49.7994 87.5227 56.7397 87.5227 64.8039C87.5227 72.868 86.1451 79.81 83.3932 85.6264C80.6397 91.4445 76.8319 95.8875 71.9708 98.9554C67.1071 102.025 61.5671 103.559 55.3456 103.559C49.1242 103.559 43.5825 102.025 38.7214 98.9554Z" fill="#B4B4B4"/>
<path d="M66.7902 82.4942C69.3993 78.57 70.7052 72.5024 70.7052 64.2941C70.7052 56.0858 69.3993 50.0199 66.7902 46.094C64.1793 42.1698 60.586 40.206 56.0112 40.206C51.4363 40.206 47.9485 42.1698 45.3394 46.094C42.7285 50.0199 41.4244 56.0875 41.4244 64.2941C41.4244 72.5007 42.7285 78.57 45.3394 82.4942C47.9485 86.4201 51.5064 88.3822 56.0112 88.3822C60.516 88.3822 64.1793 86.4201 66.7902 82.4942ZM39.3869 98.4456C34.5232 95.3777 30.7154 90.9347 27.9644 85.1166C25.2109 79.3003 23.835 72.36 23.835 64.2941C23.835 56.2282 25.2109 49.2888 27.9644 43.4716C30.7163 37.6552 34.524 33.2122 39.3869 30.1426C44.2489 27.0747 49.7906 25.5391 56.0112 25.5391C62.2318 25.5391 67.7726 27.0747 72.6363 30.1426C77.4983 33.2122 81.3052 37.6552 84.0588 43.4716C86.8106 49.2896 88.1883 56.2299 88.1883 64.2941C88.1883 72.3583 86.8106 79.3003 84.0588 85.1166C81.3052 90.9347 77.4974 95.3777 72.6363 98.4456C67.7726 101.515 62.2326 103.049 56.0112 103.049C49.7897 103.049 44.248 101.515 39.3869 98.4456Z" fill="#B1B1B1"/>
<path d="M67.4561 81.9875C70.0652 78.0633 71.3711 71.9957 71.3711 63.7874C71.3711 55.579 70.0652 49.5132 67.4561 45.5873C64.8452 41.6631 61.2519 39.6993 56.6771 39.6993C52.1022 39.6993 48.6144 41.6631 46.0053 45.5873C43.3944 49.5132 42.0903 55.5808 42.0903 63.7874C42.0903 71.994 43.3944 78.0633 46.0053 81.9875C48.6144 85.9134 52.1723 87.8755 56.6771 87.8755C61.1819 87.8755 64.8452 85.9134 67.4561 81.9875ZM40.0519 97.9397C35.1882 94.8718 31.3804 90.4289 28.6295 84.6108C25.8759 78.7944 24.5 71.8541 24.5 63.7882C24.5 55.7223 25.8759 48.7829 28.6295 42.9657C31.3813 37.1493 35.1891 32.7063 40.0519 29.6367C44.9139 26.5689 50.4556 25.0332 56.6762 25.0332C62.8968 25.0332 68.4377 26.5689 73.3014 29.6367C78.1633 32.7063 81.9703 37.1493 84.7238 42.9657C87.4757 48.7838 88.8533 55.7241 88.8533 63.7882C88.8533 71.8524 87.4757 78.7944 84.7238 84.6108C81.9703 90.4289 78.1625 94.8718 73.3014 97.9397C68.4377 101.009 62.8977 102.543 56.6762 102.543C50.4548 102.543 44.913 101.009 40.0519 97.9397Z" fill="#AEAEAE"/>
<path d="M68.122 81.4777C70.7311 77.5535 72.037 71.4859 72.037 63.2776C72.037 55.0693 70.7311 49.0034 68.122 45.0775C65.5111 41.1533 61.9178 39.1895 57.343 39.1895C52.7681 39.1895 49.2803 41.1533 46.6712 45.0775C44.0603 49.0034 42.7562 55.071 42.7562 63.2776C42.7562 71.4842 44.0603 77.5535 46.6712 81.4777C49.2803 85.4036 52.8382 87.3657 57.343 87.3657C61.8478 87.3657 65.5111 85.4036 68.122 81.4777ZM40.7178 97.43C35.8541 94.3621 32.0464 89.9191 29.2945 84.101C26.541 78.2846 25.165 71.3444 25.165 63.2785C25.165 55.2126 26.541 48.2732 29.2945 42.4559C32.0464 36.6396 35.8541 32.1966 40.7178 29.127C45.5798 26.0591 51.1215 24.5234 57.3421 24.5234C63.5627 24.5234 69.1036 26.0591 73.9673 29.127C78.8293 32.1966 82.6362 36.6396 85.3897 42.4559C88.1416 48.274 89.5192 55.2143 89.5192 63.2785C89.5192 71.3427 88.1416 78.2846 85.3897 84.101C82.6362 89.9191 78.8284 94.3621 73.9673 97.43C69.1036 100.5 63.5636 102.034 57.3421 102.034C51.1207 102.034 45.5789 100.5 40.7178 97.43Z" fill="#ABABAB"/>
<path d="M68.7872 80.9699C71.3963 77.0457 72.7022 70.9781 72.7022 62.7698C72.7022 54.5615 71.3963 48.4956 68.7872 44.5697C66.1763 40.6455 62.583 38.6817 58.0081 38.6817C53.4333 38.6817 49.9455 40.6455 47.3363 44.5697C44.7255 48.4956 43.4213 54.5632 43.4213 62.7698C43.4213 70.9764 44.7255 77.0457 47.3363 80.9699C49.9455 84.8958 53.5033 86.8579 58.0081 86.8579C62.5129 86.8579 66.1763 84.8958 68.7872 80.9699ZM41.3838 96.9221C36.5201 93.8543 32.7124 89.4113 29.9605 83.5932C27.207 77.7768 25.8311 70.8366 25.8311 62.7707C25.8311 54.7048 27.207 47.7653 29.9605 41.9481C32.7124 36.1318 36.5201 31.6888 41.3838 28.6192C46.2458 25.5513 51.7875 24.0156 58.0081 24.0156C64.2287 24.0156 69.7696 25.5513 74.6333 28.6192C79.4953 31.6888 83.3022 36.1318 86.0557 41.9481C88.8076 47.7662 90.1852 54.7065 90.1852 62.7707C90.1852 70.8348 88.8076 77.7768 86.0557 83.5932C83.3022 89.4113 79.4944 93.8543 74.6333 96.9221C69.7696 99.9918 64.2296 101.526 58.0081 101.526C51.7867 101.526 46.245 99.9918 41.3838 96.9221Z" fill="#A7A7A7"/>
<path d="M69.4531 80.4621C72.0622 76.5379 73.3681 70.4703 73.3681 62.262C73.3681 54.0536 72.0622 47.9878 69.4531 44.0619C66.8422 40.1377 63.2489 38.1739 58.674 38.1739C54.0992 38.1739 50.6114 40.1377 48.0023 44.0619C45.3914 47.9878 44.0872 54.0554 44.0872 62.262C44.0872 70.4686 45.3914 76.5379 48.0023 80.4621C50.6114 84.388 54.1692 86.3501 58.674 86.3501C63.1788 86.3501 66.8422 84.388 69.4531 80.4621ZM42.0489 96.4143C37.1852 93.3465 33.3774 88.9035 30.6256 83.0854C27.872 77.269 26.4961 70.3288 26.4961 62.2628C26.4961 54.1969 27.872 47.2575 30.6256 41.4403C33.3774 35.6239 37.1852 31.181 42.0489 28.1114C46.9109 25.0435 52.4526 23.5078 58.6732 23.5078C64.8938 23.5078 70.4346 25.0435 75.2983 28.1114C80.1603 31.181 83.9672 35.6239 86.7208 41.4403C89.4726 47.2584 90.8503 54.1987 90.8503 62.2628C90.8503 70.327 89.4726 77.269 86.7208 83.0854C83.9672 88.9035 80.1594 93.3465 75.2983 96.4143C70.4346 99.4839 64.8946 101.018 58.6732 101.018C52.4517 101.018 46.91 99.4839 42.0489 96.4143Z" fill="#A4A4A4"/>
<path d="M70.1182 79.9532C72.7273 76.029 74.0332 69.9614 74.0332 61.7531C74.0332 53.5447 72.7273 47.4789 70.1182 43.553C67.5073 39.6288 63.9141 37.665 59.3392 37.665C54.7643 37.665 51.2765 39.6288 48.6674 43.553C46.0565 47.4789 44.7524 53.5465 44.7524 61.7531C44.7524 69.9597 46.0565 76.029 48.6674 79.9532C51.2765 83.8791 54.8344 85.8412 59.3392 85.8412C63.844 85.8412 67.5073 83.8791 70.1182 79.9532ZM42.7149 95.9046C37.8512 92.8367 34.0434 88.3937 31.2916 82.5756C28.538 76.7593 27.1621 69.819 27.1621 61.7531C27.1621 53.6872 28.538 46.7478 31.2916 40.9305C34.0434 35.1142 37.8512 30.6712 42.7149 27.6016C47.5769 24.5337 53.1186 22.998 59.3392 22.998C65.5598 22.998 71.1006 24.5337 75.9643 27.6016C80.8263 30.6712 84.6332 35.1142 87.3868 40.9305C90.1386 46.7486 91.5163 53.6889 91.5163 61.7531C91.5163 69.8173 90.1386 76.7593 87.3868 82.5756C84.6332 88.3937 80.8255 92.8367 75.9643 95.9046C71.1006 98.9742 65.5607 100.508 59.3392 100.508C53.1177 100.508 47.576 98.9742 42.7149 95.9046Z" fill="#A1A1A1"/>
<path d="M70.7841 79.4454C73.3933 75.5212 74.6991 69.4536 74.6991 61.2453C74.6991 53.0369 73.3933 46.9711 70.7841 43.0452C68.1732 39.121 64.5799 37.1572 60.0051 37.1572C55.4302 37.1572 51.9424 39.121 49.3333 43.0452C46.7224 46.9711 45.4183 53.0387 45.4183 61.2453C45.4183 69.4519 46.7224 75.5212 49.3333 79.4454C51.9424 83.3713 55.5003 85.3334 60.0051 85.3334C64.5099 85.3334 68.1732 83.3713 70.7841 79.4454ZM43.3799 95.3968C38.5162 92.3289 34.7085 87.8859 31.9566 82.0678C29.2031 76.2514 27.8271 69.3112 27.8271 61.2453C27.8271 53.1794 29.2031 46.2399 31.9566 40.4227C34.7085 34.6064 38.5162 30.1634 43.3799 27.0938C48.2419 24.0259 53.7836 22.4902 60.0042 22.4902C66.2248 22.4902 71.7657 24.0259 76.6294 27.0938C81.4914 30.1634 85.2983 34.6064 88.0518 40.4227C90.8037 46.2408 92.1813 53.1811 92.1813 61.2453C92.1813 69.3095 90.8037 76.2514 88.0518 82.0678C85.2983 87.8859 81.4905 92.3289 76.6294 95.3968C71.7657 98.4664 66.2257 100 60.0042 100C53.7828 100 48.241 98.4664 43.3799 95.3968Z" fill="#9E9E9E"/>
</g>
<path d="M43.3799 95.3968C38.5162 92.3289 34.7085 87.8859 31.9566 82.0678C29.2031 76.2514 27.8271 69.3112 27.8271 61.2453C27.8271 53.1794 29.2031 46.2399 31.9566 40.4227C34.7085 34.6064 38.5162 30.1634 43.3799 27.0938C48.2419 24.0259 53.7836 22.4902 60.0042 22.4902C66.2248 22.4902 71.7657 24.0259 76.6294 27.0938C81.4914 30.1634 85.2983 34.6064 88.0518 40.4227C90.8037 46.2408 92.1813 53.1811 92.1813 61.2453C92.1813 69.3095 90.8037 76.2514 88.0518 82.0678C85.2983 87.8859 81.4905 92.3289 76.6294 95.3968C71.7657 98.4664 66.2257 100 60.0042 100C53.7828 100 48.241 98.4664 43.3799 95.3968ZM70.7841 79.4454C73.3933 75.5212 74.6991 69.4536 74.6991 61.2453C74.6991 53.0369 73.3933 46.9711 70.7841 43.0452C68.1732 39.121 64.5799 37.1572 60.0051 37.1572C55.4302 37.1572 51.9424 39.121 49.3333 43.0452C46.7224 46.9711 45.4183 53.0387 45.4183 61.2453C45.4183 69.4519 46.7224 75.5212 49.3333 79.4454C51.9424 83.3713 55.5003 85.3334 60.0051 85.3334C64.5099 85.3334 68.1732 83.3713 70.7841 79.4454Z" fill="url(#paint1_linear_978_455)"/>
<path d="M40.3902 92.1135C35.5265 89.0457 31.7187 84.6027 28.9669 78.7846C26.2133 72.9683 24.8374 66.028 24.8374 57.9621C24.8374 49.8962 26.2133 42.9567 28.9669 37.1395C31.7187 31.3232 35.5265 26.8802 40.3902 23.8106C45.2522 20.7427 50.7939 19.207 57.0145 19.207C63.2351 19.207 68.7759 20.7427 73.6396 23.8106C78.5016 26.8802 82.3085 31.3232 85.0621 37.1395C87.8139 42.9576 89.1916 49.8979 89.1916 57.9621C89.1916 66.0262 87.8139 72.9683 85.0621 78.7846C82.3085 84.6027 78.5007 89.0457 73.6396 92.1135C68.7759 95.1832 63.2359 96.7171 57.0145 96.7171C50.793 96.7171 45.2513 95.1832 40.3902 92.1135ZM67.7935 76.1613C70.4026 72.2371 71.7085 66.1695 71.7085 57.9612C71.7085 49.7529 70.4026 43.687 67.7935 39.7611C65.1826 35.8369 61.5893 33.8731 57.0145 33.8731C52.4396 33.8731 48.9518 35.8369 46.3427 39.7611C43.7318 43.687 42.4277 49.7546 42.4277 57.9612C42.4277 66.1678 43.7318 72.2371 46.3427 76.1613C48.9518 80.0872 52.5097 82.0493 57.0145 82.0493C61.5193 82.0493 65.1826 80.0872 67.7935 76.1613Z" fill="white"/>
<path d="M14.5297 19.2148L32.2082 42.9421L0 37.5936L14.5297 19.2148Z" fill="url(#paint2_linear_978_455)"/>
<path d="M78.2986 101.324L71.0835 87.1953L87.6325 92.9072L78.2986 101.324Z" fill="url(#paint3_linear_978_455)"/>
<path d="M41.9268 6.65479L47.593 14.517L49.6651 5L41.9268 6.65479Z" fill="url(#paint4_linear_978_455)"/>
<path d="M39.1829 98.5726L39.9967 88.9219L32.2246 94.8099L39.1829 98.5726Z" fill="url(#paint5_linear_978_455)"/>
<path d="M8.92424 68.1472C8.92424 69.6769 7.68237 70.9165 6.15078 70.9165C4.6192 70.9165 3.37646 69.6769 3.37646 68.1472C3.37646 66.6176 4.61834 65.3789 6.15078 65.3789C7.68323 65.3789 8.92424 66.6185 8.92424 68.1472Z" fill="white"/>
</g>
<path d="M30.8015 4.62889H34V6.83569H30.636C30.4338 8.03777 30.0478 8.99764 29.4779 9.7153C28.9265 10.415 28.136 10.9263 27.1066 11.2493C26.0772 11.5543 24.7445 11.7068 23.1085 11.7068V13.4023C23.1085 14.389 23.3199 15.1695 23.7426 15.7436C24.1838 16.3178 24.9191 16.6048 25.9485 16.6048C27.8235 16.6048 28.761 15.5732 28.761 13.5099H31.6562C31.6379 15.322 31.1324 16.6945 30.1397 17.6275C29.1654 18.5425 27.75 19 25.8934 19C24.0368 19 22.6121 18.4976 21.6195 17.4929C20.6452 16.4882 20.1581 15.0798 20.1581 13.2677V9.58074C22.1985 9.58074 23.6967 9.52691 24.6526 9.41926C25.6085 9.29367 26.3162 9.04249 26.7757 8.66572C27.2537 8.28895 27.5662 7.67894 27.7132 6.83569H19V4.62889H27.8511V2.23371H19V0H34V2.23371H30.8015V4.62889Z" fill="white"/>
<defs>
<linearGradient id="paint0_linear_978_455" x1="97.5638" y1="12.0156" x2="93.5386" y2="6.21989" gradientUnits="userSpaceOnUse">
<stop stop-color="#FFBA31"/>
<stop offset="1" stop-color="#FFEE5E"/>
</linearGradient>
<linearGradient id="paint1_linear_978_455" x1="120.922" y1="84.6437" x2="23.3671" y2="47.0343" gradientUnits="userSpaceOnUse">
<stop stop-color="#7FEAF8"/>
<stop offset="0.11" stop-color="#6BDCF3"/>
<stop offset="0.39" stop-color="#3DBDE7"/>
<stop offset="0.65" stop-color="#1BA6DF"/>
<stop offset="0.86" stop-color="#0798DA"/>
<stop offset="1" stop-color="#0093D9"/>
</linearGradient>
<linearGradient id="paint2_linear_978_455" x1="34.7884" y1="44.7838" x2="-6.40823" y2="20.1771" gradientUnits="userSpaceOnUse">
<stop stop-color="#FFBA31"/>
<stop offset="1" stop-color="#FFEE5E"/>
</linearGradient>
<linearGradient id="paint3_linear_978_455" x1="69.8982" y1="85.9549" x2="89.4657" y2="102.659" gradientUnits="userSpaceOnUse">
<stop stop-color="#FFBA31"/>
<stop offset="1" stop-color="#FFEE5E"/>
</linearGradient>
<linearGradient id="paint4_linear_978_455" x1="47.5316" y1="12.6619" x2="42.1754" y2="-8.51148" gradientUnits="userSpaceOnUse">
<stop stop-color="#7FEAF8"/>
<stop offset="0.11" stop-color="#6BDCF3"/>
<stop offset="0.39" stop-color="#3DBDE7"/>
<stop offset="0.65" stop-color="#1BA6DF"/>
<stop offset="0.86" stop-color="#0798DA"/>
<stop offset="1" stop-color="#0093D9"/>
</linearGradient>
<linearGradient id="paint5_linear_978_455" x1="38.8135" y1="90.3717" x2="29.1433" y2="109.959" gradientUnits="userSpaceOnUse">
<stop stop-color="#7FEAF8"/>
<stop offset="0.11" stop-color="#6BDCF3"/>
<stop offset="0.39" stop-color="#3DBDE7"/>
<stop offset="0.65" stop-color="#1BA6DF"/>
<stop offset="0.86" stop-color="#0798DA"/>
<stop offset="1" stop-color="#0093D9"/>
</linearGradient>
<clipPath id="clip0_978_455">
<rect width="100" height="110.759" fill="white" transform="translate(0 5)"/>
</clipPath>
</defs>
</svg>
