<svg width="45" height="45" viewBox="0 0 48 50" fill="none" xmlns="http://www.w3.org/2000/svg">
<g filter="url(#filter0_d_945_959)">
<path d="M23.6988 36.3745C23.2144 36.0564 22.6431 35.9302 22.1412 35.6388C20.9486 34.9456 19.8086 34.1931 18.7789 33.2628C17.4668 32.0777 16.397 30.7088 15.5017 29.1997C15.0465 28.433 14.6983 27.6087 14.3717 26.7777C13.9433 25.687 13.651 24.5596 13.4564 23.4087C13.2977 22.4692 13.3219 21.5154 13.3111 20.5642C13.301 19.6655 13.4363 18.7853 13.5825 17.9058C13.6234 17.6603 13.7454 17.4657 14.036 17.3622C14.781 17.0974 15.4958 16.7483 16.2425 16.4919C17.1202 16.1904 17.9487 15.772 18.8331 15.4831C19.6349 15.2216 20.389 14.8149 21.1808 14.5159C22.0477 14.1886 22.907 13.8436 23.7606 13.4854C24.5181 13.5137 25.1545 13.9146 25.8309 14.181C28.3882 15.1899 30.9262 16.2472 33.4927 17.2319C34.0389 17.4415 34.2644 17.7413 34.3262 18.2775C34.3947 18.8671 34.4665 19.4551 34.5224 20.0464C34.5659 20.5024 34.6068 20.9584 34.5675 21.4077C34.494 22.2512 34.4707 23.0997 34.2786 23.9357C34.1976 24.2898 34.1366 24.6539 34.0364 25.0047C33.6831 26.2349 33.2889 27.4475 32.6701 28.5817C32.3577 29.1538 32.0512 29.73 31.6812 30.262C30.9713 31.2818 30.2097 32.2739 29.2668 33.0857C28.3005 33.9175 27.3451 34.771 26.1792 35.3498C25.7549 35.5603 25.3407 35.805 24.9123 36.0138C24.6191 36.1566 24.3093 36.266 24.0195 36.4146C23.885 36.484 23.8073 36.3654 23.6988 36.3762V36.3745ZM23.0089 34.9464C23.1643 35.06 23.3789 35.0943 23.5092 35.2103C23.8433 35.5077 24.1673 35.3506 24.4446 35.1995C25.0142 34.8905 25.6347 34.6658 26.1441 34.2507C26.6853 33.8081 27.3275 33.5183 27.8453 33.0264C28.379 32.5186 28.9143 32.0117 29.4271 31.4839C29.8055 31.0947 30.1763 30.6863 30.4786 30.2378C30.9922 29.4745 31.4992 28.707 31.9034 27.871C32.1865 27.2855 32.4638 26.7051 32.66 26.0846C32.964 25.1283 33.3014 24.1879 33.41 23.174C33.4643 22.6671 33.5428 22.1568 33.5628 21.649C33.5871 21.0235 33.6614 20.3988 33.5278 19.7649C33.4384 19.3407 33.4017 18.898 33.3415 18.4637C33.3123 18.2499 33.2104 18.1798 33.0492 18.1288C31.9944 17.7998 31.0123 17.2895 29.9742 16.9153C29.4338 16.7208 28.9043 16.4861 28.369 16.2731C27.153 15.7896 25.9412 15.296 24.7252 14.8141C24.4362 14.6997 24.1506 14.4792 23.8441 14.5326C23.5568 14.5828 23.2603 14.7013 23.0123 14.8893C22.811 14.9544 22.6047 15.0078 22.4085 15.0864C21.6075 15.4096 20.8125 15.7453 20.0107 16.0668C18.2327 16.7792 16.4521 17.4866 14.6707 18.1906C14.5847 18.2249 14.5262 18.2549 14.5137 18.3518C14.4527 18.8287 14.3417 19.3047 14.3358 19.7824C14.3241 20.7145 14.2832 21.6457 14.3784 22.5802C14.4602 23.3862 14.5997 24.1796 14.811 24.9538C15.1551 26.2123 15.6462 27.4141 16.3034 28.5508C16.9707 29.705 17.7458 30.7723 18.6578 31.7394C19.3317 32.4535 20.0525 33.1233 20.8584 33.687C21.5399 34.1639 22.2431 34.6107 23.0089 34.9473V34.9464Z" fill="white"/>
<path d="M36.8082 18.4098C36.7698 17.7308 36.6178 17.0577 36.5093 16.3829C36.4683 16.1298 36.3998 15.9169 36.1067 15.8008C34.4172 15.1318 32.7368 14.4378 31.0507 13.7597C29.1072 12.9779 27.163 12.1987 25.2129 11.4329C24.726 11.2416 24.2667 10.9209 23.6988 11.0178C23.6136 11.0471 23.5267 11.0729 23.4432 11.1064C21.9349 11.7135 20.4341 12.3407 18.9166 12.9245C16.5448 13.8365 14.1997 14.8136 11.8353 15.7448C11.5873 15.8425 11.447 15.9895 11.3885 16.2351C11.1864 17.0827 11.0603 17.9471 11.026 18.8124C10.9868 19.8271 10.9851 20.8443 11.0686 21.8615C11.1497 22.8445 11.3184 23.8083 11.5514 24.762C11.9673 26.4641 12.6154 28.0759 13.4413 29.6227C14.3884 31.3974 15.5969 32.9775 16.9841 34.4206C17.4167 34.8708 17.9061 35.2708 18.3888 35.6751C19.7125 36.7825 21.1524 37.7028 22.7108 38.4361C23.0106 38.5772 23.2979 38.7626 23.6344 38.8194C23.743 38.8896 23.8599 38.9714 23.9902 38.9188C24.7485 38.6106 25.5069 38.2983 26.2142 37.8866C27.2365 37.2919 28.2328 36.6647 29.1624 35.9198C30.0618 35.1999 30.9112 34.4374 31.657 33.5671C32.5564 32.5173 33.4225 31.4416 34.0923 30.2206C34.4372 29.5926 34.8047 28.9779 35.0845 28.3165C35.5338 27.2558 35.933 26.1776 36.2353 25.0644C36.4466 24.2885 36.5878 23.4993 36.6997 22.7042C36.7715 22.1939 36.774 21.6753 36.8408 21.1692C36.9636 20.243 36.8609 19.3268 36.8091 18.4107L36.8082 18.4098ZM34.5675 21.4064C34.494 22.2499 34.4706 23.0984 34.2785 23.9344C34.1975 24.2885 34.1366 24.6526 34.0363 25.0034C33.6831 26.2336 33.2889 27.4462 32.67 28.5804C32.3577 29.1525 32.0512 29.7287 31.6812 30.2607C30.9713 31.2805 30.2097 32.2726 29.2668 33.0844C28.3005 33.9162 27.3451 34.7697 26.1792 35.3485C25.7549 35.559 25.3407 35.8037 24.9122 36.0125C24.6191 36.1553 24.3093 36.2647 24.0195 36.4133C23.885 36.4827 23.8073 36.3641 23.6988 36.3749C23.2144 36.0567 22.6431 35.9306 22.1412 35.6391C20.9486 34.946 19.8086 34.1935 18.7788 33.2631C17.4668 32.078 16.397 30.7092 15.5017 29.2001C15.0465 28.4334 14.6982 27.6091 14.3717 26.7781C13.9433 25.6874 13.651 24.5599 13.4564 23.4091C13.2977 22.4695 13.3219 21.5158 13.311 20.5645C13.301 19.6659 13.4363 18.7856 13.5825 17.9062C13.6234 17.6607 13.7453 17.4661 14.036 17.3625C14.7809 17.0978 15.4958 16.7487 16.2425 16.4923C17.1202 16.1908 17.9487 15.7724 18.8331 15.4834C19.6349 15.222 20.389 14.8153 21.1807 14.5163C22.0476 14.1889 22.907 13.844 23.7606 13.4857C24.518 13.5141 25.1544 13.915 25.8309 14.1814C28.3882 15.1903 30.9262 16.2476 33.4927 17.2322C34.0389 17.4419 34.2643 17.7417 34.3261 18.2779C34.3946 18.8675 34.4665 19.4554 34.5224 20.0467C34.5658 20.5027 34.6068 20.9587 34.5675 21.408V21.4064Z" fill="white"/>
<path d="M33.3408 18.4627C33.3116 18.2489 33.2097 18.1788 33.0485 18.1278C31.9937 17.7988 31.0115 17.2885 29.9734 16.9144C29.4331 16.7198 28.9036 16.4851 28.3683 16.2721C27.1523 15.7886 25.9404 15.295 24.7245 14.8131C24.4355 14.6987 24.1499 14.4782 23.8434 14.5317C23.5561 14.5818 23.2596 14.7004 23.0115 14.8883C22.8103 14.9534 22.604 15.0069 22.4077 15.0854C21.6068 15.4086 20.8117 15.7443 20.01 16.0658C18.2319 16.7782 16.4514 17.4856 14.67 18.1897C14.584 18.2239 14.5255 18.254 14.513 18.3508C14.452 18.8277 14.3409 19.3038 14.3351 19.7815C14.3234 20.7135 14.2825 21.6447 14.3777 22.5792C14.4595 23.3852 14.599 24.1786 14.8103 24.9528C15.1544 26.2114 15.6454 27.4131 16.3027 28.5498C16.97 29.704 17.745 30.7713 18.657 31.7384C19.331 32.4525 20.0517 33.1223 20.8577 33.686C21.5392 34.1629 22.2424 34.6097 23.0082 34.9463C23.1635 35.0599 23.3782 35.0941 23.5085 35.2102C23.8425 35.5075 24.1666 35.3505 24.4438 35.1993C25.0134 34.8903 25.6339 34.6657 26.1434 34.2506C26.6846 33.808 27.3268 33.5182 27.8446 33.0262C28.3783 32.5185 28.9136 32.0115 29.4264 31.4837C29.8047 31.0945 30.1755 30.6861 30.4779 30.2377C30.9915 29.4743 31.4984 28.7068 31.9026 27.8708C32.1858 27.2854 32.463 26.7049 32.6593 26.0844C32.9633 25.1282 33.3007 24.1878 33.4093 23.1739C33.4636 22.6669 33.5421 22.1567 33.5621 21.6489C33.5863 21.0233 33.6607 20.3986 33.527 19.7648C33.4377 19.3405 33.4009 18.8979 33.3408 18.4636V18.4627Z" fill="white"/>
<path d="M22.2413 26.2071C22.6562 25.7825 23.0561 25.3714 23.4578 24.9621C24.776 23.6175 26.0943 22.2729 27.4142 20.9292C27.7819 20.5544 28.2033 20.4776 28.5983 20.7089C29.1001 21.0026 29.221 21.6711 28.8525 22.1252C28.8028 22.186 28.7482 22.2425 28.6935 22.2982C26.7973 24.2176 24.9011 26.1362 23.0048 28.0547C22.5452 28.5198 22.0633 28.5274 21.5839 28.0825C20.5985 27.1676 19.6139 26.2518 18.6269 25.3385C18.3718 25.103 18.2294 24.8228 18.2716 24.4666C18.3536 23.7618 19.1477 23.4099 19.6926 23.853C20.0652 24.1568 20.4064 24.5004 20.7599 24.8287C21.2195 25.2558 21.6766 25.6846 22.1353 26.1125C22.166 26.1412 22.1983 26.1674 22.2438 26.2071H22.2413Z" fill="#1B47E7"/>
</g>
<defs>
<filter id="filter0_d_945_959" x="0" y="0" width="55.8987" height="57.9355" filterUnits="userSpaceOnUse" color-interpolation-filters="sRGB">
<feFlood flood-opacity="0" result="BackgroundImageFix"/>
<feColorMatrix in="SourceAlpha" type="matrix" values="0 0 0 0 0 0 0 0 0 0 0 0 0 0 0 0 0 0 127 0" result="hardAlpha"/>
<feOffset dx="4" dy="4"/>
<feGaussianBlur stdDeviation="7.5"/>
<feComposite in2="hardAlpha" operator="out"/>
<feColorMatrix type="matrix" values="0 0 0 0 0.106425 0 0 0 0 0.246361 0 0 0 0 0.7425 0 0 0 0.25 0"/>
<feBlend mode="normal" in2="BackgroundImageFix" result="effect1_dropShadow_945_959"/>
<feBlend mode="normal" in="SourceGraphic" in2="effect1_dropShadow_945_959" result="shape"/>
</filter>
</defs>
</svg>
